<svg xmlns="http://www.w3.org/2000/svg" viewBox="0 0 313.07 119.21"><g id="niavi-border"><path d="M7182,7151v18h-34v-18h34m1-1h-36v20h36v-20Z" transform="translate(-7056.95 -7136)" style="fill:#fff;stroke:#fff;stroke-miterlimit:10;stroke-width:2px"/><polygon points="116.05 26 116.05 22 117.05 22 117.05 20 118.05 20 118.05 18 119.05 18 119.05 16 122.05 16 122.05 18 123.05 18 123.05 20 124.05 20 124.05 22 125.05 22 125.05 26 116.05 26" style="fill:#fff"/><path d="M7178,7153v2h1v2h1v2h1v2h-7v-2h1v-2h1v-2h1v-2h1m2-2h-5v2h-1v2h-1v2h-1v6h11v-6h-1v-2h-1v-2h-1v-2Z" transform="translate(-7056.95 -7136)" style="fill:#fff"/><polygon points="158.05 66 158.05 62 159.05 62 159.05 60 160.05 60 160.05 58 161.05 58 161.05 56 164.05 56 164.05 58 165.05 58 165.05 60 166.05 60 166.05 62 167.05 62 167.05 66 158.05 66" style="fill:#fff"/><path d="M7220,7193v2h1v2h1v2h1v2h-7v-2h1v-2h1v-2h1v-2h1m2-2h-5v2h-1v2h-1v2h-1v6h11v-6h-1v-2h-1v-2h-1v-2Z" transform="translate(-7056.95 -7136)" style="fill:#fff"/><polygon points="221.05 55 221.05 51 222.05 51 222.05 49 223.05 49 223.05 47 224.05 47 224.05 45 227.05 45 227.05 47 228.05 47 228.05 49 229.05 49 229.05 51 230.05 51 230.05 55 221.05 55" style="fill:#fff"/><path d="M7283,7182v2h1v2h1v2h1v2h-7v-2h1v-2h1v-2h1v-2h1m2-2h-5v2h-1v2h-1v2h-1v6h11v-6h-1v-2h-1v-2h-1v-2Z" transform="translate(-7056.95 -7136)" style="fill:#fff"/><polygon points="262.05 98 262.05 94 263.05 94 263.05 92 264.05 92 264.05 90 265.05 90 265.05 88 268.05 88 268.05 90 269.05 90 269.05 92 270.05 92 270.05 94 271.05 94 271.05 98 262.05 98" style="fill:#fff"/><path d="M7324,7225v2h1v2h1v2h1v2h-7v-2h1v-2h1v-2h1v-2h1m2-2h-5v2h-1v2h-1v2h-1v6h11v-6h-1v-2h-1v-2h-1v-2Z" transform="translate(-7056.95 -7136)" style="fill:#fff"/><polygon points="69.05 59 69.05 55 70.05 55 70.05 53 71.05 53 71.05 51 72.05 51 72.05 49 75.05 49 75.05 51 76.05 51 76.05 53 77.05 53 77.05 55 78.05 55 78.05 59 69.05 59" style="fill:#fff"/><path d="M7131,7186v2h1v2h1v2h1v2h-7v-2h1v-2h1v-2h1v-2h1m2-2h-5v2h-1v2h-1v2h-1v6h11v-6h-1v-2h-1v-2h-1v-2Z" transform="translate(-7056.95 -7136)" style="fill:#fff"/><path d="M7145,7184v19h-19v-19h19m1-1h-21v21h21v-21Z" transform="translate(-7056.95 -7136)" style="fill:#fff;stroke:#fff;stroke-miterlimit:10;stroke-width:2px"/><path d="M7224,7193v17h-21v-17h21m1-1h-23v19h23v-19Z" transform="translate(-7056.95 -7136)" style="fill:#fff;stroke:#fff;stroke-miterlimit:10;stroke-width:2px"/><path d="M7289,7177v29h-31v-29h31m1-1h-33v31h33v-31Z" transform="translate(-7056.95 -7136)" style="fill:#fff;stroke:#fff;stroke-miterlimit:10;stroke-width:2px"/><path d="M7109.85,7180.65c-.25-.63-6-15.54,1.53-24.11,3.24-3.71,8.41-5.59,15.38-5.59a62,62,0,0,1,14.34,2l1,.23-.7,2.92-1-.24a59.48,59.48,0,0,0-13.65-1.88c-6,0-10.45,1.53-13.1,4.57-6.27,7.18-1.05,20.9-1,21l.36.93-2.79,1.1Z" transform="translate(-7056.95 -7136)" style="fill:#fff"/><path d="M7126.76,7152a61.12,61.12,0,0,1,14.1,1.94l-.23,1a60,60,0,0,0-13.89-1.91c-6.36,0-11,1.63-13.85,4.91-6.69,7.66-1.24,21.91-1.18,22.06l-.93.36c-.24-.61-5.73-15,1.35-23.08,3.06-3.5,7.95-5.25,14.63-5.25m0-2c-7.27,0-12.7,2-16.13,5.93-7.88,9-2,24.48-1.72,25.13l.73,1.86,1.87-.73.93-.36,1.86-.73-.73-1.86c0-.13-5-13.31.83-20,2.44-2.8,6.6-4.22,12.34-4.22a58.65,58.65,0,0,1,13.42,1.85l1.94.47.47-1.94.24-1,.47-1.95-1.95-.47a63.33,63.33,0,0,0-14.57-2Z" transform="translate(-7056.95 -7136)" style="fill:#fff"/><path d="M7131.46,7237.46c-5.05,0-9.24-1.39-12.44-4.13-6.45-5.52-8.26-16.17-5.39-31.64l.19-1,3,.55-.19,1c-2.66,14.34-1.18,24,4.39,28.81,2.62,2.24,6.14,3.37,10.49,3.37a28.82,28.82,0,0,0,8.54-1.34l.94-.32,1,2.82-.94.34a31.42,31.42,0,0,1-9.54,1.54Z" transform="translate(-7056.95 -7136)" style="fill:#fff"/><path d="M7114.62,7201.87l1,.19c-2.74,14.72-1.15,24.73,4.72,29.75,3.29,2.81,7.46,3.61,11.14,3.61a30.31,30.31,0,0,0,8.87-1.39l.34.94a30.14,30.14,0,0,1-9.21,1.49,17.79,17.79,0,0,1-11.79-3.89c-6.16-5.27-7.86-15.6-5.05-30.7m-1.6-2.33-.37,2c-2.94,15.85-1,26.81,5.72,32.58,3.39,2.9,7.79,4.37,13.09,4.37a32.23,32.23,0,0,0,9.87-1.6l1.89-.67-.67-1.88-.33-1-.66-1.88-1.89.66a28.32,28.32,0,0,1-8.21,1.28c-4.1,0-7.41-1.05-9.84-3.13-5.28-4.53-6.65-13.9-4.05-27.87l.36-2-2-.37-1-.18-2-.37Z" transform="translate(-7056.95 -7136)" style="fill:#fff"/><path d="M7150.85,7202.57l17.64-11.74,2.85,16Zm16.76.43-1.27-7.13-7.86,5.23Z" transform="translate(-7056.95 -7136)" style="fill:#fff"/><path d="M7167.77,7192.51l2.33,13.05-16.71-3.48,14.38-9.57m1.09,11.77-1.8-10.09-11.13,7.4,12.93,2.69m.35-15.13-2.54,1.69-14.39,9.58-4,2.65,4.68,1,16.71,3.48,2.9.61-.52-2.92-2.33-13.05-.53-3Zm-8.19,11.46,4.6-3.07.75,4.18-5.35-1.11Z" transform="translate(-7056.95 -7136)" style="fill:#fff"/><path d="M7228.09,7216c-.12-.31-11.16-31.81,5.41-46.62l.67-.59.84.3c.87.31,1.85.64,2.91,1,10.46,3.52,27.83,9.36,27.08,26.48-.83,18.91-34,20.38-35.44,20.43l-1.1,0Zm6.77-43.78c-12.55,12.2-5.92,36.46-4.29,41.71,5.55-.41,30.8-3.09,31.43-17.5.65-14.85-15.38-20.25-24.95-23.47Z" transform="translate(-7056.95 -7136)" style="fill:#fff"/><path d="M7234.39,7169.93l.28.1c.9.32,1.92.67,3,1,10.11,3.41,27,9.1,26.32,25.46-.79,18-33.11,19.43-34.48,19.48h-.37l-.12-.34c-.11-.31-10.9-31.21,5.14-45.54l.22-.2m-4.54,45c3.63-.21,32.45-2.41,33.15-18.5.68-15.61-15.79-21.16-25.64-24.47-1-.33-1.91-.64-2.75-.94-14.32,13.16-5.89,40.5-4.76,43.91m4.09-47.34-.88.8-.23.2c-17.06,15.24-5.8,47.38-5.68,47.7l.12.34.49,1.39,1.47-.06h.36a76.1,76.1,0,0,0,18-3.1c11.69-3.66,18.06-10,18.42-18.29.78-17.87-17.73-24.09-27.68-27.44l-.08,0c-1.05-.35-2-.68-2.89-1l-.29-.1-1.12-.41Zm-2.65,45.22c-1.87-6.32-7.21-28.08,3.83-39.49l1.61.54c9.91,3.33,24.89,8.37,24.27,22.48-.56,12.89-23.41,15.89-29.71,16.47Z" transform="translate(-7056.95 -7136)" style="fill:#fff"/><path d="M7257.8,7236l1-.14c36.28-4.88,35.23-36,35.21-36.27l0-1,3-.16.06,1c0,.34,1.35,34.14-37.81,39.4l-1,.14Z" transform="translate(-7056.95 -7136)" style="fill:#fff"/><path d="M7296,7199.47c0,.33,1.34,33.22-36.94,38.36l-.14-1c37.38-5,36.1-37,36.08-37.31l1-.06m1.89-2.1-2,.11-1,.05-2,.11.1,2a35.72,35.72,0,0,1-3.87,16c-5.46,10.76-15.71,17.23-30.47,19.21l-2,.27.26,2,.13,1,.27,2,2-.27c40.07-5.38,38.69-40.09,38.68-40.44l-.11-2Z" transform="translate(-7056.95 -7136)" style="fill:#fff"/><path d="M7294,7181.52c0-.33-1.07-26.43-38.54-27.52l-1,0,.08-3,1,0c40.69,1.19,41.46,30.19,41.46,30.48v1l-3,0Z" transform="translate(-7056.95 -7136)" style="fill:#fff"/><path d="M7255.51,7152c39.71,1.16,40.49,29.21,40.49,29.49l-1,0c0-.28-.8-27.38-39.51-28.51l0-1m-1.94-2.06,0,2,0,1-.06,2,2,.06c15.32.45,26.28,5,32.59,13.59a25.39,25.39,0,0,1,5,13l.05,2h2l1,0,2,0,0-2c0-.3-.79-30.25-42.43-31.47l-2-.06Z" transform="translate(-7056.95 -7136)" style="fill:#fff"/><rect x="52.05" y="43" width="7" height="5" style="fill:#fff"/><path d="M7115,7180v3h-5v-3h5m2-2h-9v7h9v-7Z" transform="translate(-7056.95 -7136)" style="fill:#fff"/><rect x="173.05" y="32" width="7" height="5" style="fill:#fff"/><path d="M7236,7169v3h-5v-3h5m2-2h-9v7h9v-7Z" transform="translate(-7056.95 -7136)" style="fill:#fff"/><rect x="203.05" y="58" width="7" height="5" style="fill:#fff"/><path d="M7266,7195v3h-5v-3h5m2-2h-9v7h9v-7Z" transform="translate(-7056.95 -7136)" style="fill:#fff"/><rect x="195.05" y="14" width="7" height="5" style="fill:#fff"/><path d="M7258,7151v3h-5v-3h5m2-2h-9v7h9v-7Z" transform="translate(-7056.95 -7136)" style="fill:#fff"/><rect x="235.05" y="43" width="7" height="5" style="fill:#fff"/><path d="M7298,7180v3h-5v-3h5m2-2h-9v7h9v-7Z" transform="translate(-7056.95 -7136)" style="fill:#fff"/><rect x="235.05" y="61" width="7" height="5" style="fill:#fff"/><path d="M7298,7198v3h-5v-3h5m2-2h-9v7h9v-7Z" transform="translate(-7056.95 -7136)" style="fill:#fff"/><rect x="200.05" y="99" width="7" height="5" style="fill:#fff"/><path d="M7263,7236v3h-5v-3h5m2-2h-9v7h9v-7Z" transform="translate(-7056.95 -7136)" style="fill:#fff"/><rect x="261.05" y="111" width="7" height="5" style="fill:#fff"/><path d="M7324,7248v3h-5v-3h5m2-2h-9v7h9v-7Z" transform="translate(-7056.95 -7136)" style="fill:#fff"/><rect x="168.05" y="77" width="7" height="5" style="fill:#fff"/><path d="M7231,7214v3h-5v-3h5m2-2h-9v7h9v-7Z" transform="translate(-7056.95 -7136)" style="fill:#fff"/><rect x="109.05" y="68" width="7" height="5" style="fill:#fff"/><path d="M7172,7205v3h-5v-3h5m2-2h-9v7h9v-7Z" transform="translate(-7056.95 -7136)" style="fill:#fff"/><rect x="106.05" y="54" width="7" height="5" style="fill:#fff"/><path d="M7169,7191v3h-5v-3h5m2-2h-9v7h9v-7Z" transform="translate(-7056.95 -7136)" style="fill:#fff"/><rect x="93.05" y="63" width="7" height="5" style="fill:#fff"/><path d="M7156,7200v3h-5v-3h5m2-2h-9v7h9v-7Z" transform="translate(-7056.95 -7136)" style="fill:#fff"/><rect x="80.05" y="17" width="7" height="5" style="fill:#fff"/><path d="M7143,7154v3h-5v-3h5m2-2h-9v7h9v-7Z" transform="translate(-7056.95 -7136)" style="fill:#fff"/><rect x="55.05" y="63" width="7" height="5" style="fill:#fff"/><path d="M7118,7200v3h-5v-3h5m2-2h-9v7h9v-7Z" transform="translate(-7056.95 -7136)" style="fill:#fff"/><rect x="80.05" y="96" width="7" height="5" style="fill:#fff"/><path d="M7143,7233v3h-5v-3h5m2-2h-9v7h9v-7Z" transform="translate(-7056.95 -7136)" style="fill:#fff"/><path d="M7317,7236v-14h14v14Zm11-3v-8h-8v8Z" transform="translate(-7056.95 -7136)" style="fill:#fff"/><path d="M7330,7223v12h-12v-12h12m-11,11h10v-10h-10v10m13-13h-16v16h16v-16Zm-11,5h6v6h-6v-6Z" transform="translate(-7056.95 -7136)" style="fill:#fff"/><rect x="263.05" y="111" width="11" height="4" style="fill:#fff"/><path d="M7330,7248v2h-9v-2h9m2-2h-13v6h13v-6Z" transform="translate(-7056.95 -7136)" style="fill:#fff"/></g><g id="roads-border"><polygon points="73.05 77 73.05 63 67.05 63 67.05 51 73.05 51 73.05 41 83.05 41 83.05 51 90.05 51 90.05 63 83.05 63 83.05 77 73.05 77" style="fill:#fff"/><path d="M7139,7178v10h7v10h-7v14h-8v-14h-6v-10h6v-10h8m2-2h-12v10h-6v14h6v14h12v-14h7v-14h-7v-10Z" transform="translate(-7056.95 -7136)" style="fill:#fff"/><polygon points="112.05 38 112.05 34 87.05 34 87.05 21 131.05 21 131.05 34 122.05 34 122.05 38 112.05 38" style="fill:#fff"/><path d="M7187,7158v11h-9v4h-8v-4h-25v-11h42m2-2h-46v15h25v4h12v-4h9v-15Z" transform="translate(-7056.95 -7136)" style="fill:#fff"/><rect x="183.05" y="21" width="13" height="12" style="fill:#fff"/><path d="M7252,7158v10h-11v-10h11m2-2h-15v14h15v-14Z" transform="translate(-7056.95 -7136)" style="fill:#fff"/><polygon points="202.05 81 202.05 57 211.05 57 211.05 55 196.05 55 196.05 43 202.05 43 202.05 38 211.05 38 211.05 43 222.05 43 222.05 49 236.05 49 236.05 61 222.05 61 222.05 69 211.05 69 211.05 81 202.05 81" style="fill:#fff"/><path d="M7267,7175v5h11v6h14v10h-14v8h-11v12h-7v-22h9v-4h-15v-10h6v-5h7m2-2h-11v5h-6v14h6v26h11v-12h11v-8h14v-14h-14v-6h-11v-5Z" transform="translate(-7056.95 -7136)" style="fill:#fff"/><polygon points="173.05 100 173.05 97 162.05 97 162.05 86 194.05 86 194.05 97 185.05 97 185.05 100 173.05 100" style="fill:#fff"/><path d="M7250,7223v9h-9v3h-10v-3h-11v-9h30m2-2h-34v13h11v3h14v-3h9v-13Z" transform="translate(-7056.95 -7136)" style="fill:#fff"/><polygon points="149.05 76 149.05 56 159.05 56 159.05 61 169.05 61 169.05 73 159.05 73 159.05 76 149.05 76" style="fill:#fff"/><path d="M7215,7193v5h10v10h-10v3h-8v-18h8m2-2h-12v22h12v-3h10v-14h-10v-5Z" transform="translate(-7056.95 -7136)" style="fill:#fff"/><polygon points="93.05 107 93.05 94 87.05 94 87.05 82 104.05 82 104.05 96 107.05 96 107.05 93 116.05 93 116.05 96 135.05 96 135.05 107 93.05 107" style="fill:#fff"/><path d="M7160,7219v14h5v-3h7v3h19v9h-40v-13h-6v-10h15m2-2h-19v14h6v13h44v-13h-19v-3h-11v3h-1v-14Z" transform="translate(-7056.95 -7136)" style="fill:#fff"/><rect x="63.05" y="29" width="139" height="68" style="fill:#fff"/><rect x="61.05" y="66" width="4" height="14" style="fill:#fff"/></g><g id="rooms-border"><polygon points="63.05 43 63.05 21.59 69.64 15 89.05 15 89.05 43 63.05 43" style="fill:#fff"/><path d="M7145,7152v26h-24v-20l6-6h18m2-2h-20.83l-.58.59-6,6-.59.58V7180h28v-30Z" transform="translate(-7056.95 -7136)" style="fill:#fff"/><polygon points="52.77 79 42.05 72.57 42.05 43.43 52.77 37 61.05 37 61.05 45 69.05 45 69.05 70 61.05 70 61.05 79 52.77 79" style="fill:#fff"/><path d="M7117,7174v8h8v23h-8v9h-7l-10-6v-28l10-6h7m2-2h-9.55l-.48.29-10,6-1,.58v30.26l1,.58,10,6,.48.29H7119v-9h8v-27h-8v-8Z" transform="translate(-7056.95 -7136)" style="fill:#fff"/><polygon points="69.64 102 64.05 96.41 64.05 75 89.05 75 89.05 102 69.64 102" style="fill:#fff"/><path d="M7145,7212v25h-18l-5-5v-20h23m2-2h-27v22.83l.59.58,5,5,.58.59H7147v-29Z" transform="translate(-7056.95 -7136)" style="fill:#fff"/><polygon points="88.05 73 88.05 51.7 92.52 45 99.58 45 104.05 51.7 104.05 73 88.05 73" style="fill:#fff"/><path d="M7156,7182l4,6v20h-14v-20l4-6h6m1.07-2h-8.14l-.59.89-4,6-.34.5V7210h18v-22.61l-.34-.5-4-6-.59-.89Z" transform="translate(-7056.95 -7136)" style="fill:#fff"/><polygon points="105.05 95 105.05 67 138.05 67 138.05 74.41 131.05 81.41 131.05 89.42 122.34 95 105.05 95" style="fill:#fff"/><path d="M7194,7204v6l-7,7v7.87l-8,5.13h-16v-26h31m2-2h-35v30h18.59l.49-.32,8-5.13.92-.59v-8.13l6.41-6.42.59-.58V7202Z" transform="translate(-7056.95 -7136)" style="fill:#fff"/><polygon points="110.64 65 105.05 59.41 105.05 36 129.05 36 129.05 48.55 138.05 56.55 138.05 65 110.64 65" style="fill:#fff"/><path d="M7185,7173v12l9,8v7h-26l-5-5v-22h22m2-2h-26v24.83l.59.58,5,5,.58.59H7196v-9.9l-.67-.59-8.33-7.41V7171Z" transform="translate(-7056.95 -7136)" style="fill:#fff"/><polygon points="140.66 58 129.05 47.44 129.05 11.62 138.6 1 171.49 1 185.05 15.61 185.05 42.35 172.53 58 140.66 58" style="fill:#fff"/><path d="M7228,7138l13,14v26l-12,15h-31l-11-10v-35l9-10h32m.87-2h-33.76l-.6.66-9,10-.51.57v36.65l.65.6,11,10,.58.52H7230l.6-.75,12-15,.44-.55v-27.49l-.53-.57-13-14-.6-.64Z" transform="translate(-7056.95 -7136)" style="fill:#fff"/><polygon points="140.6 118 132.05 108.38 132.05 81.59 140.64 73 164.05 73 164.05 118 140.6 118" style="fill:#fff"/><path d="M7220,7210v43h-22l-8-9v-26l8-8h22m2-2h-24.83l-.58.59-8,8-.59.58v27.59l.51.57,8,9,.59.67H7222v-47Z" transform="translate(-7056.95 -7136)" style="fill:#fff"/><polygon points="167.05 86 167.05 61 193.05 61 193.05 81.41 188.46 86 167.05 86" style="fill:#fff"/><path d="M7249,7198v19l-4,4h-20v-23h24m2-2h-28v27h22.83l.58-.59,4-4,.59-.58V7196Z" transform="translate(-7056.95 -7136)" style="fill:#fff"/><polygon points="169.64 118 164.05 112.41 164.05 98 190.05 98 190.05 112.41 184.46 118 169.64 118" style="fill:#fff"/><path d="M7246,7235v13l-5,5h-14l-5-5v-13h24m2-2h-28v15.83l.59.58,5,5,.58.59h15.66l.58-.59,5-5,.59-.58V7233Z" transform="translate(-7056.95 -7136)" style="fill:#fff"/><polygon points="192.05 106 192.05 84.59 197.64 79 216.05 79 216.05 95.41 205.46 106 192.05 106" style="fill:#fff"/><path d="M7272,7216v15l-10,10h-12v-20l5-5h17m2-2h-19.83l-.58.59-5,5-.59.58V7243h14.83l.58-.59,10-10,.59-.58V7214Z" transform="translate(-7056.95 -7136)" style="fill:#fff"/><polygon points="178.05 60 178.05 52.66 185.05 43.66 185.05 41 198.05 41 198.05 60 178.05 60" style="fill:#fff"/><path d="M7254,7178v17h-18v-6l7-9v-2h11m2-2h-15v3.31l-6.58,8.46-.42.54V7197h22v-21Z" transform="translate(-7056.95 -7136)" style="fill:#fff"/><polygon points="234.05 68 234.05 42 245.46 42 254.05 50.59 254.05 60.45 245.43 68 234.05 68" style="fill:#fff"/><path d="M7302,7179l8,8v9l-8,7h-10v-24h10m.83-2H7290v28h12.75l.57-.49,8-7,.68-.6v-10.74l-.59-.58-8-8-.58-.59Z" transform="translate(-7056.95 -7136)" style="fill:#fff"/><polygon points="199.64 40 194.05 34.41 194.05 13 207.46 13 218.05 23.59 218.05 40 199.64 40" style="fill:#fff"/><path d="M7264,7150l10,10v15h-17l-5-5v-20h12m.83-2H7250v22.83l.59.58,5,5,.58.59H7276v-17.83l-.59-.58-10-10-.58-.59Z" transform="translate(-7056.95 -7136)" style="fill:#fff"/></g><g id="roads"><polygon points="74.05 42 74.05 52 68.05 52 68.05 62 74.05 62 74.05 76 82.05 76 82.05 62 89.05 62 89.05 52 82.05 52 82.05 42 74.05 42" style="fill:#333"/><polygon points="88.05 22 130.05 22 130.05 33 121.05 33 121.05 37 113.05 37 113.05 33 88.05 33 88.05 22" style="fill:#333"/><rect x="184.05" y="22" width="11" height="10" style="fill:#333"/><polygon points="203.05 39 203.05 44 197.05 44 197.05 54 212.05 54 212.05 58 203.05 58 203.05 80 210.05 80 210.05 68 221.05 68 221.05 60 235.05 60 235.05 50 221.05 50 221.05 44 210.05 44 210.05 39 203.05 39" style="fill:#333"/><polygon points="193.05 87 163.05 87 163.05 96 174.05 96 174.05 99 184.05 99 184.05 96 193.05 96 193.05 87" style="fill:#333"/><polygon points="150.05 57 150.05 75 158.05 75 158.05 72 168.05 72 168.05 62 158.05 62 158.05 57 150.05 57" style="fill:#333"/><polygon points="134.05 97 115.05 97 115.05 94 108.05 94 108.05 97 103.05 97 103.05 83 88.05 83 88.05 93 94.05 93 94.05 106 134.05 106 134.05 97" style="fill:#333"/></g><g id="green"><g id="rooms"><polygon points="70.05 16 88.05 16 88.05 42 64.05 42 64.05 22 70.05 16" style="fill:#009245"/><polygon points="53.05 38 43.05 44 43.05 72 53.05 78 60.05 78 60.05 69 68.05 69 68.05 46 60.05 46 60.05 38 53.05 38" style="fill:#009245"/><polygon points="65.05 76 65.05 96 70.05 101 88.05 101 88.05 76 65.05 76" style="fill:#009245"/><polygon points="93.05 46 99.05 46 103.05 52 103.05 72 89.05 72 89.05 52 93.05 46" style="fill:#009245"/><polygon points="106.05 68 106.05 94 122.05 94 130.05 88.87 130.05 81 137.05 74 137.05 68 106.05 68" style="fill:#009245"/><polygon points="106.05 37 106.05 59 111.05 64 137.05 64 137.05 57 128.05 49 128.05 37 106.05 37" style="fill:#009245"/><polygon points="130.05 47 141.05 57 172.05 57 184.05 42 184.05 16 171.05 2 139.05 2 130.05 12 130.05 47" style="fill:#009245"/><polygon points="141.05 74 133.05 82 133.05 108 141.05 117 163.05 117 163.05 74 141.05 74" style="fill:#009245"/><polygon points="168.05 62 168.05 85 188.05 85 192.05 81 192.05 62 168.05 62" style="fill:#009245"/><polygon points="165.05 99 189.05 99 189.05 112 184.05 117 170.05 117 165.05 112 165.05 99" style="fill:#009245"/><polygon points="198.05 80 215.05 80 215.05 95 205.05 105 193.05 105 193.05 85 198.05 80" style="fill:#009245"/><polygon points="186.05 42 186.05 44 179.05 53 179.05 59 197.05 59 197.05 42 186.05 42" style="fill:#009245"/><polygon points="235.05 43 235.05 67 245.05 67 253.05 60 253.05 51 245.05 43 235.05 43" style="fill:#009245"/><polygon points="200.05 39 217.05 39 217.05 24 207.05 14 195.05 14 195.05 34 200.05 39" style="fill:#009245"/></g><g id="niavi"><path d="M7182,7151v18h-34v-18h34m1-1h-36v20h36v-20Z" transform="translate(-7056.95 -7136)" style="fill:blue"/><path d="M7174,7159h1v-2h1v-2h1v-2h1v2h1v2h1v2h1v2h-7Z" transform="translate(-7056.95 -7136)" style="fill:blue"/><path d="M7216,7199h1v-2h1v-2h1v-2h1v2h1v2h1v2h1v2h-7Z" transform="translate(-7056.95 -7136)" style="fill:blue"/><path d="M7279,7188h1v-2h1v-2h1v-2h1v2h1v2h1v2h1v2h-7Z" transform="translate(-7056.95 -7136)" style="fill:blue"/><path d="M7320,7231h1v-2h1v-2h1v-2h1v2h1v2h1v2h1v2h-7Z" transform="translate(-7056.95 -7136)" style="fill:blue"/><path d="M7127,7192h1v-2h1v-2h1v-2h1v2h1v2h1v2h1v2h-7Z" transform="translate(-7056.95 -7136)" style="fill:blue"/><path d="M7145,7184v19h-19v-19h19m1-1h-21v21h21v-21Z" transform="translate(-7056.95 -7136)" style="fill:blue"/><path d="M7224,7193v17h-21v-17h21m1-1h-23v19h23v-19Z" transform="translate(-7056.95 -7136)" style="fill:blue"/><path d="M7289,7177v29h-31v-29h31m1-1h-33v31h33v-31Z" transform="translate(-7056.95 -7136)" style="fill:blue"/><path d="M7140.75,7154.37l-1-.23" transform="translate(-7056.95 -7136)" style="fill:none;stroke:red;stroke-miterlimit:10"/><path d="M7137.76,7153.71c-34.27-7-29.3,17.33-27.16,24.47" transform="translate(-7056.95 -7136)" style="fill:none;stroke:red;stroke-miterlimit:10;stroke-dasharray:2.054288148880005,2.054288148880005"/><path d="M7110.91,7179.16c.2.6.33.94.33.94" transform="translate(-7056.95 -7136)" style="fill:none;stroke:red;stroke-miterlimit:10"/><path d="M7115.11,7202l-.18,1" transform="translate(-7056.95 -7136)" style="fill:none;stroke:red;stroke-miterlimit:10"/><path d="M7114.6,7205c-5.25,34.67,17.1,31.74,24,30.07" transform="translate(-7056.95 -7136)" style="fill:none;stroke:red;stroke-miterlimit:10;stroke-dasharray:2.057974338531494,2.057974338531494"/><path d="M7139.55,7234.79c.61-.17.95-.29.95-.29" transform="translate(-7056.95 -7136)" style="fill:none;stroke:red;stroke-miterlimit:10"/><polyline points="98.69 66.04 97.71 65.84 98.54 65.28" style="fill:none;stroke:red;stroke-miterlimit:10"/><line x1="100.13" y1="64.23" x2="108.84" y2="58.43" style="fill:none;stroke:red;stroke-miterlimit:10;stroke-dasharray:1.9031174182891846,1.9031174182891846"/><polyline points="109.63 57.9 110.47 57.35 110.64 58.33" style="fill:none;stroke:red;stroke-miterlimit:10"/><line x1="110.98" y1="60.25" x2="112.18" y2="66.98" style="fill:none;stroke:red;stroke-miterlimit:10;stroke-dasharray:1.951674461364746,1.951674461364746"/><polyline points="112.35 67.94 112.53 68.92 111.55 68.72" style="fill:none;stroke:red;stroke-miterlimit:10"/><line x1="109.71" y1="68.34" x2="99.61" y2="66.23" style="fill:none;stroke:red;stroke-miterlimit:10;stroke-dasharray:1.8763738870620728,1.8763738870620728"/><path d="M7235.44,7170.83l-.94-.33c-.25.22-.49.45-.73.68" transform="translate(-7056.95 -7136)" style="fill:none;stroke:red;stroke-miterlimit:10"/><path d="M7232.41,7172.63c-10.86,12.65-5.47,34.47-3.51,41" transform="translate(-7056.95 -7136)" style="fill:none;stroke:red;stroke-miterlimit:10;stroke-dasharray:1.9878536462783813,1.9878536462783813"/><path d="M7229.19,7214.55c.19.62.31.95.31.95s.36,0,1-.06" transform="translate(-7056.95 -7136)" style="fill:none;stroke:red;stroke-miterlimit:10"/><path d="M7232.5,7215.27c8.19-.8,30.37-4.3,31-18.77.72-16.6-17.32-22-27.1-25.34" transform="translate(-7056.95 -7136)" style="fill:none;stroke:red;stroke-miterlimit:10;stroke-dasharray:2.013450860977173,2.013450860977173"/><path d="M7259,7237.34l1-.14" transform="translate(-7056.95 -7136)" style="fill:none;stroke:red;stroke-miterlimit:10"/><path d="M7261.88,7236.88c29.92-5.39,33.27-28.51,33.6-35.42" transform="translate(-7056.95 -7136)" style="fill:none;stroke:red;stroke-miterlimit:10;stroke-dasharray:1.9300063848495483,1.9300063848495483"/><path d="M7295.51,7200.5c0-.65,0-1,0-1" transform="translate(-7056.95 -7136)" style="fill:none;stroke:red;stroke-miterlimit:10"/><path d="M7255.5,7152.5l1,0" transform="translate(-7056.95 -7136)" style="fill:none;stroke:red;stroke-miterlimit:10"/><path d="M7258.44,7152.64c30.66,2,36,20.75,36.87,26.91" transform="translate(-7056.95 -7136)" style="fill:none;stroke:red;stroke-miterlimit:10;stroke-dasharray:1.9443950653076172,1.9443950653076172"/><path d="M7295.43,7180.51c.07.63.07,1,.07,1" transform="translate(-7056.95 -7136)" style="fill:none;stroke:red;stroke-miterlimit:10"/><rect x="53.05" y="44" width="5" height="3" style="fill:red"/><rect x="174.05" y="33" width="5" height="3" style="fill:red"/><rect x="204.05" y="59" width="5" height="3" style="fill:red"/><rect x="196.05" y="15" width="5" height="3" style="fill:red"/><rect x="236.05" y="44" width="5" height="3" style="fill:red"/><rect x="236.05" y="62" width="5" height="3" style="fill:red"/><rect x="201.05" y="100" width="5" height="3" style="fill:red"/><rect x="262.05" y="112" width="5" height="3" style="fill:red"/><rect x="169.05" y="78" width="5" height="3" style="fill:red"/><rect x="110.05" y="69" width="5" height="3" style="fill:red"/><rect x="107.05" y="55" width="5" height="3" style="fill:red"/><rect x="94.05" y="64" width="5" height="3" style="fill:red"/><rect x="81.05" y="18" width="5" height="3" style="fill:red"/><rect x="56.05" y="64" width="5" height="3" style="fill:red"/><rect x="81.05" y="97" width="5" height="3" style="fill:red"/><rect x="261.55" y="87.5" width="11" height="11" style="fill:none;stroke:blue;stroke-miterlimit:10"/><line x1="273.05" y1="113" x2="272.05" y2="113" style="fill:none;stroke:red;stroke-miterlimit:10;stroke-width:2px"/><line x1="269.72" y1="113" x2="266.22" y2="113" style="fill:none;stroke:red;stroke-miterlimit:10;stroke-width:2px;stroke-dasharray:2.3333332538604736,2.3333332538604736"/><line x1="265.05" y1="113" x2="264.05" y2="113" style="fill:none;stroke:red;stroke-miterlimit:10;stroke-width:2px"/></g><g id="names-border"><g id="text"><text transform="translate(120.99 13.32)" style="font-size:12px;fill:blue;stroke:#fff;stroke-miterlimit:10;stroke-width:3px;font-family:AFSDot10GSQR, AFS Dot10 GSQR">カフェテリア</text><text transform="translate(193.5 31.82)" style="font-size:12px;fill:blue;stroke:#fff;stroke-miterlimit:10;stroke-width:3px;font-family:AFSDot10GSQR, AFS Dot10 GSQR">ウェポンズ</text><text transform="translate(226.48 58.82)" style="font-size:12px;fill:blue;stroke:#fff;stroke-miterlimit:10;stroke-width:3px;font-family:AFSDot10GSQR, AFS Dot10 GSQR">ナビゲーション</text><text transform="translate(156.08 76.82) scale(0.98 1)" style="font-size:12px;fill:blue;stroke:#fff;stroke-miterlimit:10;stroke-width:3px;font-family:AFSDot10GSQR, AFS Dot10 GSQR">アドミン</text><text transform="translate(200.51 94.82)" style="font-size:12px;fill:blue;stroke:#fff;stroke-miterlimit:10;stroke-width:3px;font-family:AFSDot10GSQR, AFS Dot10 GSQR">シールド</text><text transform="translate(130.96 115.96)" style="font-size:12px;fill:blue;stroke:#fff;stroke-miterlimit:10;stroke-width:3px;font-family:AFSDot10GSQR, AFS Dot10 GSQR">コミュニケーション</text><text transform="translate(104.5 100.82)" style="font-size:12px;fill:blue;stroke:#fff;stroke-miterlimit:10;stroke-width:3px;font-family:AFSDot10GSQR, AFS Dot10 GSQR">ストレージ</text><text transform="translate(66.48 84.82)" style="font-size:12px;fill:blue;stroke:#fff;stroke-miterlimit:10;stroke-width:3px;font-family:AFSDot10GSQR, AFS Dot10 GSQR">エレクトリカル</text><text transform="translate(92.55 43.82)" style="font-size:12px;fill:blue;stroke:#fff;stroke-miterlimit:10;stroke-width:3px;font-family:AFSDot10GSQR, AFS Dot10 GSQR">メドベイ</text><text transform="translate(66.49 61.82)" style="font-size:12px;fill:blue;stroke:#fff;stroke-miterlimit:10;stroke-width:3px;font-family:AFSDot10GSQR, AFS Dot10 GSQR">セキュリティ</text><text transform="translate(1.5 62.82)" style="font-size:12px;fill:blue;stroke:#fff;stroke-miterlimit:10;stroke-width:3px;font-family:AFSDot10GSQR, AFS Dot10 GSQR">リアクター</text><text transform="translate(33.51 33.82)" style="font-size:12px;fill:blue;stroke:#fff;stroke-miterlimit:10;stroke-width:3px;font-family:AFSDot10GSQR, AFS Dot10 GSQR">アッパー</text><text transform="translate(44.02 99.96)" style="font-size:12px;fill:blue;stroke:#fff;stroke-miterlimit:10;stroke-width:3px;font-family:AFSDot10GSQR, AFS Dot10 GSQR">ロワー</text><text transform="translate(150.11 53.82) scale(0.98 1)" style="font-size:12px;fill:blue;stroke:#fff;stroke-miterlimit:10;stroke-width:3px;font-family:AFSDot10GSQR, AFS Dot10 GSQR">オーツー</text><text transform="translate(275.49 98.03)" style="font-size:12px;stroke:#fff;stroke-miterlimit:10;stroke-width:3px;font-family:AFSDot10GSQR, AFS Dot10 GSQR">カメラ</text><text transform="translate(275.51 116.03)" style="font-size:12px;stroke:#fff;stroke-miterlimit:10;stroke-width:3px;font-family:AFSDot10GSQR, AFS Dot10 GSQR">ベント</text></g><g id="outline"><path d="M7187.52,7148.57h-1.2v-6h-3.59v3.59h-1.2v-3.59h-2.39v-1.19h2.39V7139h1.2v2.39h4.79Zm-8.38,0h1.2v1.18h-1.2Zm1.2-2.39h1.19v2.39h-1.19Zm6,3.57h-3.59v-1.18h3.59Z" transform="translate(-7056.95 -7136)" style="fill:blue;stroke:#fff;stroke-miterlimit:10;stroke-width:3px"/><path d="M7199.54,7143.78h-1.2v-2.38h-7.18v-1.2h8.38Zm-4.79,6h-2.39v-1.18h2.39Zm0-2.38h1.2v1.2h-1.2Zm1.2-1.19h1.19v1.19H7196Zm1.19-2.4h1.2v2.4h-1.2Z" transform="translate(-7056.95 -7136)" style="fill:blue;stroke:#fff;stroke-miterlimit:10;stroke-width:3px"/><path d="M7210.36,7143.78H7208v3.59h3.59v1.2h-8.38v-1.2h3.59v-3.59h-2.39v-1.19h6Z" transform="translate(-7056.95 -7136)" style="fill:blue;stroke:#fff;stroke-miterlimit:10;stroke-width:3px"/><path d="M7224.78,7143.78h-3.6v3.59H7220v-3.59h-4.79v-1.19h9.58Zm-1.2-2.38h-7.18v-1.2h7.18Zm-6,7.17h1.2v1.18h-1.2Zm1.2-1.2h1.2v1.2h-1.2Z" transform="translate(-7056.95 -7136)" style="fill:blue;stroke:#fff;stroke-miterlimit:10;stroke-width:3px"/><path d="M7228.42,7140.2h1.19v6h-1.19Zm2.39,8.37h2.39v1.18h-2.39Zm2.39-1.2h1.2v1.2h-1.2Zm1.2-8.36h1.2v8.36h-1.2Z" transform="translate(-7056.95 -7136)" style="fill:blue;stroke:#fff;stroke-miterlimit:10;stroke-width:3px"/><path d="M7247.62,7142.59h-1.2v-1.19h-7.18v-1.2h8.38Zm-7.19,6h1.2v1.18h-1.2Zm1.2-1.2h1.2v1.2h-1.2Zm1.2-4.78h1.2v1.19h1.19v1.2H7244v2.39h-1.2Zm2.39,0h1.2v1.19h-1.2Z" transform="translate(-7056.95 -7136)" style="fill:blue;stroke:#fff;stroke-miterlimit:10;stroke-width:3px"/><path d="M7260,7164.68h-1.2v-4.78h-6v3.58h-1.2v-4.78h3.59v-1.19h1.2v1.19H7260Zm-3.59,3.57H7254v-1.18h2.4Zm0-2.38h1.2v1.2h-1.2Zm1.2-1.19h1.19v1.19h-1.19Z" transform="translate(-7056.95 -7136)" style="fill:blue;stroke:#fff;stroke-miterlimit:10;stroke-width:3px"/><path d="M7270.85,7162.28h-2.39v3.59h3.59v1.2h-8.38v-1.2h3.59v-3.59h-2.39v-1.19h6Z" transform="translate(-7056.95 -7136)" style="fill:blue;stroke:#fff;stroke-miterlimit:10;stroke-width:3px"/><path d="M7281.67,7157.51h3.6v3.58h-6v7.16h-1.2v-7.16h-3.59v-1.19h3.59v-2.39h1.2v2.39h2.39Zm-7.18,7.17h1.2v2.39h-1.2Zm1.2-2.4h1.2v2.4h-1.2Zm6,2.4h-1.19v-2.4h1.19v2.4h1.2v2.39h-1.2Zm2.4-6h-1.2v1.2h1.2Z" transform="translate(-7056.95 -7136)" style="fill:blue;stroke:#fff;stroke-miterlimit:10;stroke-width:3px"/><path d="M7290.1,7159.9h-2.39v-1.2h2.39v1.2h1.2v1.19h-1.2Zm-1.19,7.17h2.39v1.18h-2.39Zm4.78,0h-2.39v-1.2h2.39Zm0-2.39h1.2v1.19h-1.2Zm1.2-2.4h1.2v2.4h-1.2Zm1.2-2.38h1.2v2.38h-1.2Z" transform="translate(-7056.95 -7136)" style="fill:blue;stroke:#fff;stroke-miterlimit:10;stroke-width:3px"/><path d="M7298.53,7167.07h2.39v1.18h-2.39Zm7.18-3.59h-1.19v-2.39h-4.79v-1.19h6Zm-4.79,2.39h1.2v1.2h-1.2Zm1.2-1.19h1.2v1.19h-1.2Zm4.79,2.39h-1.2v-1.2h-1.19v-1.19h-1.2v-1.2h1.2v1.2h1.19v1.19h1.2v1.2h1.2v1.18h-1.2Zm-1.2-9.56h1.2v2.39h-1.2Zm2.4,0h1.2v2.39h-1.2Z" transform="translate(-7056.95 -7136)" style="fill:blue;stroke:#fff;stroke-miterlimit:10;stroke-width:3px"/><path d="M7294.21,7188.09h-3.59v4.79h-1.2v-4.79h-4.79v-1.19h4.79v-2.39h1.2v2.39h3.59Zm-7.19,6h1.2v1.18H7287Zm1.2-1.19h1.2v1.19h-1.2Z" transform="translate(-7056.95 -7136)" style="fill:blue;stroke:#fff;stroke-miterlimit:10;stroke-width:3px"/><path d="M7301.44,7189.28h-3.59v4.79h6v1.18h-6v-1.18h-1.2v-9.56h1.2v3.58h3.59Zm0-2.38h1.19v-2.39h1.2v3.58h-2.39Zm3.59-2.39h1.2v2.39H7305Z" transform="translate(-7056.95 -7136)" style="fill:blue;stroke:#fff;stroke-miterlimit:10;stroke-width:3px"/><path d="M7307.47,7189.28h1.2v1.21h-1.2Zm1.2-1.19h1.2v1.19h-1.2Zm6-3.58h1.2v2.39h1.2v1.19h-2.4v3.59h-1.19v-3.59h-3.59v-3.58h1.19v2.39h3.59Zm-4.78,9.56h1.19v1.18h-1.19Zm1.19-1.19h1.2v1.19h-1.2Zm1.2-1.2h1.2v1.2h-1.2Zm4.79-7.17h1.2v2.39h-1.2Z" transform="translate(-7056.95 -7136)" style="fill:blue;stroke:#fff;stroke-miterlimit:10;stroke-width:3px"/><path d="M7329.07,7190.49h-8.38v-1.21h8.38Z" transform="translate(-7056.95 -7136)" style="fill:blue;stroke:#fff;stroke-miterlimit:10;stroke-width:3px"/><path d="M7333.9,7189.28h-1.19v-1.19h1.19v1.19h1.2v1.21h-1.2Zm1.2-2.38h-1.2v-1.2h1.2v1.2h1.2v1.19h-1.2Zm-1.2,7.17h2.4v1.18h-2.4Zm2.4-1.19h2.39v1.19h-2.39Zm2.39-1.2h1.2v1.2h-1.2Zm1.2-1.19h1.2v1.19h-1.2Zm1.2-2.4h1.2v2.4h-1.2Z" transform="translate(-7056.95 -7136)" style="fill:blue;stroke:#fff;stroke-miterlimit:10;stroke-width:3px"/><path d="M7351.91,7195.25h-6v-1.18h4.79v-2.39h-4.79v-1.19h4.79v-1.21h-4.79v-1.19h6Z" transform="translate(-7056.95 -7136)" style="fill:blue;stroke:#fff;stroke-miterlimit:10;stroke-width:3px"/><path d="M7359.14,7186.9h-2.39v-1.2h2.39v1.2h1.2v1.19h-1.2Zm-1.2,7.17h2.4v1.18h-2.4Zm4.79,0h-2.39v-1.19h2.39Zm0-2.39h1.2v1.2h-1.2Zm1.2-2.4h1.2v2.4h-1.2Zm1.2-2.38h1.19v2.38h-1.19Z" transform="translate(-7056.95 -7136)" style="fill:blue;stroke:#fff;stroke-miterlimit:10;stroke-width:3px"/><path d="M7222.38,7206.09h-1.17v-1.19h-7v-1.2h8.18Zm-7,6h1.17v1.18h-1.17Zm1.17-1.19h1.17v1.19h-1.17Zm1.17-4.79h1.17v1.19H7220v1.2h-1.16v2.4h-1.17Zm2.33,0h1.17v1.19H7220Z" transform="translate(-7056.95 -7136)" style="fill:blue;stroke:#fff;stroke-miterlimit:10;stroke-width:3px"/><path d="M7232.94,7208.48h-2.34v-1.2h-2.33v6h-1.17v-10.74h1.17v3.58h2.33v1.19h2.34Zm-2.34-6h1.17v2.39h-1.17Zm2.34,0h1.17v2.39h-1.17Z" transform="translate(-7056.95 -7136)" style="fill:blue;stroke:#fff;stroke-miterlimit:10;stroke-width:3px"/><path d="M7242.33,7203.7h2.34v1.2h-2.34v-1.2h-3.5v-1.19h3.5Zm0,3.58h2.34v1.2h-2.34v-1.2h-3.5v-1.19h3.5Zm1.17,4.79h2.33v1.18h-2.33v-1.18h-4.67v-1.19h4.67Z" transform="translate(-7056.95 -7136)" style="fill:blue;stroke:#fff;stroke-miterlimit:10;stroke-width:3px"/><path d="M7251.72,7204.9h-2.34v-1.2h2.34v1.2h1.17v1.19h-1.17Zm-1.17,7.17h2.34v1.18h-2.34Zm4.68,0h-2.34v-1.19h2.34Zm0-2.39h1.16v1.2h-1.16Zm1.16-2.4h1.17v2.4h-1.17Zm1.17-2.38h1.17v2.38h-1.17Z" transform="translate(-7056.95 -7136)" style="fill:blue;stroke:#fff;stroke-miterlimit:10;stroke-width:3px"/><path d="M7259.86,7225.28h-1.2v-1.19h1.2v1.19h1.19v1.21h-1.19Zm1.19-2.38h-1.19v-1.2h1.19v1.2h1.2v1.19h-1.2Zm-1.19,7.17h2.39v1.18h-2.39Zm2.39-1.19h2.39v1.19h-2.39Zm2.39-1.2h1.2v1.2h-1.2Zm1.2-1.19h1.2v1.19h-1.2Zm1.2-2.4h1.2v2.4H7267Z" transform="translate(-7056.95 -7136)" style="fill:blue;stroke:#fff;stroke-miterlimit:10;stroke-width:3px"/><path d="M7279.06,7226.49h-8.38v-1.21h8.38Z" transform="translate(-7056.95 -7136)" style="fill:blue;stroke:#fff;stroke-miterlimit:10;stroke-width:3px"/><path d="M7282.7,7230.07h1.19v1.18h-1.19Zm1.19-8.37h1.2v8.37h-1.2Zm3.6-1.19h1.19v8.37h1.2v1.19h-1.2v1.18h-1.19Zm2.39,7.17h1.2v1.2h-1.2Zm1.2-2.4h1.2v2.4h-1.2Z" transform="translate(-7056.95 -7136)" style="fill:blue;stroke:#fff;stroke-miterlimit:10;stroke-width:3px"/><path d="M7301.9,7226.49h-2.39v-1.21h-2.4v6h-1.2v-10.74h1.2v3.58h2.4v1.19h2.39Zm-2.39-6h1.19v2.39h-1.19Zm2.39,0h1.2v2.39h-1.2Z" transform="translate(-7056.95 -7136)" style="fill:blue;stroke:#fff;stroke-miterlimit:10;stroke-width:3px"/><path d="M7197.49,7251.21h-8.38V7250h7.18v-4.78h-7.18V7244h8.38Z" transform="translate(-7056.95 -7136)" style="fill:blue;stroke:#fff;stroke-miterlimit:10;stroke-width:3px"/><path d="M7205.92,7242.84h2.39v1.2h-2.39v-1.2h-3.6v-1.19h3.6Zm0,3.58h2.39v1.2h-2.39v-1.2h-3.6v-1.19h3.6Zm1.19,4.79h2.4v1.18h-2.4v-1.18h-4.79V7250h4.79Z" transform="translate(-7056.95 -7136)" style="fill:blue;stroke:#fff;stroke-miterlimit:10;stroke-width:3px"/><path d="M7219.13,7250h2.4v1.2h-8.38V7250h4.79v-3.59h-3.6v-1.19h4.79Z" transform="translate(-7056.95 -7136)" style="fill:blue;stroke:#fff;stroke-miterlimit:10;stroke-width:3px"/><path d="M7234.74,7251.21h-9.57V7250h9.57Zm-1.19-7.17h-7.19v-1.2h7.19Z" transform="translate(-7056.95 -7136)" style="fill:blue;stroke:#fff;stroke-miterlimit:10;stroke-width:3px"/><path d="M7237.19,7246.42h1.19v1.2h-1.19Zm1.19-1.19h1.2v1.19h-1.2Zm8.38,0h-2.39v3.59h-1.2v-3.59h-3.59v-3.58h1.2V7244h6Zm-7.18,6h1.2v1.18h-1.2Zm1.2-1.2H7242v1.2h-1.19Zm1.19-1.19h1.2V7250H7242Z" transform="translate(-7056.95 -7136)" style="fill:blue;stroke:#fff;stroke-miterlimit:10;stroke-width:3px"/><path d="M7257.59,7247.62h-8.38v-1.2h8.38Z" transform="translate(-7056.95 -7136)" style="fill:blue;stroke:#fff;stroke-miterlimit:10;stroke-width:3px"/><path d="M7262.42,7246.42h-1.2v-1.19h1.2v1.19h1.2v1.2h-1.2Zm1.2-2.38h-1.2v-1.2h1.2v1.2h1.2v1.19h-1.2Zm-1.2,7.17h2.4v1.18h-2.4Zm2.4-1.2h2.39v1.2h-2.39Zm2.39-1.19h1.2V7250h-1.2Zm1.2-1.2h1.2v1.2h-1.2Zm1.2-2.39h1.19v2.39h-1.19Z" transform="translate(-7056.95 -7136)" style="fill:blue;stroke:#fff;stroke-miterlimit:10;stroke-width:3px"/><path d="M7280.43,7252.39h-6v-1.18h4.79v-2.39h-4.79v-1.2h4.79v-1.2h-4.79v-1.19h6Z" transform="translate(-7056.95 -7136)" style="fill:blue;stroke:#fff;stroke-miterlimit:10;stroke-width:3px"/><path d="M7287.66,7244h-2.4v-1.2h2.4v1.2h1.2v1.19h-1.2Zm-1.2,7.17h2.4v1.18h-2.4Zm4.79,0h-2.39V7250h2.39Zm0-2.39h1.2V7250h-1.2Zm1.2-2.4h1.19v2.4h-1.19Zm1.19-2.38h1.2v2.38h-1.2Z" transform="translate(-7056.95 -7136)" style="fill:blue;stroke:#fff;stroke-miterlimit:10;stroke-width:3px"/><path d="M7165,7237.26h-2.39v-1.19H7165Zm4.79-8.36h-6v-1.19H7171v2.39h-1.2Zm-4.79,6h1.2v1.19H7165Zm1.2-1.2h1.2v1.2h-1.2Zm4.79,2.39h-1.2v-1.19h-1.2v-1.2h-1.19v-1.19h1.19v1.19h1.2v1.2h1.2v1.19h1.2v1.19H7171Zm-2.4-6h1.2v2.39h-1.2Z" transform="translate(-7056.95 -7136)" style="fill:blue;stroke:#fff;stroke-miterlimit:10;stroke-width:3px"/><path d="M7183.05,7232.49h-2.4v-1.21h-2.39v6h-1.2v-10.75h1.2v3.59h2.39v1.18h2.4Z" transform="translate(-7056.95 -7136)" style="fill:blue;stroke:#fff;stroke-miterlimit:10;stroke-width:3px"/><path d="M7189.08,7226.51h1.2v9.56h1.2v1.19h-2.4Zm2.4,8.37h2.39v1.19h-2.39Zm2.39-1.2h1.2v1.2h-1.2Zm1.2-1.19h1.2v1.19h-1.2Z" transform="translate(-7056.95 -7136)" style="fill:blue;stroke:#fff;stroke-miterlimit:10;stroke-width:3px"/><path d="M7207.09,7232.49h-8.38v-1.21h8.38Z" transform="translate(-7056.95 -7136)" style="fill:blue;stroke:#fff;stroke-miterlimit:10;stroke-width:3px"/><path d="M7211.92,7231.28h-1.19v-1.18h1.19v1.18h1.2v1.21h-1.2Zm1.2-2.38h-1.2v-1.19h1.2v1.19h1.2v1.2h-1.2Zm1.2,8.36h-2.4v-1.19h2.4Zm0-2.38h2.39v1.19h-2.39Zm2.39-8.37h1.2v2.39h-1.2Zm0,7.17h1.2v1.2h-1.2Zm1.2-1.19h1.2v1.19h-1.2Zm1.2-6h1.2v2.39h-1.2Zm0,4.77h1.2v1.21h-1.2Z" transform="translate(-7056.95 -7136)" style="fill:blue;stroke:#fff;stroke-miterlimit:10;stroke-width:3px"/><path d="M7133,7212.9h-3.59v6h4.79v1.19h-9.58v-1.19h3.59v-6h-2.4v-1.19H7133Z" transform="translate(-7056.95 -7136)" style="fill:blue;stroke:#fff;stroke-miterlimit:10;stroke-width:3px"/><path d="M7139,7210.51h1.2v9.56h1.2v1.19H7139Zm2.4,8.37h2.39v1.19h-2.39Zm2.39-1.2h1.2v1.2h-1.2Zm1.2-1.19h1.2v1.19H7145Z" transform="translate(-7056.95 -7136)" style="fill:blue;stroke:#fff;stroke-miterlimit:10;stroke-width:3px"/><path d="M7148.67,7215.28h1.19v1.21h-1.19Zm1.19-1.18h1.2v1.18h-1.2Zm0,6h2.4v1.19h-2.4Zm7.19-4.79h-1.2v-2.38h-3.59v1.2h-1.2v-3.59h1.2v1.2h4.79Zm-4.79,3.6h1.2v1.19h-1.2Zm1.2-1.2h1.19v1.2h-1.19Zm1.19-2.4h1.2v2.4h-1.2Z" transform="translate(-7056.95 -7136)" style="fill:blue;stroke:#fff;stroke-miterlimit:10;stroke-width:3px"/><path d="M7169.07,7216.49h-2.4v-1.21h-2.39v6h-1.2v-10.75h1.2v3.59h2.39v1.18h2.4Z" transform="translate(-7056.95 -7136)" style="fill:blue;stroke:#fff;stroke-miterlimit:10;stroke-width:3px"/><path d="M7173.9,7211.71h1.2v6h-1.2Zm2.4,8.36h2.39v1.19h-2.39Zm2.39-1.19h1.2v1.19h-1.2Zm1.2-8.37h1.2v8.37h-1.2Z" transform="translate(-7056.95 -7136)" style="fill:blue;stroke:#fff;stroke-miterlimit:10;stroke-width:3px"/><path d="M7193.11,7220.07h-1.2v-6h-3.59v3.58h-1.2v-3.58h-2.39v-1.2h2.39v-2.39h1.2v2.39h4.79Zm-8.38,0h1.19v1.19h-1.19Zm1.19-2.39h1.2v2.39h-1.2Zm6,3.58h-3.59v-1.19h3.59Z" transform="translate(-7056.95 -7136)" style="fill:blue;stroke:#fff;stroke-miterlimit:10;stroke-width:3px"/><path d="M7196.75,7220.07h1.19v1.19h-1.19Zm1.19-8.36h1.2v8.36h-1.2Zm3.6-1.2h1.19v8.37h1.2v1.19h-1.2v1.19h-1.19Zm2.39,7.17h1.2v1.2h-1.2Zm1.2-2.4h1.2v2.4h-1.2Z" transform="translate(-7056.95 -7136)" style="fill:blue;stroke:#fff;stroke-miterlimit:10;stroke-width:3px"/><path d="M7153.09,7180.25h-2.39v-1.18h2.39Zm4.78-2.37h-1.2v-1.2h-1.19v-1.19h-1.2v-1.21h-1.19v-1.19h1.19v1.19h1.2v1.21h1.19v1.19h1.2v1.2h1.19v1.19h-1.19Zm-4.78,0h1.19v1.19h-1.19Zm1.19-1.2h1.2v1.2h-1.2Zm2.39-3.59h1.2v2.4h-1.2Zm1.2-3.58h1.19v3.58h-1.19Z" transform="translate(-7056.95 -7136)" style="fill:blue;stroke:#fff;stroke-miterlimit:10;stroke-width:3px"/><path d="M7169.87,7175.49h-2.39v-1.21h-2.39v6h-1.2v-10.74h1.2v3.58h2.39v1.19h2.39Zm-2.39-6h1.19v2.39h-1.19Zm2.39,0h1.19v2.39h-1.19Z" transform="translate(-7056.95 -7136)" style="fill:blue;stroke:#fff;stroke-miterlimit:10;stroke-width:3px"/><path d="M7174.7,7175.49h1.19v1.19h-1.19Zm1.19-2.4h1.2v2.4h-1.2Zm7.17,4.79h-1.19v-1.2h-1.2v-1.19h-1.19v-1.21h-1.2v-1.19h-1.19v-1.19h1.19v1.19h1.2v1.19h1.19v1.21h1.2v1.19h1.19v1.2h1.2v1.19h-1.2Zm-2.39-7.18h1.2v2.39h-1.2Zm2.39,0h1.2v2.39h-1.2Z" transform="translate(-7056.95 -7136)" style="fill:blue;stroke:#fff;stroke-miterlimit:10;stroke-width:3px"/><path d="M7186.7,7175.49h2.39v1.19h-2.39Zm2.39-1.21h1.19v1.21h-1.19Zm2.39,0h-1.2v-1.19h1.2v-1.19h1.19v8.35h-1.19Zm1.19-3.58h1.2v1.2h-1.2Zm1.2-1.19h1.19v1.19h-1.19Z" transform="translate(-7056.95 -7136)" style="fill:blue;stroke:#fff;stroke-miterlimit:10;stroke-width:3px"/><path d="M7128.23,7197.07H7127v-4.79h-2.39v-1.19H7127v-3.58h1.2v3.58h1.2v1.19h-1.2v4.79h6v1.18h-6Zm6-4.79H7133v-1.19h-3.59v-1.19h4.79Zm-3.6,1.21h1.2v1.19h-1.2Zm1.2-1.21h1.2v1.21h-1.2Z" transform="translate(-7056.95 -7136)" style="fill:blue;stroke:#fff;stroke-miterlimit:10;stroke-width:3px"/><path d="M7145,7191.09h-3.59v2.4H7145v1.19h-2.4v3.57h-1.19v-3.57h-4.79v-1.19h3.59v-2.4h-3.59v-1.19h3.59v-2.39h1.2v2.39H7145Z" transform="translate(-7056.95 -7136)" style="fill:blue;stroke:#fff;stroke-miterlimit:10;stroke-width:3px"/><path d="M7154.66,7195.88h2.4v1.19h-8.38v-1.19h4.79v-3.6h-3.6v-1.19h4.79Z" transform="translate(-7056.95 -7136)" style="fill:blue;stroke:#fff;stroke-miterlimit:10;stroke-width:3px"/><path d="M7161.89,7188.7h1.2v6h-1.2Zm2.4,8.37h2.39v1.18h-2.39Zm2.39-1.19h1.2v1.19h-1.2Zm1.2-8.37h1.2v8.37h-1.2Z" transform="translate(-7056.95 -7136)" style="fill:blue;stroke:#fff;stroke-miterlimit:10;stroke-width:3px"/><path d="M7182.3,7192.28h-3.6v3.6h-1.19v-3.6h-4.79v-1.19h9.58Zm-1.2-2.38h-7.19v-1.2h7.19Zm-6,7.17h1.2v1.18h-1.2Zm1.2-1.19h1.2v1.19h-1.2Z" transform="translate(-7056.95 -7136)" style="fill:blue;stroke:#fff;stroke-miterlimit:10;stroke-width:3px"/><path d="M7188.33,7194.68h-2.4v-1.19h2.4Zm2.39,3.57h-1.19v-4.76h-1.2v-1.21h2.39Zm0-7.16h1.2v1.19h-1.2Zm1.2-1.19h1.2v1.19h-1.2Z" transform="translate(-7056.95 -7136)" style="fill:blue;stroke:#fff;stroke-miterlimit:10;stroke-width:3px"/><path d="M7060.84,7189.7h1.2v6h-1.2Zm2.4,8.37h2.39v1.18h-2.39Zm2.39-1.19h1.2v1.19h-1.2Zm1.2-8.37h1.2v8.37h-1.2Z" transform="translate(-7056.95 -7136)" style="fill:blue;stroke:#fff;stroke-miterlimit:10;stroke-width:3px"/><path d="M7080.05,7192.09h-1.2v-1.19h-7.18v-1.2h8.38Zm-7.19,6h1.2v1.18h-1.2Zm1.2-1.19h1.2v1.19h-1.2Zm1.2-4.79h1.2v1.19h1.19v1.2h-1.19v2.4h-1.2Zm2.39,0h1.2v1.19h-1.2Z" transform="translate(-7056.95 -7136)" style="fill:blue;stroke:#fff;stroke-miterlimit:10;stroke-width:3px"/><path d="M7083.69,7193.28h1.19v1.2h-1.19Zm1.19-1.19h1.2v1.19h-1.2Zm0,6h2.4v1.18h-2.4Zm7.19-4.79h-1.2v-2.38h-3.59v1.19h-1.2v-3.58h1.2v1.19h4.79Zm-4.79,3.6h1.2v1.19h-1.2Zm1.2-1.2h1.19v1.2h-1.19Zm1.19-2.4h1.2v2.4h-1.2Z" transform="translate(-7056.95 -7136)" style="fill:blue;stroke:#fff;stroke-miterlimit:10;stroke-width:3px"/><path d="M7095.71,7193.28h1.19v1.2h-1.19Zm4.79,1.2h1.19v-1.2h1.2v2.4h-1.2v1.2h-1.19v-2.4h-2.4v-1.2h-1.2v-1.19h1.2v1.19h2.4Zm-3.6,3.59h2.4v1.18h-2.4Zm7.19-4.79h-1.2v-2.38h-3.59v1.19h-1.2v-3.58h1.2v1.19h4.79Zm-4.79,3.6h1.2v1.19h-1.2Z" transform="translate(-7056.95 -7136)" style="fill:blue;stroke:#fff;stroke-miterlimit:10;stroke-width:3px"/><path d="M7116.11,7194.48h-8.38v-1.2h8.38Z" transform="translate(-7056.95 -7136)" style="fill:blue;stroke:#fff;stroke-miterlimit:10;stroke-width:3px"/><path d="M7100,7163.09h-1.2v-1.19h-7.18v-1.2H7100Zm-7.19,6h1.2v1.18h-1.2Zm1.2-1.2h1.2v1.2h-1.2Zm1.2-4.78h1.2v1.19h1.19v1.2h-1.19v2.39h-1.2Zm2.39,0h1.2v1.19h-1.2Z" transform="translate(-7056.95 -7136)" style="fill:blue;stroke:#fff;stroke-miterlimit:10;stroke-width:3px"/><path d="M7104.87,7163.09h1.2v2.39h-1.2Zm3.6,7.16h-2.4v-1.18h2.4Zm-1.2-7.16h1.2v2.39h-1.2Zm1.2,4.78h1.19v1.2h-1.19Zm1.19-1.19h1.2v1.19h-1.2Zm1.2-3.59h1.2v3.59h-1.2Z" transform="translate(-7056.95 -7136)" style="fill:blue;stroke:#fff;stroke-miterlimit:10;stroke-width:3px"/><path d="M7114.5,7167.87h1.2v1.2h-1.2Zm1.2-2.39h1.19v2.39h-1.19Zm1.19-3.58h1.2v3.58h-1.2Zm6,3.58h-1.2v-2.39h-1.19v-1.19h1.19v-2.39h3.6v3.58h-2.4v2.39h1.2v3.59h-1.2Zm1.2-4.78h-1.2v1.2h1.2Z" transform="translate(-7056.95 -7136)" style="fill:blue;stroke:#fff;stroke-miterlimit:10;stroke-width:3px"/><path d="M7136.1,7165.48h-8.38v-1.2h8.38Z" transform="translate(-7056.95 -7136)" style="fill:blue;stroke:#fff;stroke-miterlimit:10;stroke-width:3px"/><path d="M7110.55,7235.21h-8.38v-8.37h8.38Zm-1.2-7.17h-6v6h6Z" transform="translate(-7056.95 -7136)" style="fill:blue;stroke:#fff;stroke-miterlimit:10;stroke-width:3px"/><path d="M7122.57,7232.82h-1.2V7228h-6v3.58h-1.2v-4.78h8.38Zm-3.59,3.57h-2.4v-1.18h2.4Zm0-2.38h1.19v1.2H7119Zm1.19-1.19h1.2V7234h-1.2Z" transform="translate(-7056.95 -7136)" style="fill:blue;stroke:#fff;stroke-miterlimit:10;stroke-width:3px"/><path d="M7134.59,7231.62h-8.38v-1.2h8.38Z" transform="translate(-7056.95 -7136)" style="fill:blue;stroke:#fff;stroke-miterlimit:10;stroke-width:3px"/><path d="M7217.57,7183.09h-2.34v7.16h-3.5v-1.18h2.33v-4.79h-1.16v-1.19h-4.67v-1.19h5.83v-2.39h1.17v2.39h2.34Zm-7,4.78h-2.33v-1.19h2.33Zm0-2.39h1.17v1.2h-1.17Zm1.17-1.2h1.17v1.2h-1.17Z" transform="translate(-7056.95 -7136)" style="fill:blue;stroke:#fff;stroke-miterlimit:10;stroke-width:3px"/><path d="M7228.12,7185.48H7220v-1.2h8.17Z" transform="translate(-7056.95 -7136)" style="fill:blue;stroke:#fff;stroke-miterlimit:10;stroke-width:3px"/><path d="M7232.83,7183.09h-1.16v-1.19h1.16v1.19H7234v2.39h-1.17Zm2.34-1.19H7234v-1.2h1.17v1.2h1.17v2.38h-1.17Zm-1.17,7.17h2.34v1.18H7234Zm2.34-1.2h1.16v1.2h-1.16Zm1.16-1.19h1.17v1.19h-1.17Zm1.17-2.4h1.17v2.4h-1.17Zm1.17-3.58H7241v3.58h-1.17Z" transform="translate(-7056.95 -7136)" style="fill:blue;stroke:#fff;stroke-miterlimit:10;stroke-width:3px"/><path d="M7251.56,7185.48h-8.17v-1.2h8.17Z" transform="translate(-7056.95 -7136)" style="fill:blue;stroke:#fff;stroke-miterlimit:10;stroke-width:3px"/><path d="M7342,7233.28h-1.19v-6h-3.6v3.59H7336v-3.59h-2.4v-1.19h2.4v-2.39h1.19v2.39H7342Zm-8.38,0h1.2v1.18h-1.2Zm1.2-2.39h1.2v2.39h-1.2Zm6,3.57h-3.6v-1.18h3.6Z" transform="translate(-7056.95 -7136)" style="stroke:#fff;stroke-miterlimit:10;stroke-width:3px"/><path d="M7348.05,7234.46h-2.4v-1.18h2.4Zm4.78-2.37h-1.19v-1.2h-1.2v-1.19h-1.2v-1.21h-1.19v-1.19h1.19v1.19h1.2v1.21h1.2v1.19h1.19v1.2h1.2v1.19h-1.2Zm-4.78,0h1.19v1.19h-1.19Zm1.19-1.2h1.2v1.2h-1.2Zm2.4-3.59h1.19v2.4h-1.19Zm1.19-3.58h1.2v3.58h-1.2Z" transform="translate(-7056.95 -7136)" style="stroke:#fff;stroke-miterlimit:10;stroke-width:3px"/><path d="M7366.05,7230.89h-1.2v-2.4h-7.18v-1.19h8.38Zm-7.18-7.17h6v1.19h-6Zm1.2,9.56h2.39v1.18h-2.39Zm2.39-1.19h1.2v1.19h-1.2Zm1.2-1.2h1.19v1.2h-1.19Z" transform="translate(-7056.95 -7136)" style="stroke:#fff;stroke-miterlimit:10;stroke-width:3px"/><path d="M7333.66,7247.7h1.19v1.19h-1.19Zm1.19-2.39h1.2v2.39h-1.2Zm7.19,4.78h-1.2v-1.2h-1.2v-1.19h-1.19v-1.21h-1.2v-1.18h-1.2v-1.2h1.2v1.2h1.2v1.18h1.19v1.21h1.2v1.19h1.2v1.2h1.2v1.19H7342Zm-2.4-7.17h1.2v2.39h-1.2Zm2.4,0h1.2v2.39H7342Z" transform="translate(-7056.95 -7136)" style="stroke:#fff;stroke-miterlimit:10;stroke-width:3px"/><path d="M7348.07,7244.11h-2.39v-1.19h2.39v1.19h1.2v1.2h-1.2Zm-1.2,7.17h2.4v1.19h-2.4Zm4.79,0h-2.39v-1.19h2.39Zm0-2.39h1.2v1.2h-1.2Zm1.2-2.4h1.2v2.4h-1.2Zm1.2-2.38h1.19v2.38h-1.19Z" transform="translate(-7056.95 -7136)" style="stroke:#fff;stroke-miterlimit:10;stroke-width:3px"/><path d="M7366.08,7247.7h-2.4v-1.21h-2.39v6h-1.2v-10.75h1.2v3.59h2.39v1.18h2.4Z" transform="translate(-7056.95 -7136)" style="stroke:#fff;stroke-miterlimit:10;stroke-width:3px"/></g></g><g id="names"><g id="text-2" data-name="text"><text transform="translate(120.99 13.32)" style="font-size:12px;fill:#009245;font-family:AFSDot10GSQR, AFS Dot10 GSQR">カフェテリア</text><text transform="translate(193.5 31.82)" style="font-size:12px;fill:#009245;font-family:AFSDot10GSQR, AFS Dot10 GSQR">ウェポンズ</text><text transform="translate(226.48 58.82)" style="font-size:12px;fill:#009245;font-family:AFSDot10GSQR, AFS Dot10 GSQR">ナビゲーション</text><text transform="translate(156.08 76.82) scale(0.98 1)" style="font-size:12px;fill:#009245;font-family:AFSDot10GSQR, AFS Dot10 GSQR">アドミン</text><text transform="translate(200.51 94.82)" style="font-size:12px;fill:#009245;font-family:AFSDot10GSQR, AFS Dot10 GSQR">シールド</text><text transform="translate(130.96 115.96)" style="font-size:12px;fill:#009245;font-family:AFSDot10GSQR, AFS Dot10 GSQR">コミュニケーション</text><text transform="translate(104.5 100.82)" style="font-size:12px;fill:#009245;font-family:AFSDot10GSQR, AFS Dot10 GSQR">ストレージ</text><text transform="translate(66.48 84.82)" style="font-size:12px;fill:#009245;font-family:AFSDot10GSQR, AFS Dot10 GSQR">エレクトリカル</text><text transform="translate(92.55 43.82)" style="font-size:12px;fill:#009245;font-family:AFSDot10GSQR, AFS Dot10 GSQR">メドベイ</text><text transform="translate(66.49 61.82)" style="font-size:12px;fill:#009245;font-family:AFSDot10GSQR, AFS Dot10 GSQR">セキュリティ</text><text transform="translate(1.5 62.82)" style="font-size:12px;fill:#009245;font-family:AFSDot10GSQR, AFS Dot10 GSQR">リアクター</text><text transform="translate(33.51 33.82)" style="font-size:12px;fill:#009245;font-family:AFSDot10GSQR, AFS Dot10 GSQR">アッパー</text><text transform="translate(44.02 99.96)" style="font-size:12px;fill:#009245;font-family:AFSDot10GSQR, AFS Dot10 GSQR">ロワー</text><text transform="translate(150.11 53.82) scale(0.98 1)" style="font-size:12px;fill:#009245;font-family:AFSDot10GSQR, AFS Dot10 GSQR">オーツー</text><text transform="translate(275.49 98.03)" style="font-size:12px;fill:#009245;font-family:AFSDot10GSQR, AFS Dot10 GSQR">カメラ</text><text transform="translate(275.51 116.03)" style="font-size:12px;fill:#009245;font-family:AFSDot10GSQR, AFS Dot10 GSQR">ベント</text></g><g id="outline-2" data-name="outline"><path d="M7187.52,7148.57h-1.2v-6h-3.59v3.59h-1.2v-3.59h-2.39v-1.19h2.39V7139h1.2v2.39h4.79Zm-8.38,0h1.2v1.18h-1.2Zm1.2-2.39h1.19v2.39h-1.19Zm6,3.57h-3.59v-1.18h3.59Z" transform="translate(-7056.95 -7136)" style="fill:#009245"/><path d="M7199.54,7143.78h-1.2v-2.38h-7.18v-1.2h8.38Zm-4.79,6h-2.39v-1.18h2.39Zm0-2.38h1.2v1.2h-1.2Zm1.2-1.19h1.19v1.19H7196Zm1.19-2.4h1.2v2.4h-1.2Z" transform="translate(-7056.95 -7136)" style="fill:#009245"/><path d="M7210.36,7143.78H7208v3.59h3.59v1.2h-8.38v-1.2h3.59v-3.59h-2.39v-1.19h6Z" transform="translate(-7056.95 -7136)" style="fill:#009245"/><path d="M7224.78,7143.78h-3.6v3.59H7220v-3.59h-4.79v-1.19h9.58Zm-1.2-2.38h-7.18v-1.2h7.18Zm-6,7.17h1.2v1.18h-1.2Zm1.2-1.2h1.2v1.2h-1.2Z" transform="translate(-7056.95 -7136)" style="fill:#009245"/><path d="M7228.42,7140.2h1.19v6h-1.19Zm2.39,8.37h2.39v1.18h-2.39Zm2.39-1.2h1.2v1.2h-1.2Zm1.2-8.36h1.2v8.36h-1.2Z" transform="translate(-7056.95 -7136)" style="fill:#009245"/><path d="M7247.62,7142.59h-1.2v-1.19h-7.18v-1.2h8.38Zm-7.19,6h1.2v1.18h-1.2Zm1.2-1.2h1.2v1.2h-1.2Zm1.2-4.78h1.2v1.19h1.19v1.2H7244v2.39h-1.2Zm2.39,0h1.2v1.19h-1.2Z" transform="translate(-7056.95 -7136)" style="fill:#009245"/><path d="M7260,7164.68h-1.2v-4.78h-6v3.58h-1.2v-4.78h3.59v-1.19h1.2v1.19H7260Zm-3.59,3.57H7254v-1.18h2.4Zm0-2.38h1.2v1.2h-1.2Zm1.2-1.19h1.19v1.19h-1.19Z" transform="translate(-7056.95 -7136)" style="fill:#009245"/><path d="M7270.85,7162.28h-2.39v3.59h3.59v1.2h-8.38v-1.2h3.59v-3.59h-2.39v-1.19h6Z" transform="translate(-7056.95 -7136)" style="fill:#009245"/><path d="M7281.67,7157.51h3.6v3.58h-6v7.16h-1.2v-7.16h-3.59v-1.19h3.59v-2.39h1.2v2.39h2.39Zm-7.18,7.17h1.2v2.39h-1.2Zm1.2-2.4h1.2v2.4h-1.2Zm6,2.4h-1.19v-2.4h1.19v2.4h1.2v2.39h-1.2Zm2.4-6h-1.2v1.2h1.2Z" transform="translate(-7056.95 -7136)" style="fill:#009245"/><path d="M7290.1,7159.9h-2.39v-1.2h2.39v1.2h1.2v1.19h-1.2Zm-1.19,7.17h2.39v1.18h-2.39Zm4.78,0h-2.39v-1.2h2.39Zm0-2.39h1.2v1.19h-1.2Zm1.2-2.4h1.2v2.4h-1.2Zm1.2-2.38h1.2v2.38h-1.2Z" transform="translate(-7056.95 -7136)" style="fill:#009245"/><path d="M7298.53,7167.07h2.39v1.18h-2.39Zm7.18-3.59h-1.19v-2.39h-4.79v-1.19h6Zm-4.79,2.39h1.2v1.2h-1.2Zm1.2-1.19h1.2v1.19h-1.2Zm4.79,2.39h-1.2v-1.2h-1.19v-1.19h-1.2v-1.2h1.2v1.2h1.19v1.19h1.2v1.2h1.2v1.18h-1.2Zm-1.2-9.56h1.2v2.39h-1.2Zm2.4,0h1.2v2.39h-1.2Z" transform="translate(-7056.95 -7136)" style="fill:#009245"/><path d="M7294.21,7188.09h-3.59v4.79h-1.2v-4.79h-4.79v-1.19h4.79v-2.39h1.2v2.39h3.59Zm-7.19,6h1.2v1.18H7287Zm1.2-1.19h1.2v1.19h-1.2Z" transform="translate(-7056.95 -7136)" style="fill:#009245"/><path d="M7301.44,7189.28h-3.59v4.79h6v1.18h-6v-1.18h-1.2v-9.56h1.2v3.58h3.59Zm0-2.38h1.19v-2.39h1.2v3.58h-2.39Zm3.59-2.39h1.2v2.39H7305Z" transform="translate(-7056.95 -7136)" style="fill:#009245"/><path d="M7307.47,7189.28h1.2v1.21h-1.2Zm1.2-1.19h1.2v1.19h-1.2Zm6-3.58h1.2v2.39h1.2v1.19h-2.4v3.59h-1.19v-3.59h-3.59v-3.58h1.19v2.39h3.59Zm-4.78,9.56h1.19v1.18h-1.19Zm1.19-1.19h1.2v1.19h-1.2Zm1.2-1.2h1.2v1.2h-1.2Zm4.79-7.17h1.2v2.39h-1.2Z" transform="translate(-7056.95 -7136)" style="fill:#009245"/><path d="M7329.07,7190.49h-8.38v-1.21h8.38Z" transform="translate(-7056.95 -7136)" style="fill:#009245"/><path d="M7333.9,7189.28h-1.19v-1.19h1.19v1.19h1.2v1.21h-1.2Zm1.2-2.38h-1.2v-1.2h1.2v1.2h1.2v1.19h-1.2Zm-1.2,7.17h2.4v1.18h-2.4Zm2.4-1.19h2.39v1.19h-2.39Zm2.39-1.2h1.2v1.2h-1.2Zm1.2-1.19h1.2v1.19h-1.2Zm1.2-2.4h1.2v2.4h-1.2Z" transform="translate(-7056.95 -7136)" style="fill:#009245"/><path d="M7351.91,7195.25h-6v-1.18h4.79v-2.39h-4.79v-1.19h4.79v-1.21h-4.79v-1.19h6Z" transform="translate(-7056.95 -7136)" style="fill:#009245"/><path d="M7359.14,7186.9h-2.39v-1.2h2.39v1.2h1.2v1.19h-1.2Zm-1.2,7.17h2.4v1.18h-2.4Zm4.79,0h-2.39v-1.19h2.39Zm0-2.39h1.2v1.2h-1.2Zm1.2-2.4h1.2v2.4h-1.2Zm1.2-2.38h1.19v2.38h-1.19Z" transform="translate(-7056.95 -7136)" style="fill:#009245"/><path d="M7222.38,7206.09h-1.17v-1.19h-7v-1.2h8.18Zm-7,6h1.17v1.18h-1.17Zm1.17-1.19h1.17v1.19h-1.17Zm1.17-4.79h1.17v1.19H7220v1.2h-1.16v2.4h-1.17Zm2.33,0h1.17v1.19H7220Z" transform="translate(-7056.95 -7136)" style="fill:#009245"/><path d="M7232.94,7208.48h-2.34v-1.2h-2.33v6h-1.17v-10.74h1.17v3.58h2.33v1.19h2.34Zm-2.34-6h1.17v2.39h-1.17Zm2.34,0h1.17v2.39h-1.17Z" transform="translate(-7056.95 -7136)" style="fill:#009245"/><path d="M7242.33,7203.7h2.34v1.2h-2.34v-1.2h-3.5v-1.19h3.5Zm0,3.58h2.34v1.2h-2.34v-1.2h-3.5v-1.19h3.5Zm1.17,4.79h2.33v1.18h-2.33v-1.18h-4.67v-1.19h4.67Z" transform="translate(-7056.95 -7136)" style="fill:#009245"/><path d="M7251.72,7204.9h-2.34v-1.2h2.34v1.2h1.17v1.19h-1.17Zm-1.17,7.17h2.34v1.18h-2.34Zm4.68,0h-2.34v-1.19h2.34Zm0-2.39h1.16v1.2h-1.16Zm1.16-2.4h1.17v2.4h-1.17Zm1.17-2.38h1.17v2.38h-1.17Z" transform="translate(-7056.95 -7136)" style="fill:#009245"/><path d="M7259.86,7225.28h-1.2v-1.19h1.2v1.19h1.19v1.21h-1.19Zm1.19-2.38h-1.19v-1.2h1.19v1.2h1.2v1.19h-1.2Zm-1.19,7.17h2.39v1.18h-2.39Zm2.39-1.19h2.39v1.19h-2.39Zm2.39-1.2h1.2v1.2h-1.2Zm1.2-1.19h1.2v1.19h-1.2Zm1.2-2.4h1.2v2.4H7267Z" transform="translate(-7056.95 -7136)" style="fill:#009245"/><path d="M7279.06,7226.49h-8.38v-1.21h8.38Z" transform="translate(-7056.95 -7136)" style="fill:#009245"/><path d="M7282.7,7230.07h1.19v1.18h-1.19Zm1.19-8.37h1.2v8.37h-1.2Zm3.6-1.19h1.19v8.37h1.2v1.19h-1.2v1.18h-1.19Zm2.39,7.17h1.2v1.2h-1.2Zm1.2-2.4h1.2v2.4h-1.2Z" transform="translate(-7056.95 -7136)" style="fill:#009245"/><path d="M7301.9,7226.49h-2.39v-1.21h-2.4v6h-1.2v-10.74h1.2v3.58h2.4v1.19h2.39Zm-2.39-6h1.19v2.39h-1.19Zm2.39,0h1.2v2.39h-1.2Z" transform="translate(-7056.95 -7136)" style="fill:#009245"/><path d="M7197.49,7251.21h-8.38V7250h7.18v-4.78h-7.18V7244h8.38Z" transform="translate(-7056.95 -7136)" style="fill:#009245"/><path d="M7205.92,7242.84h2.39v1.2h-2.39v-1.2h-3.6v-1.19h3.6Zm0,3.58h2.39v1.2h-2.39v-1.2h-3.6v-1.19h3.6Zm1.19,4.79h2.4v1.18h-2.4v-1.18h-4.79V7250h4.79Z" transform="translate(-7056.95 -7136)" style="fill:#009245"/><path d="M7219.13,7250h2.4v1.2h-8.38V7250h4.79v-3.59h-3.6v-1.19h4.79Z" transform="translate(-7056.95 -7136)" style="fill:#009245"/><path d="M7234.74,7251.21h-9.57V7250h9.57Zm-1.19-7.17h-7.19v-1.2h7.19Z" transform="translate(-7056.95 -7136)" style="fill:#009245"/><path d="M7237.19,7246.42h1.19v1.2h-1.19Zm1.19-1.19h1.2v1.19h-1.2Zm8.38,0h-2.39v3.59h-1.2v-3.59h-3.59v-3.58h1.2V7244h6Zm-7.18,6h1.2v1.18h-1.2Zm1.2-1.2H7242v1.2h-1.19Zm1.19-1.19h1.2V7250H7242Z" transform="translate(-7056.95 -7136)" style="fill:#009245"/><path d="M7257.59,7247.62h-8.38v-1.2h8.38Z" transform="translate(-7056.95 -7136)" style="fill:#009245"/><path d="M7262.42,7246.42h-1.2v-1.19h1.2v1.19h1.2v1.2h-1.2Zm1.2-2.38h-1.2v-1.2h1.2v1.2h1.2v1.19h-1.2Zm-1.2,7.17h2.4v1.18h-2.4Zm2.4-1.2h2.39v1.2h-2.39Zm2.39-1.19h1.2V7250h-1.2Zm1.2-1.2h1.2v1.2h-1.2Zm1.2-2.39h1.19v2.39h-1.19Z" transform="translate(-7056.95 -7136)" style="fill:#009245"/><path d="M7280.43,7252.39h-6v-1.18h4.79v-2.39h-4.79v-1.2h4.79v-1.2h-4.79v-1.19h6Z" transform="translate(-7056.95 -7136)" style="fill:#009245"/><path d="M7287.66,7244h-2.4v-1.2h2.4v1.2h1.2v1.19h-1.2Zm-1.2,7.17h2.4v1.18h-2.4Zm4.79,0h-2.39V7250h2.39Zm0-2.39h1.2V7250h-1.2Zm1.2-2.4h1.19v2.4h-1.19Zm1.19-2.38h1.2v2.38h-1.2Z" transform="translate(-7056.95 -7136)" style="fill:#009245"/><path d="M7165,7237.26h-2.39v-1.19H7165Zm4.79-8.36h-6v-1.19H7171v2.39h-1.2Zm-4.79,6h1.2v1.19H7165Zm1.2-1.2h1.2v1.2h-1.2Zm4.79,2.39h-1.2v-1.19h-1.2v-1.2h-1.19v-1.19h1.19v1.19h1.2v1.2h1.2v1.19h1.2v1.19H7171Zm-2.4-6h1.2v2.39h-1.2Z" transform="translate(-7056.95 -7136)" style="fill:#009245"/><path d="M7183.05,7232.49h-2.4v-1.21h-2.39v6h-1.2v-10.75h1.2v3.59h2.39v1.18h2.4Z" transform="translate(-7056.95 -7136)" style="fill:#009245"/><path d="M7189.08,7226.51h1.2v9.56h1.2v1.19h-2.4Zm2.4,8.37h2.39v1.19h-2.39Zm2.39-1.2h1.2v1.2h-1.2Zm1.2-1.19h1.2v1.19h-1.2Z" transform="translate(-7056.95 -7136)" style="fill:#009245"/><path d="M7207.09,7232.49h-8.38v-1.21h8.38Z" transform="translate(-7056.95 -7136)" style="fill:#009245"/><path d="M7211.92,7231.28h-1.19v-1.18h1.19v1.18h1.2v1.21h-1.2Zm1.2-2.38h-1.2v-1.19h1.2v1.19h1.2v1.2h-1.2Zm1.2,8.36h-2.4v-1.19h2.4Zm0-2.38h2.39v1.19h-2.39Zm2.39-8.37h1.2v2.39h-1.2Zm0,7.17h1.2v1.2h-1.2Zm1.2-1.19h1.2v1.19h-1.2Zm1.2-6h1.2v2.39h-1.2Zm0,4.77h1.2v1.21h-1.2Z" transform="translate(-7056.95 -7136)" style="fill:#009245"/><path d="M7133,7212.9h-3.59v6h4.79v1.19h-9.58v-1.19h3.59v-6h-2.4v-1.19H7133Z" transform="translate(-7056.95 -7136)" style="fill:#009245"/><path d="M7139,7210.51h1.2v9.56h1.2v1.19H7139Zm2.4,8.37h2.39v1.19h-2.39Zm2.39-1.2h1.2v1.2h-1.2Zm1.2-1.19h1.2v1.19H7145Z" transform="translate(-7056.95 -7136)" style="fill:#009245"/><path d="M7148.67,7215.28h1.19v1.21h-1.19Zm1.19-1.18h1.2v1.18h-1.2Zm0,6h2.4v1.19h-2.4Zm7.19-4.79h-1.2v-2.38h-3.59v1.2h-1.2v-3.59h1.2v1.2h4.79Zm-4.79,3.6h1.2v1.19h-1.2Zm1.2-1.2h1.19v1.2h-1.19Zm1.19-2.4h1.2v2.4h-1.2Z" transform="translate(-7056.95 -7136)" style="fill:#009245"/><path d="M7169.07,7216.49h-2.4v-1.21h-2.39v6h-1.2v-10.75h1.2v3.59h2.39v1.18h2.4Z" transform="translate(-7056.95 -7136)" style="fill:#009245"/><path d="M7173.9,7211.71h1.2v6h-1.2Zm2.4,8.36h2.39v1.19h-2.39Zm2.39-1.19h1.2v1.19h-1.2Zm1.2-8.37h1.2v8.37h-1.2Z" transform="translate(-7056.95 -7136)" style="fill:#009245"/><path d="M7193.11,7220.07h-1.2v-6h-3.59v3.58h-1.2v-3.58h-2.39v-1.2h2.39v-2.39h1.2v2.39h4.79Zm-8.38,0h1.19v1.19h-1.19Zm1.19-2.39h1.2v2.39h-1.2Zm6,3.58h-3.59v-1.19h3.59Z" transform="translate(-7056.95 -7136)" style="fill:#009245"/><path d="M7196.75,7220.07h1.19v1.19h-1.19Zm1.19-8.36h1.2v8.36h-1.2Zm3.6-1.2h1.19v8.37h1.2v1.19h-1.2v1.19h-1.19Zm2.39,7.17h1.2v1.2h-1.2Zm1.2-2.4h1.2v2.4h-1.2Z" transform="translate(-7056.95 -7136)" style="fill:#009245"/><path d="M7153.09,7180.25h-2.39v-1.18h2.39Zm4.78-2.37h-1.2v-1.2h-1.19v-1.19h-1.2v-1.21h-1.19v-1.19h1.19v1.19h1.2v1.21h1.19v1.19h1.2v1.2h1.19v1.19h-1.19Zm-4.78,0h1.19v1.19h-1.19Zm1.19-1.2h1.2v1.2h-1.2Zm2.39-3.59h1.2v2.4h-1.2Zm1.2-3.58h1.19v3.58h-1.19Z" transform="translate(-7056.95 -7136)" style="fill:#009245"/><path d="M7169.87,7175.49h-2.39v-1.21h-2.39v6h-1.2v-10.74h1.2v3.58h2.39v1.19h2.39Zm-2.39-6h1.19v2.39h-1.19Zm2.39,0h1.19v2.39h-1.19Z" transform="translate(-7056.95 -7136)" style="fill:#009245"/><path d="M7174.7,7175.49h1.19v1.19h-1.19Zm1.19-2.4h1.2v2.4h-1.2Zm7.17,4.79h-1.19v-1.2h-1.2v-1.19h-1.19v-1.21h-1.2v-1.19h-1.19v-1.19h1.19v1.19h1.2v1.19h1.19v1.21h1.2v1.19h1.19v1.2h1.2v1.19h-1.2Zm-2.39-7.18h1.2v2.39h-1.2Zm2.39,0h1.2v2.39h-1.2Z" transform="translate(-7056.95 -7136)" style="fill:#009245"/><path d="M7186.7,7175.49h2.39v1.19h-2.39Zm2.39-1.21h1.19v1.21h-1.19Zm2.39,0h-1.2v-1.19h1.2v-1.19h1.19v8.35h-1.19Zm1.19-3.58h1.2v1.2h-1.2Zm1.2-1.19h1.19v1.19h-1.19Z" transform="translate(-7056.95 -7136)" style="fill:#009245"/><path d="M7128.23,7197.07H7127v-4.79h-2.39v-1.19H7127v-3.58h1.2v3.58h1.2v1.19h-1.2v4.79h6v1.18h-6Zm6-4.79H7133v-1.19h-3.59v-1.19h4.79Zm-3.6,1.21h1.2v1.19h-1.2Zm1.2-1.21h1.2v1.21h-1.2Z" transform="translate(-7056.95 -7136)" style="fill:#009245"/><path d="M7145,7191.09h-3.59v2.4H7145v1.19h-2.4v3.57h-1.19v-3.57h-4.79v-1.19h3.59v-2.4h-3.59v-1.19h3.59v-2.39h1.2v2.39H7145Z" transform="translate(-7056.95 -7136)" style="fill:#009245"/><path d="M7154.66,7195.88h2.4v1.19h-8.38v-1.19h4.79v-3.6h-3.6v-1.19h4.79Z" transform="translate(-7056.95 -7136)" style="fill:#009245"/><path d="M7161.89,7188.7h1.2v6h-1.2Zm2.4,8.37h2.39v1.18h-2.39Zm2.39-1.19h1.2v1.19h-1.2Zm1.2-8.37h1.2v8.37h-1.2Z" transform="translate(-7056.95 -7136)" style="fill:#009245"/><path d="M7182.3,7192.28h-3.6v3.6h-1.19v-3.6h-4.79v-1.19h9.58Zm-1.2-2.38h-7.19v-1.2h7.19Zm-6,7.17h1.2v1.18h-1.2Zm1.2-1.19h1.2v1.19h-1.2Z" transform="translate(-7056.95 -7136)" style="fill:#009245"/><path d="M7188.33,7194.68h-2.4v-1.19h2.4Zm2.39,3.57h-1.19v-4.76h-1.2v-1.21h2.39Zm0-7.16h1.2v1.19h-1.2Zm1.2-1.19h1.2v1.19h-1.2Z" transform="translate(-7056.95 -7136)" style="fill:#009245"/><path d="M7060.84,7189.7h1.2v6h-1.2Zm2.4,8.37h2.39v1.18h-2.39Zm2.39-1.19h1.2v1.19h-1.2Zm1.2-8.37h1.2v8.37h-1.2Z" transform="translate(-7056.95 -7136)" style="fill:#009245"/><path d="M7080.05,7192.09h-1.2v-1.19h-7.18v-1.2h8.38Zm-7.19,6h1.2v1.18h-1.2Zm1.2-1.19h1.2v1.19h-1.2Zm1.2-4.79h1.2v1.19h1.19v1.2h-1.19v2.4h-1.2Zm2.39,0h1.2v1.19h-1.2Z" transform="translate(-7056.95 -7136)" style="fill:#009245"/><path d="M7083.69,7193.28h1.19v1.2h-1.19Zm1.19-1.19h1.2v1.19h-1.2Zm0,6h2.4v1.18h-2.4Zm7.19-4.79h-1.2v-2.38h-3.59v1.19h-1.2v-3.58h1.2v1.19h4.79Zm-4.79,3.6h1.2v1.19h-1.2Zm1.2-1.2h1.19v1.2h-1.19Zm1.19-2.4h1.2v2.4h-1.2Z" transform="translate(-7056.95 -7136)" style="fill:#009245"/><path d="M7095.71,7193.28h1.19v1.2h-1.19Zm4.79,1.2h1.19v-1.2h1.2v2.4h-1.2v1.2h-1.19v-2.4h-2.4v-1.2h-1.2v-1.19h1.2v1.19h2.4Zm-3.6,3.59h2.4v1.18h-2.4Zm7.19-4.79h-1.2v-2.38h-3.59v1.19h-1.2v-3.58h1.2v1.19h4.79Zm-4.79,3.6h1.2v1.19h-1.2Z" transform="translate(-7056.95 -7136)" style="fill:#009245"/><path d="M7116.11,7194.48h-8.38v-1.2h8.38Z" transform="translate(-7056.95 -7136)" style="fill:#009245"/><path d="M7100,7163.09h-1.2v-1.19h-7.18v-1.2H7100Zm-7.19,6h1.2v1.18h-1.2Zm1.2-1.2h1.2v1.2h-1.2Zm1.2-4.78h1.2v1.19h1.19v1.2h-1.19v2.39h-1.2Zm2.39,0h1.2v1.19h-1.2Z" transform="translate(-7056.95 -7136)" style="fill:#009245"/><path d="M7104.87,7163.09h1.2v2.39h-1.2Zm3.6,7.16h-2.4v-1.18h2.4Zm-1.2-7.16h1.2v2.39h-1.2Zm1.2,4.78h1.19v1.2h-1.19Zm1.19-1.19h1.2v1.19h-1.2Zm1.2-3.59h1.2v3.59h-1.2Z" transform="translate(-7056.95 -7136)" style="fill:#009245"/><path d="M7114.5,7167.87h1.2v1.2h-1.2Zm1.2-2.39h1.19v2.39h-1.19Zm1.19-3.58h1.2v3.58h-1.2Zm6,3.58h-1.2v-2.39h-1.19v-1.19h1.19v-2.39h3.6v3.58h-2.4v2.39h1.2v3.59h-1.2Zm1.2-4.78h-1.2v1.2h1.2Z" transform="translate(-7056.95 -7136)" style="fill:#009245"/><path d="M7136.1,7165.48h-8.38v-1.2h8.38Z" transform="translate(-7056.95 -7136)" style="fill:#009245"/><path d="M7110.55,7235.21h-8.38v-8.37h8.38Zm-1.2-7.17h-6v6h6Z" transform="translate(-7056.95 -7136)" style="fill:#009245"/><path d="M7122.57,7232.82h-1.2V7228h-6v3.58h-1.2v-4.78h8.38Zm-3.59,3.57h-2.4v-1.18h2.4Zm0-2.38h1.19v1.2H7119Zm1.19-1.19h1.2V7234h-1.2Z" transform="translate(-7056.95 -7136)" style="fill:#009245"/><path d="M7134.59,7231.62h-8.38v-1.2h8.38Z" transform="translate(-7056.95 -7136)" style="fill:#009245"/><path d="M7217.57,7183.09h-2.34v7.16h-3.5v-1.18h2.33v-4.79h-1.16v-1.19h-4.67v-1.19h5.83v-2.39h1.17v2.39h2.34Zm-7,4.78h-2.33v-1.19h2.33Zm0-2.39h1.17v1.2h-1.17Zm1.17-1.2h1.17v1.2h-1.17Z" transform="translate(-7056.95 -7136)" style="fill:#009245"/><path d="M7228.12,7185.48H7220v-1.2h8.17Z" transform="translate(-7056.95 -7136)" style="fill:#009245"/><path d="M7232.83,7183.09h-1.16v-1.19h1.16v1.19H7234v2.39h-1.17Zm2.34-1.19H7234v-1.2h1.17v1.2h1.17v2.38h-1.17Zm-1.17,7.17h2.34v1.18H7234Zm2.34-1.2h1.16v1.2h-1.16Zm1.16-1.19h1.17v1.19h-1.17Zm1.17-2.4h1.17v2.4h-1.17Zm1.17-3.58H7241v3.58h-1.17Z" transform="translate(-7056.95 -7136)" style="fill:#009245"/><path d="M7251.56,7185.48h-8.17v-1.2h8.17Z" transform="translate(-7056.95 -7136)" style="fill:#009245"/><path d="M7342,7233.28h-1.19v-6h-3.6v3.59H7336v-3.59h-2.4v-1.19h2.4v-2.39h1.19v2.39H7342Zm-8.38,0h1.2v1.18h-1.2Zm1.2-2.39h1.2v2.39h-1.2Zm6,3.57h-3.6v-1.18h3.6Z" transform="translate(-7056.95 -7136)" style="fill:#009245"/><path d="M7348.05,7234.46h-2.4v-1.18h2.4Zm4.78-2.37h-1.19v-1.2h-1.2v-1.19h-1.2v-1.21h-1.19v-1.19h1.19v1.19h1.2v1.21h1.2v1.19h1.19v1.2h1.2v1.19h-1.2Zm-4.78,0h1.19v1.19h-1.19Zm1.19-1.2h1.2v1.2h-1.2Zm2.4-3.59h1.19v2.4h-1.19Zm1.19-3.58h1.2v3.58h-1.2Z" transform="translate(-7056.95 -7136)" style="fill:#009245"/><path d="M7366.05,7230.89h-1.2v-2.4h-7.18v-1.19h8.38Zm-7.18-7.17h6v1.19h-6Zm1.2,9.56h2.39v1.18h-2.39Zm2.39-1.19h1.2v1.19h-1.2Zm1.2-1.2h1.19v1.2h-1.19Z" transform="translate(-7056.95 -7136)" style="fill:#009245"/><path d="M7333.66,7247.7h1.19v1.19h-1.19Zm1.19-2.39h1.2v2.39h-1.2Zm7.19,4.78h-1.2v-1.2h-1.2v-1.19h-1.19v-1.21h-1.2v-1.18h-1.2v-1.2h1.2v1.2h1.2v1.18h1.19v1.21h1.2v1.19h1.2v1.2h1.2v1.19H7342Zm-2.4-7.17h1.2v2.39h-1.2Zm2.4,0h1.2v2.39H7342Z" transform="translate(-7056.95 -7136)" style="fill:#009245"/><path d="M7348.07,7244.11h-2.39v-1.19h2.39v1.19h1.2v1.2h-1.2Zm-1.2,7.17h2.4v1.19h-2.4Zm4.79,0h-2.39v-1.19h2.39Zm0-2.39h1.2v1.2h-1.2Zm1.2-2.4h1.2v2.4h-1.2Zm1.2-2.38h1.19v2.38h-1.19Z" transform="translate(-7056.95 -7136)" style="fill:#009245"/><path d="M7366.08,7247.7h-2.4v-1.21h-2.39v6h-1.2v-10.75h1.2v3.59h2.39v1.18h2.4Z" transform="translate(-7056.95 -7136)" style="fill:#009245"/></g></g></g></svg>