<svg xmlns="http://www.w3.org/2000/svg" viewBox="0 0 308.48 119"><g id="niavi-border"><path d="M7182,7151v18h-34v-18h34m1-1h-36v20h36v-20Z" transform="translate(-7059.34 -7136)" style="fill:#fff;stroke:#fff;stroke-miterlimit:10;stroke-width:2px"/><polygon points="113.66 26 113.66 22 114.66 22 114.66 20 115.66 20 115.66 18 116.66 18 116.66 16 119.66 16 119.66 18 120.66 18 120.66 20 121.66 20 121.66 22 122.66 22 122.66 26 113.66 26" style="fill:#fff"/><path d="M7178,7153v2h1v2h1v2h1v2h-7v-2h1v-2h1v-2h1v-2h1m2-2h-5v2h-1v2h-1v2h-1v6h11v-6h-1v-2h-1v-2h-1v-2Z" transform="translate(-7059.34 -7136)" style="fill:#fff"/><polygon points="155.66 66 155.66 62 156.66 62 156.66 60 157.66 60 157.66 58 158.66 58 158.66 56 161.66 56 161.66 58 162.66 58 162.66 60 163.66 60 163.66 62 164.66 62 164.66 66 155.66 66" style="fill:#fff"/><path d="M7220,7193v2h1v2h1v2h1v2h-7v-2h1v-2h1v-2h1v-2h1m2-2h-5v2h-1v2h-1v2h-1v6h11v-6h-1v-2h-1v-2h-1v-2Z" transform="translate(-7059.34 -7136)" style="fill:#fff"/><polygon points="218.66 55 218.66 51 219.66 51 219.66 49 220.66 49 220.66 47 221.66 47 221.66 45 224.66 45 224.66 47 225.66 47 225.66 49 226.66 49 226.66 51 227.66 51 227.66 55 218.66 55" style="fill:#fff"/><path d="M7283,7182v2h1v2h1v2h1v2h-7v-2h1v-2h1v-2h1v-2h1m2-2h-5v2h-1v2h-1v2h-1v6h11v-6h-1v-2h-1v-2h-1v-2Z" transform="translate(-7059.34 -7136)" style="fill:#fff"/><polygon points="259.66 98 259.66 94 260.66 94 260.66 92 261.66 92 261.66 90 262.66 90 262.66 88 265.66 88 265.66 90 266.66 90 266.66 92 267.66 92 267.66 94 268.66 94 268.66 98 259.66 98" style="fill:#fff"/><path d="M7324,7225v2h1v2h1v2h1v2h-7v-2h1v-2h1v-2h1v-2h1m2-2h-5v2h-1v2h-1v2h-1v6h11v-6h-1v-2h-1v-2h-1v-2Z" transform="translate(-7059.34 -7136)" style="fill:#fff"/><polygon points="66.66 59 66.66 55 67.66 55 67.66 53 68.66 53 68.66 51 69.66 51 69.66 49 72.66 49 72.66 51 73.66 51 73.66 53 74.66 53 74.66 55 75.66 55 75.66 59 66.66 59" style="fill:#fff"/><path d="M7131,7186v2h1v2h1v2h1v2h-7v-2h1v-2h1v-2h1v-2h1m2-2h-5v2h-1v2h-1v2h-1v6h11v-6h-1v-2h-1v-2h-1v-2Z" transform="translate(-7059.34 -7136)" style="fill:#fff"/><path d="M7145,7184v19h-19v-19h19m1-1h-21v21h21v-21Z" transform="translate(-7059.34 -7136)" style="fill:#fff;stroke:#fff;stroke-miterlimit:10;stroke-width:2px"/><path d="M7224,7193v17h-21v-17h21m1-1h-23v19h23v-19Z" transform="translate(-7059.34 -7136)" style="fill:#fff;stroke:#fff;stroke-miterlimit:10;stroke-width:2px"/><path d="M7289,7177v29h-31v-29h31m1-1h-33v31h33v-31Z" transform="translate(-7059.34 -7136)" style="fill:#fff;stroke:#fff;stroke-miterlimit:10;stroke-width:2px"/><path d="M7109.85,7180.65c-.25-.63-6-15.54,1.53-24.11,3.24-3.71,8.41-5.59,15.38-5.59a62,62,0,0,1,14.34,2l1,.23-.7,2.92-1-.24a59.48,59.48,0,0,0-13.65-1.88c-6,0-10.45,1.53-13.1,4.57-6.27,7.18-1.05,20.9-1,21l.36.93-2.79,1.1Z" transform="translate(-7059.34 -7136)" style="fill:#fff"/><path d="M7126.76,7152a61.12,61.12,0,0,1,14.1,1.94l-.23,1a60,60,0,0,0-13.89-1.91c-6.36,0-11,1.63-13.85,4.91-6.69,7.66-1.24,21.91-1.18,22.06l-.93.36c-.24-.61-5.73-15,1.35-23.08,3.06-3.5,7.95-5.25,14.63-5.25m0-2c-7.27,0-12.7,2-16.13,5.93-7.88,9-2,24.48-1.72,25.13l.73,1.86,1.87-.73.93-.36,1.86-.73-.73-1.86c0-.13-5-13.31.83-20,2.44-2.8,6.6-4.22,12.34-4.22a58.65,58.65,0,0,1,13.42,1.85l1.94.47.47-1.94.24-1,.47-1.95-1.95-.47a63.33,63.33,0,0,0-14.57-2Z" transform="translate(-7059.34 -7136)" style="fill:#fff"/><path d="M7131.46,7237.46c-5.05,0-9.24-1.39-12.44-4.13-6.45-5.52-8.26-16.17-5.39-31.64l.19-1,3,.55-.19,1c-2.66,14.34-1.18,24,4.39,28.81,2.62,2.24,6.14,3.37,10.49,3.37a28.82,28.82,0,0,0,8.54-1.34l.94-.32,1,2.82-.94.34a31.42,31.42,0,0,1-9.54,1.54Z" transform="translate(-7059.34 -7136)" style="fill:#fff"/><path d="M7114.62,7201.87l1,.19c-2.74,14.72-1.15,24.73,4.72,29.75,3.29,2.81,7.46,3.61,11.14,3.61a30.31,30.31,0,0,0,8.87-1.39l.34.94a30.14,30.14,0,0,1-9.21,1.49,17.79,17.79,0,0,1-11.79-3.89c-6.16-5.27-7.86-15.6-5.05-30.7m-1.6-2.33-.37,2c-2.94,15.85-1,26.81,5.72,32.58,3.39,2.9,7.79,4.37,13.09,4.37a32.23,32.23,0,0,0,9.87-1.6l1.89-.67-.67-1.88-.33-1-.66-1.88-1.89.66a28.32,28.32,0,0,1-8.21,1.28c-4.1,0-7.41-1.05-9.84-3.13-5.28-4.53-6.65-13.9-4.05-27.87l.36-2-2-.37-1-.18-2-.37Z" transform="translate(-7059.34 -7136)" style="fill:#fff"/><path d="M7150.85,7202.57l17.64-11.74,2.85,16Zm16.76.43-1.27-7.13-7.86,5.23Z" transform="translate(-7059.34 -7136)" style="fill:#fff"/><path d="M7167.77,7192.51l2.33,13.05-16.71-3.48,14.38-9.57m1.09,11.77-1.8-10.09-11.13,7.4,12.93,2.69m.35-15.13-2.54,1.69-14.39,9.58-4,2.65,4.68,1,16.71,3.48,2.9.61-.52-2.92-2.33-13.05-.53-3Zm-8.19,11.46,4.6-3.07.75,4.18-5.35-1.11Z" transform="translate(-7059.34 -7136)" style="fill:#fff"/><path d="M7228.09,7216c-.12-.31-11.16-31.81,5.41-46.62l.67-.59.84.3c.87.31,1.85.64,2.91,1,10.46,3.52,27.83,9.36,27.08,26.48-.83,18.91-34,20.38-35.44,20.43l-1.1,0Zm6.77-43.78c-12.55,12.2-5.92,36.46-4.29,41.71,5.55-.41,30.8-3.09,31.43-17.5.65-14.85-15.38-20.25-24.95-23.47Z" transform="translate(-7059.34 -7136)" style="fill:#fff"/><path d="M7234.39,7169.93l.28.1c.9.32,1.92.67,3,1,10.11,3.41,27,9.1,26.32,25.46-.79,18-33.11,19.43-34.48,19.48h-.37l-.12-.34c-.11-.31-10.9-31.21,5.14-45.54l.22-.2m-4.54,45c3.63-.21,32.45-2.41,33.15-18.5.68-15.61-15.79-21.16-25.64-24.47-1-.33-1.91-.64-2.75-.94-14.32,13.16-5.89,40.5-4.76,43.91m4.09-47.34-.88.8-.23.2c-17.06,15.24-5.8,47.38-5.68,47.7l.12.34.49,1.39,1.47-.06h.36a76.1,76.1,0,0,0,18-3.1c11.69-3.66,18.06-10,18.42-18.29.78-17.87-17.73-24.09-27.68-27.44l-.08,0c-1.05-.35-2-.68-2.89-1l-.29-.1-1.12-.41Zm-2.65,45.22c-1.87-6.32-7.21-28.08,3.83-39.49l1.61.54c9.91,3.33,24.89,8.37,24.27,22.48-.56,12.89-23.41,15.89-29.71,16.47Z" transform="translate(-7059.34 -7136)" style="fill:#fff"/><path d="M7257.8,7236l1-.14c36.28-4.88,35.23-36,35.21-36.27l0-1,3-.16.06,1c0,.34,1.35,34.14-37.81,39.4l-1,.14Z" transform="translate(-7059.34 -7136)" style="fill:#fff"/><path d="M7296,7199.47c0,.33,1.34,33.22-36.94,38.36l-.14-1c37.38-5,36.1-37,36.08-37.31l1-.06m1.89-2.1-2,.11-1,.05-2,.11.1,2a35.72,35.72,0,0,1-3.87,16c-5.46,10.76-15.71,17.23-30.47,19.21l-2,.27.26,2,.13,1,.27,2,2-.27c40.07-5.38,38.69-40.09,38.68-40.44l-.11-2Z" transform="translate(-7059.34 -7136)" style="fill:#fff"/><path d="M7294,7181.52c0-.33-1.07-26.43-38.54-27.52l-1,0,.08-3,1,0c40.69,1.19,41.46,30.19,41.46,30.48v1l-3,0Z" transform="translate(-7059.34 -7136)" style="fill:#fff"/><path d="M7255.51,7152c39.71,1.16,40.49,29.21,40.49,29.49l-1,0c0-.28-.8-27.38-39.51-28.51l0-1m-1.94-2.06,0,2,0,1-.06,2,2,.06c15.32.45,26.28,5,32.59,13.59a25.39,25.39,0,0,1,5,13l.05,2h2l1,0,2,0,0-2c0-.3-.79-30.25-42.43-31.47l-2-.06Z" transform="translate(-7059.34 -7136)" style="fill:#fff"/><rect x="49.66" y="43" width="7" height="5" style="fill:#fff"/><path d="M7115,7180v3h-5v-3h5m2-2h-9v7h9v-7Z" transform="translate(-7059.34 -7136)" style="fill:#fff"/><rect x="170.66" y="32" width="7" height="5" style="fill:#fff"/><path d="M7236,7169v3h-5v-3h5m2-2h-9v7h9v-7Z" transform="translate(-7059.34 -7136)" style="fill:#fff"/><rect x="200.66" y="58" width="7" height="5" style="fill:#fff"/><path d="M7266,7195v3h-5v-3h5m2-2h-9v7h9v-7Z" transform="translate(-7059.34 -7136)" style="fill:#fff"/><rect x="192.66" y="14" width="7" height="5" style="fill:#fff"/><path d="M7258,7151v3h-5v-3h5m2-2h-9v7h9v-7Z" transform="translate(-7059.34 -7136)" style="fill:#fff"/><rect x="232.66" y="43" width="7" height="5" style="fill:#fff"/><path d="M7298,7180v3h-5v-3h5m2-2h-9v7h9v-7Z" transform="translate(-7059.34 -7136)" style="fill:#fff"/><rect x="232.66" y="61" width="7" height="5" style="fill:#fff"/><path d="M7298,7198v3h-5v-3h5m2-2h-9v7h9v-7Z" transform="translate(-7059.34 -7136)" style="fill:#fff"/><rect x="197.66" y="99" width="7" height="5" style="fill:#fff"/><path d="M7263,7236v3h-5v-3h5m2-2h-9v7h9v-7Z" transform="translate(-7059.34 -7136)" style="fill:#fff"/><rect x="258.66" y="111" width="7" height="5" style="fill:#fff"/><path d="M7324,7248v3h-5v-3h5m2-2h-9v7h9v-7Z" transform="translate(-7059.34 -7136)" style="fill:#fff"/><rect x="165.66" y="77" width="7" height="5" style="fill:#fff"/><path d="M7231,7214v3h-5v-3h5m2-2h-9v7h9v-7Z" transform="translate(-7059.34 -7136)" style="fill:#fff"/><rect x="106.66" y="68" width="7" height="5" style="fill:#fff"/><path d="M7172,7205v3h-5v-3h5m2-2h-9v7h9v-7Z" transform="translate(-7059.34 -7136)" style="fill:#fff"/><rect x="103.66" y="54" width="7" height="5" style="fill:#fff"/><path d="M7169,7191v3h-5v-3h5m2-2h-9v7h9v-7Z" transform="translate(-7059.34 -7136)" style="fill:#fff"/><rect x="90.66" y="63" width="7" height="5" style="fill:#fff"/><path d="M7156,7200v3h-5v-3h5m2-2h-9v7h9v-7Z" transform="translate(-7059.34 -7136)" style="fill:#fff"/><rect x="77.66" y="17" width="7" height="5" style="fill:#fff"/><path d="M7143,7154v3h-5v-3h5m2-2h-9v7h9v-7Z" transform="translate(-7059.34 -7136)" style="fill:#fff"/><rect x="52.66" y="63" width="7" height="5" style="fill:#fff"/><path d="M7118,7200v3h-5v-3h5m2-2h-9v7h9v-7Z" transform="translate(-7059.34 -7136)" style="fill:#fff"/><rect x="77.66" y="96" width="7" height="5" style="fill:#fff"/><path d="M7143,7233v3h-5v-3h5m2-2h-9v7h9v-7Z" transform="translate(-7059.34 -7136)" style="fill:#fff"/><path d="M7317,7236v-14h14v14Zm11-3v-8h-8v8Z" transform="translate(-7059.34 -7136)" style="fill:#fff"/><path d="M7330,7223v12h-12v-12h12m-11,11h10v-10h-10v10m13-13h-16v16h16v-16Zm-11,5h6v6h-6v-6Z" transform="translate(-7059.34 -7136)" style="fill:#fff"/><rect x="260.66" y="111" width="11" height="4" style="fill:#fff"/><path d="M7330,7248v2h-9v-2h9m2-2h-13v6h13v-6Z" transform="translate(-7059.34 -7136)" style="fill:#fff"/></g><g id="roads-border"><polygon points="70.66 77 70.66 63 64.66 63 64.66 51 70.66 51 70.66 41 80.66 41 80.66 51 87.66 51 87.66 63 80.66 63 80.66 77 70.66 77" style="fill:#fff"/><path d="M7139,7178v10h7v10h-7v14h-8v-14h-6v-10h6v-10h8m2-2h-12v10h-6v14h6v14h12v-14h7v-14h-7v-10Z" transform="translate(-7059.34 -7136)" style="fill:#fff"/><polygon points="109.66 38 109.66 34 84.66 34 84.66 21 128.66 21 128.66 34 119.66 34 119.66 38 109.66 38" style="fill:#fff"/><path d="M7187,7158v11h-9v4h-8v-4h-25v-11h42m2-2h-46v15h25v4h12v-4h9v-15Z" transform="translate(-7059.34 -7136)" style="fill:#fff"/><rect x="180.66" y="21" width="13" height="12" style="fill:#fff"/><path d="M7252,7158v10h-11v-10h11m2-2h-15v14h15v-14Z" transform="translate(-7059.34 -7136)" style="fill:#fff"/><polygon points="199.66 81 199.66 57 208.66 57 208.66 55 193.66 55 193.66 43 199.66 43 199.66 38 208.66 38 208.66 43 219.66 43 219.66 49 233.66 49 233.66 61 219.66 61 219.66 69 208.66 69 208.66 81 199.66 81" style="fill:#fff"/><path d="M7267,7175v5h11v6h14v10h-14v8h-11v12h-7v-22h9v-4h-15v-10h6v-5h7m2-2h-11v5h-6v14h6v26h11v-12h11v-8h14v-14h-14v-6h-11v-5Z" transform="translate(-7059.34 -7136)" style="fill:#fff"/><polygon points="170.66 100 170.66 97 159.66 97 159.66 86 191.66 86 191.66 97 182.66 97 182.66 100 170.66 100" style="fill:#fff"/><path d="M7250,7223v9h-9v3h-10v-3h-11v-9h30m2-2h-34v13h11v3h14v-3h9v-13Z" transform="translate(-7059.34 -7136)" style="fill:#fff"/><polygon points="146.66 76 146.66 56 156.66 56 156.66 61 166.66 61 166.66 73 156.66 73 156.66 76 146.66 76" style="fill:#fff"/><path d="M7215,7193v5h10v10h-10v3h-8v-18h8m2-2h-12v22h12v-3h10v-14h-10v-5Z" transform="translate(-7059.34 -7136)" style="fill:#fff"/><polygon points="90.66 107 90.66 94 84.66 94 84.66 82 101.66 82 101.66 96 104.66 96 104.66 93 113.66 93 113.66 96 132.66 96 132.66 107 90.66 107" style="fill:#fff"/><path d="M7160,7219v14h5v-3h7v3h19v9h-40v-13h-6v-10h15m2-2h-19v14h6v13h44v-13h-19v-3h-11v3h-1v-14Z" transform="translate(-7059.34 -7136)" style="fill:#fff"/><rect x="60.66" y="29" width="139" height="68" style="fill:#fff"/><rect x="58.66" y="66" width="4" height="14" style="fill:#fff"/></g><g id="rooms-border"><polygon points="60.66 43 60.66 21.59 67.24 15 86.66 15 86.66 43 60.66 43" style="fill:#fff"/><path d="M7145,7152v26h-24v-20l6-6h18m2-2h-20.83l-.58.59-6,6-.59.58V7180h28v-30Z" transform="translate(-7059.34 -7136)" style="fill:#fff"/><polygon points="50.38 79 39.66 72.57 39.66 43.43 50.38 37 58.66 37 58.66 45 66.66 45 66.66 70 58.66 70 58.66 79 50.38 79" style="fill:#fff"/><path d="M7117,7174v8h8v23h-8v9h-7l-10-6v-28l10-6h7m2-2h-9.55l-.48.29-10,6-1,.58v30.26l1,.58,10,6,.48.29H7119v-9h8v-27h-8v-8Z" transform="translate(-7059.34 -7136)" style="fill:#fff"/><polygon points="67.24 102 61.66 96.41 61.66 75 86.66 75 86.66 102 67.24 102" style="fill:#fff"/><path d="M7145,7212v25h-18l-5-5v-20h23m2-2h-27v22.83l.59.58,5,5,.58.59H7147v-29Z" transform="translate(-7059.34 -7136)" style="fill:#fff"/><polygon points="85.66 73 85.66 51.7 90.12 45 97.19 45 101.66 51.7 101.66 73 85.66 73" style="fill:#fff"/><path d="M7156,7182l4,6v20h-14v-20l4-6h6m1.07-2h-8.14l-.59.89-4,6-.34.5V7210h18v-22.61l-.34-.5-4-6-.59-.89Z" transform="translate(-7059.34 -7136)" style="fill:#fff"/><polygon points="102.66 95 102.66 67 135.66 67 135.66 74.41 128.66 81.41 128.66 89.42 119.95 95 102.66 95" style="fill:#fff"/><path d="M7194,7204v6l-7,7v7.87l-8,5.13h-16v-26h31m2-2h-35v30h18.59l.49-.32,8-5.13.92-.59v-8.13l6.41-6.42.59-.58V7202Z" transform="translate(-7059.34 -7136)" style="fill:#fff"/><polygon points="108.24 65 102.66 59.41 102.66 36 126.66 36 126.66 48.55 135.66 56.55 135.66 65 108.24 65" style="fill:#fff"/><path d="M7185,7173v12l9,8v7h-26l-5-5v-22h22m2-2h-26v24.83l.59.58,5,5,.58.59H7196v-9.9l-.67-.59-8.33-7.41V7171Z" transform="translate(-7059.34 -7136)" style="fill:#fff"/><polygon points="138.27 58 126.66 47.44 126.66 11.62 136.21 1 169.09 1 182.66 15.61 182.66 42.35 170.14 58 138.27 58" style="fill:#fff"/><path d="M7228,7138l13,14v26l-12,15h-31l-11-10v-35l9-10h32m.87-2h-33.76l-.6.66-9,10-.51.57v36.65l.65.6,11,10,.58.52H7230l.6-.75,12-15,.44-.55v-27.49l-.53-.57-13-14-.6-.64Z" transform="translate(-7059.34 -7136)" style="fill:#fff"/><polygon points="138.21 118 129.66 108.38 129.66 81.59 138.24 73 161.66 73 161.66 118 138.21 118" style="fill:#fff"/><path d="M7220,7210v43h-22l-8-9v-26l8-8h22m2-2h-24.83l-.58.59-8,8-.59.58v27.59l.51.57,8,9,.59.67H7222v-47Z" transform="translate(-7059.34 -7136)" style="fill:#fff"/><polygon points="164.66 86 164.66 61 190.66 61 190.66 81.41 186.07 86 164.66 86" style="fill:#fff"/><path d="M7249,7198v19l-4,4h-20v-23h24m2-2h-28v27h22.83l.58-.59,4-4,.59-.58V7196Z" transform="translate(-7059.34 -7136)" style="fill:#fff"/><polygon points="167.24 118 161.66 112.41 161.66 98 187.66 98 187.66 112.41 182.07 118 167.24 118" style="fill:#fff"/><path d="M7246,7235v13l-5,5h-14l-5-5v-13h24m2-2h-28v15.83l.59.58,5,5,.58.59h15.66l.58-.59,5-5,.59-.58V7233Z" transform="translate(-7059.34 -7136)" style="fill:#fff"/><polygon points="189.66 106 189.66 84.59 195.24 79 213.66 79 213.66 95.41 203.07 106 189.66 106" style="fill:#fff"/><path d="M7272,7216v15l-10,10h-12v-20l5-5h17m2-2h-19.83l-.58.59-5,5-.59.58V7243h14.83l.58-.59,10-10,.59-.58V7214Z" transform="translate(-7059.34 -7136)" style="fill:#fff"/><polygon points="175.66 60 175.66 52.66 182.66 43.66 182.66 41 195.66 41 195.66 60 175.66 60" style="fill:#fff"/><path d="M7254,7178v17h-18v-6l7-9v-2h11m2-2h-15v3.31l-6.58,8.46-.42.54V7197h22v-21Z" transform="translate(-7059.34 -7136)" style="fill:#fff"/><polygon points="231.66 68 231.66 42 243.07 42 251.66 50.59 251.66 60.45 243.03 68 231.66 68" style="fill:#fff"/><path d="M7302,7179l8,8v9l-8,7h-10v-24h10m.83-2H7290v28h12.75l.57-.49,8-7,.68-.6v-10.74l-.59-.58-8-8-.58-.59Z" transform="translate(-7059.34 -7136)" style="fill:#fff"/><polygon points="197.24 40 191.66 34.41 191.66 13 205.07 13 215.66 23.59 215.66 40 197.24 40" style="fill:#fff"/><path d="M7264,7150l10,10v15h-17l-5-5v-20h12m.83-2H7250v22.83l.59.58,5,5,.58.59H7276v-17.83l-.59-.58-10-10-.58-.59Z" transform="translate(-7059.34 -7136)" style="fill:#fff"/></g><g id="roads"><polygon points="71.66 42 71.66 52 65.66 52 65.66 62 71.66 62 71.66 76 79.66 76 79.66 62 86.66 62 86.66 52 79.66 52 79.66 42 71.66 42" style="fill:#333"/><polygon points="85.66 22 127.66 22 127.66 33 118.66 33 118.66 37 110.66 37 110.66 33 85.66 33 85.66 22" style="fill:#333"/><rect x="181.66" y="22" width="11" height="10" style="fill:#333"/><polygon points="200.66 39 200.66 44 194.66 44 194.66 54 209.66 54 209.66 58 200.66 58 200.66 80 207.66 80 207.66 68 218.66 68 218.66 60 232.66 60 232.66 50 218.66 50 218.66 44 207.66 44 207.66 39 200.66 39" style="fill:#333"/><polygon points="190.66 87 160.66 87 160.66 96 171.66 96 171.66 99 181.66 99 181.66 96 190.66 96 190.66 87" style="fill:#333"/><polygon points="147.66 57 147.66 75 155.66 75 155.66 72 165.66 72 165.66 62 155.66 62 155.66 57 147.66 57" style="fill:#333"/><polygon points="131.66 97 112.66 97 112.66 94 105.66 94 105.66 97 100.66 97 100.66 83 85.66 83 85.66 93 91.66 93 91.66 106 131.66 106 131.66 97" style="fill:#333"/></g><g id="red"><g id="rooms"><polygon points="67.66 16 85.66 16 85.66 42 61.66 42 61.66 22 67.66 16" style="fill:red"/><polygon points="50.66 38 40.66 44 40.66 72 50.66 78 57.66 78 57.66 69 65.66 69 65.66 46 57.66 46 57.66 38 50.66 38" style="fill:red"/><polygon points="62.66 76 62.66 96 67.66 101 85.66 101 85.66 76 62.66 76" style="fill:red"/><polygon points="90.66 46 96.66 46 100.66 52 100.66 72 86.66 72 86.66 52 90.66 46" style="fill:red"/><polygon points="103.66 68 103.66 94 119.66 94 127.66 88.87 127.66 81 134.66 74 134.66 68 103.66 68" style="fill:red"/><polygon points="103.66 37 103.66 59 108.66 64 134.66 64 134.66 57 125.66 49 125.66 37 103.66 37" style="fill:red"/><polygon points="127.66 47 138.66 57 169.66 57 181.66 42 181.66 16 168.66 2 136.66 2 127.66 12 127.66 47" style="fill:red"/><polygon points="138.66 74 130.66 82 130.66 108 138.66 117 160.66 117 160.66 74 138.66 74" style="fill:red"/><polygon points="165.66 62 165.66 85 185.66 85 189.66 81 189.66 62 165.66 62" style="fill:red"/><polygon points="162.66 99 186.66 99 186.66 112 181.66 117 167.66 117 162.66 112 162.66 99" style="fill:red"/><polygon points="195.66 80 212.66 80 212.66 95 202.66 105 190.66 105 190.66 85 195.66 80" style="fill:red"/><polygon points="183.66 42 183.66 44 176.66 53 176.66 59 194.66 59 194.66 42 183.66 42" style="fill:red"/><polygon points="232.66 43 232.66 67 242.66 67 250.66 60 250.66 51 242.66 43 232.66 43" style="fill:red"/><polygon points="197.66 39 214.66 39 214.66 24 204.66 14 192.66 14 192.66 34 197.66 39" style="fill:red"/></g><g id="niavi"><path d="M7182,7151v18h-34v-18h34m1-1h-36v20h36v-20Z" transform="translate(-7059.34 -7136)" style="fill:lime"/><path d="M7174,7159h1v-2h1v-2h1v-2h1v2h1v2h1v2h1v2h-7Z" transform="translate(-7059.34 -7136)" style="fill:lime"/><path d="M7216,7199h1v-2h1v-2h1v-2h1v2h1v2h1v2h1v2h-7Z" transform="translate(-7059.34 -7136)" style="fill:lime"/><path d="M7279,7188h1v-2h1v-2h1v-2h1v2h1v2h1v2h1v2h-7Z" transform="translate(-7059.34 -7136)" style="fill:lime"/><path d="M7320,7231h1v-2h1v-2h1v-2h1v2h1v2h1v2h1v2h-7Z" transform="translate(-7059.34 -7136)" style="fill:lime"/><path d="M7127,7192h1v-2h1v-2h1v-2h1v2h1v2h1v2h1v2h-7Z" transform="translate(-7059.34 -7136)" style="fill:lime"/><path d="M7145,7184v19h-19v-19h19m1-1h-21v21h21v-21Z" transform="translate(-7059.34 -7136)" style="fill:lime"/><path d="M7224,7193v17h-21v-17h21m1-1h-23v19h23v-19Z" transform="translate(-7059.34 -7136)" style="fill:lime"/><path d="M7289,7177v29h-31v-29h31m1-1h-33v31h33v-31Z" transform="translate(-7059.34 -7136)" style="fill:lime"/><path d="M7140.75,7154.37l-1-.23" transform="translate(-7059.34 -7136)" style="fill:none;stroke:blue;stroke-miterlimit:10"/><path d="M7137.76,7153.71c-34.27-7-29.3,17.33-27.16,24.47" transform="translate(-7059.34 -7136)" style="fill:none;stroke:blue;stroke-miterlimit:10;stroke-dasharray:2.054288148880005,2.054288148880005"/><path d="M7110.91,7179.16c.2.6.33.94.33.94" transform="translate(-7059.34 -7136)" style="fill:none;stroke:blue;stroke-miterlimit:10"/><path d="M7115.11,7202l-.18,1" transform="translate(-7059.34 -7136)" style="fill:none;stroke:blue;stroke-miterlimit:10"/><path d="M7114.6,7205c-5.25,34.67,17.1,31.74,24,30.07" transform="translate(-7059.34 -7136)" style="fill:none;stroke:blue;stroke-miterlimit:10;stroke-dasharray:2.057974338531494,2.057974338531494"/><path d="M7139.55,7234.79c.61-.17.95-.29.95-.29" transform="translate(-7059.34 -7136)" style="fill:none;stroke:blue;stroke-miterlimit:10"/><polyline points="96.3 66.04 95.32 65.84 96.15 65.28" style="fill:none;stroke:blue;stroke-miterlimit:10"/><line x1="97.73" y1="64.23" x2="106.45" y2="58.43" style="fill:none;stroke:blue;stroke-miterlimit:10;stroke-dasharray:1.9031174182891846,1.9031174182891846"/><polyline points="107.24 57.9 108.07 57.35 108.25 58.33" style="fill:none;stroke:blue;stroke-miterlimit:10"/><line x1="108.59" y1="60.25" x2="109.79" y2="66.98" style="fill:none;stroke:blue;stroke-miterlimit:10;stroke-dasharray:1.951674461364746,1.951674461364746"/><polyline points="109.96 67.94 110.13 68.92 109.15 68.72" style="fill:none;stroke:blue;stroke-miterlimit:10"/><line x1="107.32" y1="68.34" x2="97.21" y2="66.23" style="fill:none;stroke:blue;stroke-miterlimit:10;stroke-dasharray:1.8763738870620728,1.8763738870620728"/><path d="M7235.44,7170.83l-.94-.33c-.25.22-.49.45-.73.68" transform="translate(-7059.34 -7136)" style="fill:none;stroke:blue;stroke-miterlimit:10"/><path d="M7232.41,7172.63c-10.86,12.65-5.47,34.47-3.51,41" transform="translate(-7059.34 -7136)" style="fill:none;stroke:blue;stroke-miterlimit:10;stroke-dasharray:1.9878536462783813,1.9878536462783813"/><path d="M7229.19,7214.55c.19.62.31.95.31.95s.36,0,1-.06" transform="translate(-7059.34 -7136)" style="fill:none;stroke:blue;stroke-miterlimit:10"/><path d="M7232.5,7215.27c8.19-.8,30.37-4.3,31-18.77.72-16.6-17.32-22-27.1-25.34" transform="translate(-7059.34 -7136)" style="fill:none;stroke:blue;stroke-miterlimit:10;stroke-dasharray:2.013450860977173,2.013450860977173"/><path d="M7259,7237.34l1-.14" transform="translate(-7059.34 -7136)" style="fill:none;stroke:blue;stroke-miterlimit:10"/><path d="M7261.88,7236.88c29.92-5.39,33.27-28.51,33.6-35.42" transform="translate(-7059.34 -7136)" style="fill:none;stroke:blue;stroke-miterlimit:10;stroke-dasharray:1.9300063848495483,1.9300063848495483"/><path d="M7295.51,7200.5c0-.65,0-1,0-1" transform="translate(-7059.34 -7136)" style="fill:none;stroke:blue;stroke-miterlimit:10"/><path d="M7255.5,7152.5l1,0" transform="translate(-7059.34 -7136)" style="fill:none;stroke:blue;stroke-miterlimit:10"/><path d="M7258.44,7152.64c30.66,2,36,20.75,36.87,26.91" transform="translate(-7059.34 -7136)" style="fill:none;stroke:blue;stroke-miterlimit:10;stroke-dasharray:1.9443950653076172,1.9443950653076172"/><path d="M7295.43,7180.51c.07.63.07,1,.07,1" transform="translate(-7059.34 -7136)" style="fill:none;stroke:blue;stroke-miterlimit:10"/><rect x="50.66" y="44" width="5" height="3" style="fill:blue"/><rect x="171.66" y="33" width="5" height="3" style="fill:blue"/><rect x="201.66" y="59" width="5" height="3" style="fill:blue"/><rect x="193.66" y="15" width="5" height="3" style="fill:blue"/><rect x="233.66" y="44" width="5" height="3" style="fill:blue"/><rect x="233.66" y="62" width="5" height="3" style="fill:blue"/><rect x="198.66" y="100" width="5" height="3" style="fill:blue"/><rect x="259.66" y="112" width="5" height="3" style="fill:blue"/><rect x="166.66" y="78" width="5" height="3" style="fill:blue"/><rect x="107.66" y="69" width="5" height="3" style="fill:blue"/><rect x="104.66" y="55" width="5" height="3" style="fill:blue"/><rect x="91.66" y="64" width="5" height="3" style="fill:blue"/><rect x="78.66" y="18" width="5" height="3" style="fill:blue"/><rect x="53.66" y="64" width="5" height="3" style="fill:blue"/><rect x="78.66" y="97" width="5" height="3" style="fill:blue"/><rect x="259.16" y="87.5" width="11" height="11" style="fill:none;stroke:lime;stroke-miterlimit:10"/><line x1="270.66" y1="113" x2="269.66" y2="113" style="fill:none;stroke:blue;stroke-miterlimit:10;stroke-width:2px"/><line x1="267.32" y1="113" x2="263.82" y2="113" style="fill:none;stroke:blue;stroke-miterlimit:10;stroke-width:2px;stroke-dasharray:2.3333332538604736,2.3333332538604736"/><line x1="262.66" y1="113" x2="261.66" y2="113" style="fill:none;stroke:blue;stroke-miterlimit:10;stroke-width:2px"/></g><g id="names-border"><g id="outline"><path d="M7187.52,7148.57h-1.2v-6h-3.59v3.59h-1.2v-3.59h-2.39v-1.19h2.39V7139h1.2v2.39h4.79Zm-8.38,0h1.2v1.18h-1.2Zm1.2-2.39h1.19v2.39h-1.19Zm6,3.57h-3.59v-1.18h3.59Z" transform="translate(-7059.34 -7136)" style="fill:blue;stroke:#fff;stroke-miterlimit:10;stroke-width:3px"/><path d="M7199.54,7143.78h-1.2v-2.38h-7.18v-1.2h8.38Zm-4.79,6h-2.39v-1.18h2.39Zm0-2.38h1.2v1.2h-1.2Zm1.2-1.19h1.19v1.19H7196Zm1.19-2.4h1.2v2.4h-1.2Z" transform="translate(-7059.34 -7136)" style="fill:blue;stroke:#fff;stroke-miterlimit:10;stroke-width:3px"/><path d="M7210.36,7143.78H7208v3.59h3.59v1.2h-8.38v-1.2h3.59v-3.59h-2.39v-1.19h6Z" transform="translate(-7059.34 -7136)" style="fill:blue;stroke:#fff;stroke-miterlimit:10;stroke-width:3px"/><path d="M7224.78,7143.78h-3.6v3.59H7220v-3.59h-4.79v-1.19h9.58Zm-1.2-2.38h-7.18v-1.2h7.18Zm-6,7.17h1.2v1.18h-1.2Zm1.2-1.2h1.2v1.2h-1.2Z" transform="translate(-7059.34 -7136)" style="fill:blue;stroke:#fff;stroke-miterlimit:10;stroke-width:3px"/><path d="M7228.42,7140.2h1.19v6h-1.19Zm2.39,8.37h2.39v1.18h-2.39Zm2.39-1.2h1.2v1.2h-1.2Zm1.2-8.36h1.2v8.36h-1.2Z" transform="translate(-7059.34 -7136)" style="fill:blue;stroke:#fff;stroke-miterlimit:10;stroke-width:3px"/><path d="M7247.62,7142.59h-1.2v-1.19h-7.18v-1.2h8.38Zm-7.19,6h1.2v1.18h-1.2Zm1.2-1.2h1.2v1.2h-1.2Zm1.2-4.78h1.2v1.19h1.19v1.2H7244v2.39h-1.2Zm2.39,0h1.2v1.19h-1.2Z" transform="translate(-7059.34 -7136)" style="fill:blue;stroke:#fff;stroke-miterlimit:10;stroke-width:3px"/><path d="M7260,7164.68h-1.2v-4.78h-6v3.58h-1.2v-4.78h3.59v-1.19h1.2v1.19H7260Zm-3.59,3.57H7254v-1.18h2.4Zm0-2.38h1.2v1.2h-1.2Zm1.2-1.19h1.19v1.19h-1.19Z" transform="translate(-7059.34 -7136)" style="fill:blue;stroke:#fff;stroke-miterlimit:10;stroke-width:3px"/><path d="M7270.85,7162.28h-2.39v3.59h3.59v1.2h-8.38v-1.2h3.59v-3.59h-2.39v-1.19h6Z" transform="translate(-7059.34 -7136)" style="fill:blue;stroke:#fff;stroke-miterlimit:10;stroke-width:3px"/><path d="M7281.67,7157.51h3.6v3.58h-6v7.16h-1.2v-7.16h-3.59v-1.19h3.59v-2.39h1.2v2.39h2.39Zm-7.18,7.17h1.2v2.39h-1.2Zm1.2-2.4h1.2v2.4h-1.2Zm6,2.4h-1.19v-2.4h1.19v2.4h1.2v2.39h-1.2Zm2.4-6h-1.2v1.2h1.2Z" transform="translate(-7059.34 -7136)" style="fill:blue;stroke:#fff;stroke-miterlimit:10;stroke-width:3px"/><path d="M7290.1,7159.9h-2.39v-1.2h2.39v1.2h1.2v1.19h-1.2Zm-1.19,7.17h2.39v1.18h-2.39Zm4.78,0h-2.39v-1.2h2.39Zm0-2.39h1.2v1.19h-1.2Zm1.2-2.4h1.2v2.4h-1.2Zm1.2-2.38h1.2v2.38h-1.2Z" transform="translate(-7059.34 -7136)" style="fill:blue;stroke:#fff;stroke-miterlimit:10;stroke-width:3px"/><path d="M7298.53,7167.07h2.39v1.18h-2.39Zm7.18-3.59h-1.19v-2.39h-4.79v-1.19h6Zm-4.79,2.39h1.2v1.2h-1.2Zm1.2-1.19h1.2v1.19h-1.2Zm4.79,2.39h-1.2v-1.2h-1.19v-1.19h-1.2v-1.2h1.2v1.2h1.19v1.19h1.2v1.2h1.2v1.18h-1.2Zm-1.2-9.56h1.2v2.39h-1.2Zm2.4,0h1.2v2.39h-1.2Z" transform="translate(-7059.34 -7136)" style="fill:blue;stroke:#fff;stroke-miterlimit:10;stroke-width:3px"/><path d="M7294.21,7188.09h-3.59v4.79h-1.2v-4.79h-4.79v-1.19h4.79v-2.39h1.2v2.39h3.59Zm-7.19,6h1.2v1.18H7287Zm1.2-1.19h1.2v1.19h-1.2Z" transform="translate(-7059.34 -7136)" style="fill:blue;stroke:#fff;stroke-miterlimit:10;stroke-width:3px"/><path d="M7301.44,7189.28h-3.59v4.79h6v1.18h-6v-1.18h-1.2v-9.56h1.2v3.58h3.59Zm0-2.38h1.19v-2.39h1.2v3.58h-2.39Zm3.59-2.39h1.2v2.39H7305Z" transform="translate(-7059.34 -7136)" style="fill:blue;stroke:#fff;stroke-miterlimit:10;stroke-width:3px"/><path d="M7307.47,7189.28h1.2v1.21h-1.2Zm1.2-1.19h1.2v1.19h-1.2Zm6-3.58h1.2v2.39h1.2v1.19h-2.4v3.59h-1.19v-3.59h-3.59v-3.58h1.19v2.39h3.59Zm-4.78,9.56h1.19v1.18h-1.19Zm1.19-1.19h1.2v1.19h-1.2Zm1.2-1.2h1.2v1.2h-1.2Zm4.79-7.17h1.2v2.39h-1.2Z" transform="translate(-7059.34 -7136)" style="fill:blue;stroke:#fff;stroke-miterlimit:10;stroke-width:3px"/><path d="M7329.07,7190.49h-8.38v-1.21h8.38Z" transform="translate(-7059.34 -7136)" style="fill:blue;stroke:#fff;stroke-miterlimit:10;stroke-width:3px"/><path d="M7333.9,7189.28h-1.19v-1.19h1.19v1.19h1.2v1.21h-1.2Zm1.2-2.38h-1.2v-1.2h1.2v1.2h1.2v1.19h-1.2Zm-1.2,7.17h2.4v1.18h-2.4Zm2.4-1.19h2.39v1.19h-2.39Zm2.39-1.2h1.2v1.2h-1.2Zm1.2-1.19h1.2v1.19h-1.2Zm1.2-2.4h1.2v2.4h-1.2Z" transform="translate(-7059.34 -7136)" style="fill:blue;stroke:#fff;stroke-miterlimit:10;stroke-width:3px"/><path d="M7351.91,7195.25h-6v-1.18h4.79v-2.39h-4.79v-1.19h4.79v-1.21h-4.79v-1.19h6Z" transform="translate(-7059.34 -7136)" style="fill:blue;stroke:#fff;stroke-miterlimit:10;stroke-width:3px"/><path d="M7359.14,7186.9h-2.39v-1.2h2.39v1.2h1.2v1.19h-1.2Zm-1.2,7.17h2.4v1.18h-2.4Zm4.79,0h-2.39v-1.19h2.39Zm0-2.39h1.2v1.2h-1.2Zm1.2-2.4h1.2v2.4h-1.2Zm1.2-2.38h1.19v2.38h-1.19Z" transform="translate(-7059.34 -7136)" style="fill:blue;stroke:#fff;stroke-miterlimit:10;stroke-width:3px"/><path d="M7222.38,7206.09h-1.17v-1.19h-7v-1.2h8.18Zm-7,6h1.17v1.18h-1.17Zm1.17-1.19h1.17v1.19h-1.17Zm1.17-4.79h1.17v1.19H7220v1.2h-1.16v2.4h-1.17Zm2.33,0h1.17v1.19H7220Z" transform="translate(-7059.34 -7136)" style="fill:blue;stroke:#fff;stroke-miterlimit:10;stroke-width:3px"/><path d="M7232.94,7208.48h-2.34v-1.2h-2.33v6h-1.17v-10.74h1.17v3.58h2.33v1.19h2.34Zm-2.34-6h1.17v2.39h-1.17Zm2.34,0h1.17v2.39h-1.17Z" transform="translate(-7059.34 -7136)" style="fill:blue;stroke:#fff;stroke-miterlimit:10;stroke-width:3px"/><path d="M7242.33,7203.7h2.34v1.2h-2.34v-1.2h-3.5v-1.19h3.5Zm0,3.58h2.34v1.2h-2.34v-1.2h-3.5v-1.19h3.5Zm1.17,4.79h2.33v1.18h-2.33v-1.18h-4.67v-1.19h4.67Z" transform="translate(-7059.34 -7136)" style="fill:blue;stroke:#fff;stroke-miterlimit:10;stroke-width:3px"/><path d="M7251.72,7204.9h-2.34v-1.2h2.34v1.2h1.17v1.19h-1.17Zm-1.17,7.17h2.34v1.18h-2.34Zm4.68,0h-2.34v-1.19h2.34Zm0-2.39h1.16v1.2h-1.16Zm1.16-2.4h1.17v2.4h-1.17Zm1.17-2.38h1.17v2.38h-1.17Z" transform="translate(-7059.34 -7136)" style="fill:blue;stroke:#fff;stroke-miterlimit:10;stroke-width:3px"/><path d="M7259.86,7225.28h-1.2v-1.19h1.2v1.19h1.19v1.21h-1.19Zm1.19-2.38h-1.19v-1.2h1.19v1.2h1.2v1.19h-1.2Zm-1.19,7.17h2.39v1.18h-2.39Zm2.39-1.19h2.39v1.19h-2.39Zm2.39-1.2h1.2v1.2h-1.2Zm1.2-1.19h1.2v1.19h-1.2Zm1.2-2.4h1.2v2.4H7267Z" transform="translate(-7059.34 -7136)" style="fill:blue;stroke:#fff;stroke-miterlimit:10;stroke-width:3px"/><path d="M7279.06,7226.49h-8.38v-1.21h8.38Z" transform="translate(-7059.34 -7136)" style="fill:blue;stroke:#fff;stroke-miterlimit:10;stroke-width:3px"/><path d="M7282.7,7230.07h1.19v1.18h-1.19Zm1.19-8.37h1.2v8.37h-1.2Zm3.6-1.19h1.19v8.37h1.2v1.19h-1.2v1.18h-1.19Zm2.39,7.17h1.2v1.2h-1.2Zm1.2-2.4h1.2v2.4h-1.2Z" transform="translate(-7059.34 -7136)" style="fill:blue;stroke:#fff;stroke-miterlimit:10;stroke-width:3px"/><path d="M7301.9,7226.49h-2.39v-1.21h-2.4v6h-1.2v-10.74h1.2v3.58h2.4v1.19h2.39Zm-2.39-6h1.19v2.39h-1.19Zm2.39,0h1.2v2.39h-1.2Z" transform="translate(-7059.34 -7136)" style="fill:blue;stroke:#fff;stroke-miterlimit:10;stroke-width:3px"/><path d="M7197.49,7251.21h-8.38V7250h7.18v-4.78h-7.18V7244h8.38Z" transform="translate(-7059.34 -7136)" style="fill:blue;stroke:#fff;stroke-miterlimit:10;stroke-width:3px"/><path d="M7205.92,7242.84h2.39v1.2h-2.39v-1.2h-3.6v-1.19h3.6Zm0,3.58h2.39v1.2h-2.39v-1.2h-3.6v-1.19h3.6Zm1.19,4.79h2.4v1.18h-2.4v-1.18h-4.79V7250h4.79Z" transform="translate(-7059.34 -7136)" style="fill:blue;stroke:#fff;stroke-miterlimit:10;stroke-width:3px"/><path d="M7219.13,7250h2.4v1.2h-8.38V7250h4.79v-3.59h-3.6v-1.19h4.79Z" transform="translate(-7059.34 -7136)" style="fill:blue;stroke:#fff;stroke-miterlimit:10;stroke-width:3px"/><path d="M7234.74,7251.21h-9.57V7250h9.57Zm-1.19-7.17h-7.19v-1.2h7.19Z" transform="translate(-7059.34 -7136)" style="fill:blue;stroke:#fff;stroke-miterlimit:10;stroke-width:3px"/><path d="M7237.19,7246.42h1.19v1.2h-1.19Zm1.19-1.19h1.2v1.19h-1.2Zm8.38,0h-2.39v3.59h-1.2v-3.59h-3.59v-3.58h1.2V7244h6Zm-7.18,6h1.2v1.18h-1.2Zm1.2-1.2H7242v1.2h-1.19Zm1.19-1.19h1.2V7250H7242Z" transform="translate(-7059.34 -7136)" style="fill:blue;stroke:#fff;stroke-miterlimit:10;stroke-width:3px"/><path d="M7257.59,7247.62h-8.38v-1.2h8.38Z" transform="translate(-7059.34 -7136)" style="fill:blue;stroke:#fff;stroke-miterlimit:10;stroke-width:3px"/><path d="M7262.42,7246.42h-1.2v-1.19h1.2v1.19h1.2v1.2h-1.2Zm1.2-2.38h-1.2v-1.2h1.2v1.2h1.2v1.19h-1.2Zm-1.2,7.17h2.4v1.18h-2.4Zm2.4-1.2h2.39v1.2h-2.39Zm2.39-1.19h1.2V7250h-1.2Zm1.2-1.2h1.2v1.2h-1.2Zm1.2-2.39h1.19v2.39h-1.19Z" transform="translate(-7059.34 -7136)" style="fill:blue;stroke:#fff;stroke-miterlimit:10;stroke-width:3px"/><path d="M7280.43,7252.39h-6v-1.18h4.79v-2.39h-4.79v-1.2h4.79v-1.2h-4.79v-1.19h6Z" transform="translate(-7059.34 -7136)" style="fill:blue;stroke:#fff;stroke-miterlimit:10;stroke-width:3px"/><path d="M7287.66,7244h-2.4v-1.2h2.4v1.2h1.2v1.19h-1.2Zm-1.2,7.17h2.4v1.18h-2.4Zm4.79,0h-2.39V7250h2.39Zm0-2.39h1.2V7250h-1.2Zm1.2-2.4h1.19v2.4h-1.19Zm1.19-2.38h1.2v2.38h-1.2Z" transform="translate(-7059.34 -7136)" style="fill:blue;stroke:#fff;stroke-miterlimit:10;stroke-width:3px"/><path d="M7165,7237.26h-2.39v-1.19H7165Zm4.79-8.36h-6v-1.19H7171v2.39h-1.2Zm-4.79,6h1.2v1.19H7165Zm1.2-1.2h1.2v1.2h-1.2Zm4.79,2.39h-1.2v-1.19h-1.2v-1.2h-1.19v-1.19h1.19v1.19h1.2v1.2h1.2v1.19h1.2v1.19H7171Zm-2.4-6h1.2v2.39h-1.2Z" transform="translate(-7059.34 -7136)" style="fill:blue;stroke:#fff;stroke-miterlimit:10;stroke-width:3px"/><path d="M7183.05,7232.49h-2.4v-1.21h-2.39v6h-1.2v-10.75h1.2v3.59h2.39v1.18h2.4Z" transform="translate(-7059.34 -7136)" style="fill:blue;stroke:#fff;stroke-miterlimit:10;stroke-width:3px"/><path d="M7189.08,7226.51h1.2v9.56h1.2v1.19h-2.4Zm2.4,8.37h2.39v1.19h-2.39Zm2.39-1.2h1.2v1.2h-1.2Zm1.2-1.19h1.2v1.19h-1.2Z" transform="translate(-7059.34 -7136)" style="fill:blue;stroke:#fff;stroke-miterlimit:10;stroke-width:3px"/><path d="M7207.09,7232.49h-8.38v-1.21h8.38Z" transform="translate(-7059.34 -7136)" style="fill:blue;stroke:#fff;stroke-miterlimit:10;stroke-width:3px"/><path d="M7211.92,7231.28h-1.19v-1.18h1.19v1.18h1.2v1.21h-1.2Zm1.2-2.38h-1.2v-1.19h1.2v1.19h1.2v1.2h-1.2Zm1.2,8.36h-2.4v-1.19h2.4Zm0-2.38h2.39v1.19h-2.39Zm2.39-8.37h1.2v2.39h-1.2Zm0,7.17h1.2v1.2h-1.2Zm1.2-1.19h1.2v1.19h-1.2Zm1.2-6h1.2v2.39h-1.2Zm0,4.77h1.2v1.21h-1.2Z" transform="translate(-7059.34 -7136)" style="fill:blue;stroke:#fff;stroke-miterlimit:10;stroke-width:3px"/><path d="M7133,7212.9h-3.59v6h4.79v1.19h-9.58v-1.19h3.59v-6h-2.4v-1.19H7133Z" transform="translate(-7059.34 -7136)" style="fill:blue;stroke:#fff;stroke-miterlimit:10;stroke-width:3px"/><path d="M7139,7210.51h1.2v9.56h1.2v1.19H7139Zm2.4,8.37h2.39v1.19h-2.39Zm2.39-1.2h1.2v1.2h-1.2Zm1.2-1.19h1.2v1.19H7145Z" transform="translate(-7059.34 -7136)" style="fill:blue;stroke:#fff;stroke-miterlimit:10;stroke-width:3px"/><path d="M7148.67,7215.28h1.19v1.21h-1.19Zm1.19-1.18h1.2v1.18h-1.2Zm0,6h2.4v1.19h-2.4Zm7.19-4.79h-1.2v-2.38h-3.59v1.2h-1.2v-3.59h1.2v1.2h4.79Zm-4.79,3.6h1.2v1.19h-1.2Zm1.2-1.2h1.19v1.2h-1.19Zm1.19-2.4h1.2v2.4h-1.2Z" transform="translate(-7059.34 -7136)" style="fill:blue;stroke:#fff;stroke-miterlimit:10;stroke-width:3px"/><path d="M7169.07,7216.49h-2.4v-1.21h-2.39v6h-1.2v-10.75h1.2v3.59h2.39v1.18h2.4Z" transform="translate(-7059.34 -7136)" style="fill:blue;stroke:#fff;stroke-miterlimit:10;stroke-width:3px"/><path d="M7173.9,7211.71h1.2v6h-1.2Zm2.4,8.36h2.39v1.19h-2.39Zm2.39-1.19h1.2v1.19h-1.2Zm1.2-8.37h1.2v8.37h-1.2Z" transform="translate(-7059.34 -7136)" style="fill:blue;stroke:#fff;stroke-miterlimit:10;stroke-width:3px"/><path d="M7193.11,7220.07h-1.2v-6h-3.59v3.58h-1.2v-3.58h-2.39v-1.2h2.39v-2.39h1.2v2.39h4.79Zm-8.38,0h1.19v1.19h-1.19Zm1.19-2.39h1.2v2.39h-1.2Zm6,3.58h-3.59v-1.19h3.59Z" transform="translate(-7059.34 -7136)" style="fill:blue;stroke:#fff;stroke-miterlimit:10;stroke-width:3px"/><path d="M7196.75,7220.07h1.19v1.19h-1.19Zm1.19-8.36h1.2v8.36h-1.2Zm3.6-1.2h1.19v8.37h1.2v1.19h-1.2v1.19h-1.19Zm2.39,7.17h1.2v1.2h-1.2Zm1.2-2.4h1.2v2.4h-1.2Z" transform="translate(-7059.34 -7136)" style="fill:blue;stroke:#fff;stroke-miterlimit:10;stroke-width:3px"/><path d="M7153.09,7180.25h-2.39v-1.18h2.39Zm4.78-2.37h-1.2v-1.2h-1.19v-1.19h-1.2v-1.21h-1.19v-1.19h1.19v1.19h1.2v1.21h1.19v1.19h1.2v1.2h1.19v1.19h-1.19Zm-4.78,0h1.19v1.19h-1.19Zm1.19-1.2h1.2v1.2h-1.2Zm2.39-3.59h1.2v2.4h-1.2Zm1.2-3.58h1.19v3.58h-1.19Z" transform="translate(-7059.34 -7136)" style="fill:blue;stroke:#fff;stroke-miterlimit:10;stroke-width:3px"/><path d="M7169.87,7175.49h-2.39v-1.21h-2.39v6h-1.2v-10.74h1.2v3.58h2.39v1.19h2.39Zm-2.39-6h1.19v2.39h-1.19Zm2.39,0h1.19v2.39h-1.19Z" transform="translate(-7059.34 -7136)" style="fill:blue;stroke:#fff;stroke-miterlimit:10;stroke-width:3px"/><path d="M7174.7,7175.49h1.19v1.19h-1.19Zm1.19-2.4h1.2v2.4h-1.2Zm7.17,4.79h-1.19v-1.2h-1.2v-1.19h-1.19v-1.21h-1.2v-1.19h-1.19v-1.19h1.19v1.19h1.2v1.19h1.19v1.21h1.2v1.19h1.19v1.2h1.2v1.19h-1.2Zm-2.39-7.18h1.2v2.39h-1.2Zm2.39,0h1.2v2.39h-1.2Z" transform="translate(-7059.34 -7136)" style="fill:blue;stroke:#fff;stroke-miterlimit:10;stroke-width:3px"/><path d="M7186.7,7175.49h2.39v1.19h-2.39Zm2.39-1.21h1.19v1.21h-1.19Zm2.39,0h-1.2v-1.19h1.2v-1.19h1.19v8.35h-1.19Zm1.19-3.58h1.2v1.2h-1.2Zm1.2-1.19h1.19v1.19h-1.19Z" transform="translate(-7059.34 -7136)" style="fill:blue;stroke:#fff;stroke-miterlimit:10;stroke-width:3px"/><path d="M7128.23,7197.07H7127v-4.79h-2.39v-1.19H7127v-3.58h1.2v3.58h1.2v1.19h-1.2v4.79h6v1.18h-6Zm6-4.79H7133v-1.19h-3.59v-1.19h4.79Zm-3.6,1.21h1.2v1.19h-1.2Zm1.2-1.21h1.2v1.21h-1.2Z" transform="translate(-7059.34 -7136)" style="fill:blue;stroke:#fff;stroke-miterlimit:10;stroke-width:3px"/><path d="M7145,7191.09h-3.59v2.4H7145v1.19h-2.4v3.57h-1.19v-3.57h-4.79v-1.19h3.59v-2.4h-3.59v-1.19h3.59v-2.39h1.2v2.39H7145Z" transform="translate(-7059.34 -7136)" style="fill:blue;stroke:#fff;stroke-miterlimit:10;stroke-width:3px"/><path d="M7154.66,7195.88h2.4v1.19h-8.38v-1.19h4.79v-3.6h-3.6v-1.19h4.79Z" transform="translate(-7059.34 -7136)" style="fill:blue;stroke:#fff;stroke-miterlimit:10;stroke-width:3px"/><path d="M7161.89,7188.7h1.2v6h-1.2Zm2.4,8.37h2.39v1.18h-2.39Zm2.39-1.19h1.2v1.19h-1.2Zm1.2-8.37h1.2v8.37h-1.2Z" transform="translate(-7059.34 -7136)" style="fill:blue;stroke:#fff;stroke-miterlimit:10;stroke-width:3px"/><path d="M7182.3,7192.28h-3.6v3.6h-1.19v-3.6h-4.79v-1.19h9.58Zm-1.2-2.38h-7.19v-1.2h7.19Zm-6,7.17h1.2v1.18h-1.2Zm1.2-1.19h1.2v1.19h-1.2Z" transform="translate(-7059.34 -7136)" style="fill:blue;stroke:#fff;stroke-miterlimit:10;stroke-width:3px"/><path d="M7188.33,7194.68h-2.4v-1.19h2.4Zm2.39,3.57h-1.19v-4.76h-1.2v-1.21h2.39Zm0-7.16h1.2v1.19h-1.2Zm1.2-1.19h1.2v1.19h-1.2Z" transform="translate(-7059.34 -7136)" style="fill:blue;stroke:#fff;stroke-miterlimit:10;stroke-width:3px"/><path d="M7060.84,7189.7h1.2v6h-1.2Zm2.4,8.37h2.39v1.18h-2.39Zm2.39-1.19h1.2v1.19h-1.2Zm1.2-8.37h1.2v8.37h-1.2Z" transform="translate(-7059.34 -7136)" style="fill:blue;stroke:#fff;stroke-miterlimit:10;stroke-width:3px"/><path d="M7080.05,7192.09h-1.2v-1.19h-7.18v-1.2h8.38Zm-7.19,6h1.2v1.18h-1.2Zm1.2-1.19h1.2v1.19h-1.2Zm1.2-4.79h1.2v1.19h1.19v1.2h-1.19v2.4h-1.2Zm2.39,0h1.2v1.19h-1.2Z" transform="translate(-7059.34 -7136)" style="fill:blue;stroke:#fff;stroke-miterlimit:10;stroke-width:3px"/><path d="M7083.69,7193.28h1.19v1.2h-1.19Zm1.19-1.19h1.2v1.19h-1.2Zm0,6h2.4v1.18h-2.4Zm7.19-4.79h-1.2v-2.38h-3.59v1.19h-1.2v-3.58h1.2v1.19h4.79Zm-4.79,3.6h1.2v1.19h-1.2Zm1.2-1.2h1.19v1.2h-1.19Zm1.19-2.4h1.2v2.4h-1.2Z" transform="translate(-7059.34 -7136)" style="fill:blue;stroke:#fff;stroke-miterlimit:10;stroke-width:3px"/><path d="M7095.71,7193.28h1.19v1.2h-1.19Zm4.79,1.2h1.19v-1.2h1.2v2.4h-1.2v1.2h-1.19v-2.4h-2.4v-1.2h-1.2v-1.19h1.2v1.19h2.4Zm-3.6,3.59h2.4v1.18h-2.4Zm7.19-4.79h-1.2v-2.38h-3.59v1.19h-1.2v-3.58h1.2v1.19h4.79Zm-4.79,3.6h1.2v1.19h-1.2Z" transform="translate(-7059.34 -7136)" style="fill:blue;stroke:#fff;stroke-miterlimit:10;stroke-width:3px"/><path d="M7116.11,7194.48h-8.38v-1.2h8.38Z" transform="translate(-7059.34 -7136)" style="fill:blue;stroke:#fff;stroke-miterlimit:10;stroke-width:3px"/><path d="M7100,7163.09h-1.2v-1.19h-7.18v-1.2H7100Zm-7.19,6h1.2v1.18h-1.2Zm1.2-1.2h1.2v1.2h-1.2Zm1.2-4.78h1.2v1.19h1.19v1.2h-1.19v2.39h-1.2Zm2.39,0h1.2v1.19h-1.2Z" transform="translate(-7059.34 -7136)" style="fill:blue;stroke:#fff;stroke-miterlimit:10;stroke-width:3px"/><path d="M7104.87,7163.09h1.2v2.39h-1.2Zm3.6,7.16h-2.4v-1.18h2.4Zm-1.2-7.16h1.2v2.39h-1.2Zm1.2,4.78h1.19v1.2h-1.19Zm1.19-1.19h1.2v1.19h-1.2Zm1.2-3.59h1.2v3.59h-1.2Z" transform="translate(-7059.34 -7136)" style="fill:blue;stroke:#fff;stroke-miterlimit:10;stroke-width:3px"/><path d="M7114.5,7167.87h1.2v1.2h-1.2Zm1.2-2.39h1.19v2.39h-1.19Zm1.19-3.58h1.2v3.58h-1.2Zm6,3.58h-1.2v-2.39h-1.19v-1.19h1.19v-2.39h3.6v3.58h-2.4v2.39h1.2v3.59h-1.2Zm1.2-4.78h-1.2v1.2h1.2Z" transform="translate(-7059.34 -7136)" style="fill:blue;stroke:#fff;stroke-miterlimit:10;stroke-width:3px"/><path d="M7136.1,7165.48h-8.38v-1.2h8.38Z" transform="translate(-7059.34 -7136)" style="fill:blue;stroke:#fff;stroke-miterlimit:10;stroke-width:3px"/><path d="M7110.55,7235.21h-8.38v-8.37h8.38Zm-1.2-7.17h-6v6h6Z" transform="translate(-7059.34 -7136)" style="fill:blue;stroke:#fff;stroke-miterlimit:10;stroke-width:3px"/><path d="M7122.57,7232.82h-1.2V7228h-6v3.58h-1.2v-4.78h8.38Zm-3.59,3.57h-2.4v-1.18h2.4Zm0-2.38h1.19v1.2H7119Zm1.19-1.19h1.2V7234h-1.2Z" transform="translate(-7059.34 -7136)" style="fill:blue;stroke:#fff;stroke-miterlimit:10;stroke-width:3px"/><path d="M7134.59,7231.62h-8.38v-1.2h8.38Z" transform="translate(-7059.34 -7136)" style="fill:blue;stroke:#fff;stroke-miterlimit:10;stroke-width:3px"/><path d="M7217.57,7183.09h-2.34v7.16h-3.5v-1.18h2.33v-4.79h-1.16v-1.19h-4.67v-1.19h5.83v-2.39h1.17v2.39h2.34Zm-7,4.78h-2.33v-1.19h2.33Zm0-2.39h1.17v1.2h-1.17Zm1.17-1.2h1.17v1.2h-1.17Z" transform="translate(-7059.34 -7136)" style="fill:blue;stroke:#fff;stroke-miterlimit:10;stroke-width:3px"/><path d="M7228.12,7185.48H7220v-1.2h8.17Z" transform="translate(-7059.34 -7136)" style="fill:blue;stroke:#fff;stroke-miterlimit:10;stroke-width:3px"/><path d="M7232.83,7183.09h-1.16v-1.19h1.16v1.19H7234v2.39h-1.17Zm2.34-1.19H7234v-1.2h1.17v1.2h1.17v2.38h-1.17Zm-1.17,7.17h2.34v1.18H7234Zm2.34-1.2h1.16v1.2h-1.16Zm1.16-1.19h1.17v1.19h-1.17Zm1.17-2.4h1.17v2.4h-1.17Zm1.17-3.58H7241v3.58h-1.17Z" transform="translate(-7059.34 -7136)" style="fill:blue;stroke:#fff;stroke-miterlimit:10;stroke-width:3px"/><path d="M7251.56,7185.48h-8.17v-1.2h8.17Z" transform="translate(-7059.34 -7136)" style="fill:blue;stroke:#fff;stroke-miterlimit:10;stroke-width:3px"/><path d="M7342,7233.28h-1.19v-6h-3.6v3.59H7336v-3.59h-2.4v-1.19h2.4v-2.39h1.19v2.39H7342Zm-8.38,0h1.2v1.18h-1.2Zm1.2-2.39h1.2v2.39h-1.2Zm6,3.57h-3.6v-1.18h3.6Z" transform="translate(-7059.34 -7136)" style="stroke:#fff;stroke-miterlimit:10;stroke-width:3px"/><path d="M7348.05,7234.46h-2.4v-1.18h2.4Zm4.78-2.37h-1.19v-1.2h-1.2v-1.19h-1.2v-1.21h-1.19v-1.19h1.19v1.19h1.2v1.21h1.2v1.19h1.19v1.2h1.2v1.19h-1.2Zm-4.78,0h1.19v1.19h-1.19Zm1.19-1.2h1.2v1.2h-1.2Zm2.4-3.59h1.19v2.4h-1.19Zm1.19-3.58h1.2v3.58h-1.2Z" transform="translate(-7059.34 -7136)" style="stroke:#fff;stroke-miterlimit:10;stroke-width:3px"/><path d="M7366.05,7230.89h-1.2v-2.4h-7.18v-1.19h8.38Zm-7.18-7.17h6v1.19h-6Zm1.2,9.56h2.39v1.18h-2.39Zm2.39-1.19h1.2v1.19h-1.2Zm1.2-1.2h1.19v1.2h-1.19Z" transform="translate(-7059.34 -7136)" style="stroke:#fff;stroke-miterlimit:10;stroke-width:3px"/><path d="M7333.66,7247.7h1.19v1.19h-1.19Zm1.19-2.39h1.2v2.39h-1.2Zm7.19,4.78h-1.2v-1.2h-1.2v-1.19h-1.19v-1.21h-1.2v-1.18h-1.2v-1.2h1.2v1.2h1.2v1.18h1.19v1.21h1.2v1.19h1.2v1.2h1.2v1.19H7342Zm-2.4-7.17h1.2v2.39h-1.2Zm2.4,0h1.2v2.39H7342Z" transform="translate(-7059.34 -7136)" style="stroke:#fff;stroke-miterlimit:10;stroke-width:3px"/><path d="M7348.07,7244.11h-2.39v-1.19h2.39v1.19h1.2v1.2h-1.2Zm-1.2,7.17h2.4v1.19h-2.4Zm4.79,0h-2.39v-1.19h2.39Zm0-2.39h1.2v1.2h-1.2Zm1.2-2.4h1.2v2.4h-1.2Zm1.2-2.38h1.19v2.38h-1.19Z" transform="translate(-7059.34 -7136)" style="stroke:#fff;stroke-miterlimit:10;stroke-width:3px"/><path d="M7366.08,7247.7h-2.4v-1.21h-2.39v6h-1.2v-10.75h1.2v3.59h2.39v1.18h2.4Z" transform="translate(-7059.34 -7136)" style="stroke:#fff;stroke-miterlimit:10;stroke-width:3px"/></g></g><g id="names"><g id="outline-2" data-name="outline"><path d="M7187.52,7148.57h-1.2v-6h-3.59v3.59h-1.2v-3.59h-2.39v-1.19h2.39V7139h1.2v2.39h4.79Zm-8.38,0h1.2v1.18h-1.2Zm1.2-2.39h1.19v2.39h-1.19Zm6,3.57h-3.59v-1.18h3.59Z" transform="translate(-7059.34 -7136)" style="fill:red"/><path d="M7199.54,7143.78h-1.2v-2.38h-7.18v-1.2h8.38Zm-4.79,6h-2.39v-1.18h2.39Zm0-2.38h1.2v1.2h-1.2Zm1.2-1.19h1.19v1.19H7196Zm1.19-2.4h1.2v2.4h-1.2Z" transform="translate(-7059.34 -7136)" style="fill:red"/><path d="M7210.36,7143.78H7208v3.59h3.59v1.2h-8.38v-1.2h3.59v-3.59h-2.39v-1.19h6Z" transform="translate(-7059.34 -7136)" style="fill:red"/><path d="M7224.78,7143.78h-3.6v3.59H7220v-3.59h-4.79v-1.19h9.58Zm-1.2-2.38h-7.18v-1.2h7.18Zm-6,7.17h1.2v1.18h-1.2Zm1.2-1.2h1.2v1.2h-1.2Z" transform="translate(-7059.34 -7136)" style="fill:red"/><path d="M7228.42,7140.2h1.19v6h-1.19Zm2.39,8.37h2.39v1.18h-2.39Zm2.39-1.2h1.2v1.2h-1.2Zm1.2-8.36h1.2v8.36h-1.2Z" transform="translate(-7059.34 -7136)" style="fill:red"/><path d="M7247.62,7142.59h-1.2v-1.19h-7.18v-1.2h8.38Zm-7.19,6h1.2v1.18h-1.2Zm1.2-1.2h1.2v1.2h-1.2Zm1.2-4.78h1.2v1.19h1.19v1.2H7244v2.39h-1.2Zm2.39,0h1.2v1.19h-1.2Z" transform="translate(-7059.34 -7136)" style="fill:red"/><path d="M7260,7164.68h-1.2v-4.78h-6v3.58h-1.2v-4.78h3.59v-1.19h1.2v1.19H7260Zm-3.59,3.57H7254v-1.18h2.4Zm0-2.38h1.2v1.2h-1.2Zm1.2-1.19h1.19v1.19h-1.19Z" transform="translate(-7059.34 -7136)" style="fill:red"/><path d="M7270.85,7162.28h-2.39v3.59h3.59v1.2h-8.38v-1.2h3.59v-3.59h-2.39v-1.19h6Z" transform="translate(-7059.34 -7136)" style="fill:red"/><path d="M7281.67,7157.51h3.6v3.58h-6v7.16h-1.2v-7.16h-3.59v-1.19h3.59v-2.39h1.2v2.39h2.39Zm-7.18,7.17h1.2v2.39h-1.2Zm1.2-2.4h1.2v2.4h-1.2Zm6,2.4h-1.19v-2.4h1.19v2.4h1.2v2.39h-1.2Zm2.4-6h-1.2v1.2h1.2Z" transform="translate(-7059.34 -7136)" style="fill:red"/><path d="M7290.1,7159.9h-2.39v-1.2h2.39v1.2h1.2v1.19h-1.2Zm-1.19,7.17h2.39v1.18h-2.39Zm4.78,0h-2.39v-1.2h2.39Zm0-2.39h1.2v1.19h-1.2Zm1.2-2.4h1.2v2.4h-1.2Zm1.2-2.38h1.2v2.38h-1.2Z" transform="translate(-7059.34 -7136)" style="fill:red"/><path d="M7298.53,7167.07h2.39v1.18h-2.39Zm7.18-3.59h-1.19v-2.39h-4.79v-1.19h6Zm-4.79,2.39h1.2v1.2h-1.2Zm1.2-1.19h1.2v1.19h-1.2Zm4.79,2.39h-1.2v-1.2h-1.19v-1.19h-1.2v-1.2h1.2v1.2h1.19v1.19h1.2v1.2h1.2v1.18h-1.2Zm-1.2-9.56h1.2v2.39h-1.2Zm2.4,0h1.2v2.39h-1.2Z" transform="translate(-7059.34 -7136)" style="fill:red"/><path d="M7294.21,7188.09h-3.59v4.79h-1.2v-4.79h-4.79v-1.19h4.79v-2.39h1.2v2.39h3.59Zm-7.19,6h1.2v1.18H7287Zm1.2-1.19h1.2v1.19h-1.2Z" transform="translate(-7059.34 -7136)" style="fill:red"/><path d="M7301.44,7189.28h-3.59v4.79h6v1.18h-6v-1.18h-1.2v-9.56h1.2v3.58h3.59Zm0-2.38h1.19v-2.39h1.2v3.58h-2.39Zm3.59-2.39h1.2v2.39H7305Z" transform="translate(-7059.34 -7136)" style="fill:red"/><path d="M7307.47,7189.28h1.2v1.21h-1.2Zm1.2-1.19h1.2v1.19h-1.2Zm6-3.58h1.2v2.39h1.2v1.19h-2.4v3.59h-1.19v-3.59h-3.59v-3.58h1.19v2.39h3.59Zm-4.78,9.56h1.19v1.18h-1.19Zm1.19-1.19h1.2v1.19h-1.2Zm1.2-1.2h1.2v1.2h-1.2Zm4.79-7.17h1.2v2.39h-1.2Z" transform="translate(-7059.34 -7136)" style="fill:red"/><path d="M7329.07,7190.49h-8.38v-1.21h8.38Z" transform="translate(-7059.34 -7136)" style="fill:red"/><path d="M7333.9,7189.28h-1.19v-1.19h1.19v1.19h1.2v1.21h-1.2Zm1.2-2.38h-1.2v-1.2h1.2v1.2h1.2v1.19h-1.2Zm-1.2,7.17h2.4v1.18h-2.4Zm2.4-1.19h2.39v1.19h-2.39Zm2.39-1.2h1.2v1.2h-1.2Zm1.2-1.19h1.2v1.19h-1.2Zm1.2-2.4h1.2v2.4h-1.2Z" transform="translate(-7059.34 -7136)" style="fill:red"/><path d="M7351.91,7195.25h-6v-1.18h4.79v-2.39h-4.79v-1.19h4.79v-1.21h-4.79v-1.19h6Z" transform="translate(-7059.34 -7136)" style="fill:red"/><path d="M7359.14,7186.9h-2.39v-1.2h2.39v1.2h1.2v1.19h-1.2Zm-1.2,7.17h2.4v1.18h-2.4Zm4.79,0h-2.39v-1.19h2.39Zm0-2.39h1.2v1.2h-1.2Zm1.2-2.4h1.2v2.4h-1.2Zm1.2-2.38h1.19v2.38h-1.19Z" transform="translate(-7059.34 -7136)" style="fill:red"/><path d="M7222.38,7206.09h-1.17v-1.19h-7v-1.2h8.18Zm-7,6h1.17v1.18h-1.17Zm1.17-1.19h1.17v1.19h-1.17Zm1.17-4.79h1.17v1.19H7220v1.2h-1.16v2.4h-1.17Zm2.33,0h1.17v1.19H7220Z" transform="translate(-7059.34 -7136)" style="fill:red"/><path d="M7232.94,7208.48h-2.34v-1.2h-2.33v6h-1.17v-10.74h1.17v3.58h2.33v1.19h2.34Zm-2.34-6h1.17v2.39h-1.17Zm2.34,0h1.17v2.39h-1.17Z" transform="translate(-7059.34 -7136)" style="fill:red"/><path d="M7242.33,7203.7h2.34v1.2h-2.34v-1.2h-3.5v-1.19h3.5Zm0,3.58h2.34v1.2h-2.34v-1.2h-3.5v-1.19h3.5Zm1.17,4.79h2.33v1.18h-2.33v-1.18h-4.67v-1.19h4.67Z" transform="translate(-7059.34 -7136)" style="fill:red"/><path d="M7251.72,7204.9h-2.34v-1.2h2.34v1.2h1.17v1.19h-1.17Zm-1.17,7.17h2.34v1.18h-2.34Zm4.68,0h-2.34v-1.19h2.34Zm0-2.39h1.16v1.2h-1.16Zm1.16-2.4h1.17v2.4h-1.17Zm1.17-2.38h1.17v2.38h-1.17Z" transform="translate(-7059.34 -7136)" style="fill:red"/><path d="M7259.86,7225.28h-1.2v-1.19h1.2v1.19h1.19v1.21h-1.19Zm1.19-2.38h-1.19v-1.2h1.19v1.2h1.2v1.19h-1.2Zm-1.19,7.17h2.39v1.18h-2.39Zm2.39-1.19h2.39v1.19h-2.39Zm2.39-1.2h1.2v1.2h-1.2Zm1.2-1.19h1.2v1.19h-1.2Zm1.2-2.4h1.2v2.4H7267Z" transform="translate(-7059.34 -7136)" style="fill:red"/><path d="M7279.06,7226.49h-8.38v-1.21h8.38Z" transform="translate(-7059.34 -7136)" style="fill:red"/><path d="M7282.7,7230.07h1.19v1.18h-1.19Zm1.19-8.37h1.2v8.37h-1.2Zm3.6-1.19h1.19v8.37h1.2v1.19h-1.2v1.18h-1.19Zm2.39,7.17h1.2v1.2h-1.2Zm1.2-2.4h1.2v2.4h-1.2Z" transform="translate(-7059.34 -7136)" style="fill:red"/><path d="M7301.9,7226.49h-2.39v-1.21h-2.4v6h-1.2v-10.74h1.2v3.58h2.4v1.19h2.39Zm-2.39-6h1.19v2.39h-1.19Zm2.39,0h1.2v2.39h-1.2Z" transform="translate(-7059.34 -7136)" style="fill:red"/><path d="M7197.49,7251.21h-8.38V7250h7.18v-4.78h-7.18V7244h8.38Z" transform="translate(-7059.34 -7136)" style="fill:red"/><path d="M7205.92,7242.84h2.39v1.2h-2.39v-1.2h-3.6v-1.19h3.6Zm0,3.58h2.39v1.2h-2.39v-1.2h-3.6v-1.19h3.6Zm1.19,4.79h2.4v1.18h-2.4v-1.18h-4.79V7250h4.79Z" transform="translate(-7059.34 -7136)" style="fill:red"/><path d="M7219.13,7250h2.4v1.2h-8.38V7250h4.79v-3.59h-3.6v-1.19h4.79Z" transform="translate(-7059.34 -7136)" style="fill:red"/><path d="M7234.74,7251.21h-9.57V7250h9.57Zm-1.19-7.17h-7.19v-1.2h7.19Z" transform="translate(-7059.34 -7136)" style="fill:red"/><path d="M7237.19,7246.42h1.19v1.2h-1.19Zm1.19-1.19h1.2v1.19h-1.2Zm8.38,0h-2.39v3.59h-1.2v-3.59h-3.59v-3.58h1.2V7244h6Zm-7.18,6h1.2v1.18h-1.2Zm1.2-1.2H7242v1.2h-1.19Zm1.19-1.19h1.2V7250H7242Z" transform="translate(-7059.34 -7136)" style="fill:red"/><path d="M7257.59,7247.62h-8.38v-1.2h8.38Z" transform="translate(-7059.34 -7136)" style="fill:red"/><path d="M7262.42,7246.42h-1.2v-1.19h1.2v1.19h1.2v1.2h-1.2Zm1.2-2.38h-1.2v-1.2h1.2v1.2h1.2v1.19h-1.2Zm-1.2,7.17h2.4v1.18h-2.4Zm2.4-1.2h2.39v1.2h-2.39Zm2.39-1.19h1.2V7250h-1.2Zm1.2-1.2h1.2v1.2h-1.2Zm1.2-2.39h1.19v2.39h-1.19Z" transform="translate(-7059.34 -7136)" style="fill:red"/><path d="M7280.43,7252.39h-6v-1.18h4.79v-2.39h-4.79v-1.2h4.79v-1.2h-4.79v-1.19h6Z" transform="translate(-7059.34 -7136)" style="fill:red"/><path d="M7287.66,7244h-2.4v-1.2h2.4v1.2h1.2v1.19h-1.2Zm-1.2,7.17h2.4v1.18h-2.4Zm4.79,0h-2.39V7250h2.39Zm0-2.39h1.2V7250h-1.2Zm1.2-2.4h1.19v2.4h-1.19Zm1.19-2.38h1.2v2.38h-1.2Z" transform="translate(-7059.34 -7136)" style="fill:red"/><path d="M7165,7237.26h-2.39v-1.19H7165Zm4.79-8.36h-6v-1.19H7171v2.39h-1.2Zm-4.79,6h1.2v1.19H7165Zm1.2-1.2h1.2v1.2h-1.2Zm4.79,2.39h-1.2v-1.19h-1.2v-1.2h-1.19v-1.19h1.19v1.19h1.2v1.2h1.2v1.19h1.2v1.19H7171Zm-2.4-6h1.2v2.39h-1.2Z" transform="translate(-7059.34 -7136)" style="fill:red"/><path d="M7183.05,7232.49h-2.4v-1.21h-2.39v6h-1.2v-10.75h1.2v3.59h2.39v1.18h2.4Z" transform="translate(-7059.34 -7136)" style="fill:red"/><path d="M7189.08,7226.51h1.2v9.56h1.2v1.19h-2.4Zm2.4,8.37h2.39v1.19h-2.39Zm2.39-1.2h1.2v1.2h-1.2Zm1.2-1.19h1.2v1.19h-1.2Z" transform="translate(-7059.34 -7136)" style="fill:red"/><path d="M7207.09,7232.49h-8.38v-1.21h8.38Z" transform="translate(-7059.34 -7136)" style="fill:red"/><path d="M7211.92,7231.28h-1.19v-1.18h1.19v1.18h1.2v1.21h-1.2Zm1.2-2.38h-1.2v-1.19h1.2v1.19h1.2v1.2h-1.2Zm1.2,8.36h-2.4v-1.19h2.4Zm0-2.38h2.39v1.19h-2.39Zm2.39-8.37h1.2v2.39h-1.2Zm0,7.17h1.2v1.2h-1.2Zm1.2-1.19h1.2v1.19h-1.2Zm1.2-6h1.2v2.39h-1.2Zm0,4.77h1.2v1.21h-1.2Z" transform="translate(-7059.34 -7136)" style="fill:red"/><path d="M7133,7212.9h-3.59v6h4.79v1.19h-9.58v-1.19h3.59v-6h-2.4v-1.19H7133Z" transform="translate(-7059.34 -7136)" style="fill:red"/><path d="M7139,7210.51h1.2v9.56h1.2v1.19H7139Zm2.4,8.37h2.39v1.19h-2.39Zm2.39-1.2h1.2v1.2h-1.2Zm1.2-1.19h1.2v1.19H7145Z" transform="translate(-7059.34 -7136)" style="fill:red"/><path d="M7148.67,7215.28h1.19v1.21h-1.19Zm1.19-1.18h1.2v1.18h-1.2Zm0,6h2.4v1.19h-2.4Zm7.19-4.79h-1.2v-2.38h-3.59v1.2h-1.2v-3.59h1.2v1.2h4.79Zm-4.79,3.6h1.2v1.19h-1.2Zm1.2-1.2h1.19v1.2h-1.19Zm1.19-2.4h1.2v2.4h-1.2Z" transform="translate(-7059.34 -7136)" style="fill:red"/><path d="M7169.07,7216.49h-2.4v-1.21h-2.39v6h-1.2v-10.75h1.2v3.59h2.39v1.18h2.4Z" transform="translate(-7059.34 -7136)" style="fill:red"/><path d="M7173.9,7211.71h1.2v6h-1.2Zm2.4,8.36h2.39v1.19h-2.39Zm2.39-1.19h1.2v1.19h-1.2Zm1.2-8.37h1.2v8.37h-1.2Z" transform="translate(-7059.34 -7136)" style="fill:red"/><path d="M7193.11,7220.07h-1.2v-6h-3.59v3.58h-1.2v-3.58h-2.39v-1.2h2.39v-2.39h1.2v2.39h4.79Zm-8.38,0h1.19v1.19h-1.19Zm1.19-2.39h1.2v2.39h-1.2Zm6,3.58h-3.59v-1.19h3.59Z" transform="translate(-7059.34 -7136)" style="fill:red"/><path d="M7196.75,7220.07h1.19v1.19h-1.19Zm1.19-8.36h1.2v8.36h-1.2Zm3.6-1.2h1.19v8.37h1.2v1.19h-1.2v1.19h-1.19Zm2.39,7.17h1.2v1.2h-1.2Zm1.2-2.4h1.2v2.4h-1.2Z" transform="translate(-7059.34 -7136)" style="fill:red"/><path d="M7153.09,7180.25h-2.39v-1.18h2.39Zm4.78-2.37h-1.2v-1.2h-1.19v-1.19h-1.2v-1.21h-1.19v-1.19h1.19v1.19h1.2v1.21h1.19v1.19h1.2v1.2h1.19v1.19h-1.19Zm-4.78,0h1.19v1.19h-1.19Zm1.19-1.2h1.2v1.2h-1.2Zm2.39-3.59h1.2v2.4h-1.2Zm1.2-3.58h1.19v3.58h-1.19Z" transform="translate(-7059.34 -7136)" style="fill:red"/><path d="M7169.87,7175.49h-2.39v-1.21h-2.39v6h-1.2v-10.74h1.2v3.58h2.39v1.19h2.39Zm-2.39-6h1.19v2.39h-1.19Zm2.39,0h1.19v2.39h-1.19Z" transform="translate(-7059.34 -7136)" style="fill:red"/><path d="M7174.7,7175.49h1.19v1.19h-1.19Zm1.19-2.4h1.2v2.4h-1.2Zm7.17,4.79h-1.19v-1.2h-1.2v-1.19h-1.19v-1.21h-1.2v-1.19h-1.19v-1.19h1.19v1.19h1.2v1.19h1.19v1.21h1.2v1.19h1.19v1.2h1.2v1.19h-1.2Zm-2.39-7.18h1.2v2.39h-1.2Zm2.39,0h1.2v2.39h-1.2Z" transform="translate(-7059.34 -7136)" style="fill:red"/><path d="M7186.7,7175.49h2.39v1.19h-2.39Zm2.39-1.21h1.19v1.21h-1.19Zm2.39,0h-1.2v-1.19h1.2v-1.19h1.19v8.35h-1.19Zm1.19-3.58h1.2v1.2h-1.2Zm1.2-1.19h1.19v1.19h-1.19Z" transform="translate(-7059.34 -7136)" style="fill:red"/><path d="M7128.23,7197.07H7127v-4.79h-2.39v-1.19H7127v-3.58h1.2v3.58h1.2v1.19h-1.2v4.79h6v1.18h-6Zm6-4.79H7133v-1.19h-3.59v-1.19h4.79Zm-3.6,1.21h1.2v1.19h-1.2Zm1.2-1.21h1.2v1.21h-1.2Z" transform="translate(-7059.34 -7136)" style="fill:red"/><path d="M7145,7191.09h-3.59v2.4H7145v1.19h-2.4v3.57h-1.19v-3.57h-4.79v-1.19h3.59v-2.4h-3.59v-1.19h3.59v-2.39h1.2v2.39H7145Z" transform="translate(-7059.34 -7136)" style="fill:red"/><path d="M7154.66,7195.88h2.4v1.19h-8.38v-1.19h4.79v-3.6h-3.6v-1.19h4.79Z" transform="translate(-7059.34 -7136)" style="fill:red"/><path d="M7161.89,7188.7h1.2v6h-1.2Zm2.4,8.37h2.39v1.18h-2.39Zm2.39-1.19h1.2v1.19h-1.2Zm1.2-8.37h1.2v8.37h-1.2Z" transform="translate(-7059.34 -7136)" style="fill:red"/><path d="M7182.3,7192.28h-3.6v3.6h-1.19v-3.6h-4.79v-1.19h9.58Zm-1.2-2.38h-7.19v-1.2h7.19Zm-6,7.17h1.2v1.18h-1.2Zm1.2-1.19h1.2v1.19h-1.2Z" transform="translate(-7059.34 -7136)" style="fill:red"/><path d="M7188.33,7194.68h-2.4v-1.19h2.4Zm2.39,3.57h-1.19v-4.76h-1.2v-1.21h2.39Zm0-7.16h1.2v1.19h-1.2Zm1.2-1.19h1.2v1.19h-1.2Z" transform="translate(-7059.34 -7136)" style="fill:red"/><path d="M7060.84,7189.7h1.2v6h-1.2Zm2.4,8.37h2.39v1.18h-2.39Zm2.39-1.19h1.2v1.19h-1.2Zm1.2-8.37h1.2v8.37h-1.2Z" transform="translate(-7059.34 -7136)" style="fill:red"/><path d="M7080.05,7192.09h-1.2v-1.19h-7.18v-1.2h8.38Zm-7.19,6h1.2v1.18h-1.2Zm1.2-1.19h1.2v1.19h-1.2Zm1.2-4.79h1.2v1.19h1.19v1.2h-1.19v2.4h-1.2Zm2.39,0h1.2v1.19h-1.2Z" transform="translate(-7059.34 -7136)" style="fill:red"/><path d="M7083.69,7193.28h1.19v1.2h-1.19Zm1.19-1.19h1.2v1.19h-1.2Zm0,6h2.4v1.18h-2.4Zm7.19-4.79h-1.2v-2.38h-3.59v1.19h-1.2v-3.58h1.2v1.19h4.79Zm-4.79,3.6h1.2v1.19h-1.2Zm1.2-1.2h1.19v1.2h-1.19Zm1.19-2.4h1.2v2.4h-1.2Z" transform="translate(-7059.34 -7136)" style="fill:red"/><path d="M7095.71,7193.28h1.19v1.2h-1.19Zm4.79,1.2h1.19v-1.2h1.2v2.4h-1.2v1.2h-1.19v-2.4h-2.4v-1.2h-1.2v-1.19h1.2v1.19h2.4Zm-3.6,3.59h2.4v1.18h-2.4Zm7.19-4.79h-1.2v-2.38h-3.59v1.19h-1.2v-3.58h1.2v1.19h4.79Zm-4.79,3.6h1.2v1.19h-1.2Z" transform="translate(-7059.34 -7136)" style="fill:red"/><path d="M7116.11,7194.48h-8.38v-1.2h8.38Z" transform="translate(-7059.34 -7136)" style="fill:red"/><path d="M7100,7163.09h-1.2v-1.19h-7.18v-1.2H7100Zm-7.19,6h1.2v1.18h-1.2Zm1.2-1.2h1.2v1.2h-1.2Zm1.2-4.78h1.2v1.19h1.19v1.2h-1.19v2.39h-1.2Zm2.39,0h1.2v1.19h-1.2Z" transform="translate(-7059.34 -7136)" style="fill:red"/><path d="M7104.87,7163.09h1.2v2.39h-1.2Zm3.6,7.16h-2.4v-1.18h2.4Zm-1.2-7.16h1.2v2.39h-1.2Zm1.2,4.78h1.19v1.2h-1.19Zm1.19-1.19h1.2v1.19h-1.2Zm1.2-3.59h1.2v3.59h-1.2Z" transform="translate(-7059.34 -7136)" style="fill:red"/><path d="M7114.5,7167.87h1.2v1.2h-1.2Zm1.2-2.39h1.19v2.39h-1.19Zm1.19-3.58h1.2v3.58h-1.2Zm6,3.58h-1.2v-2.39h-1.19v-1.19h1.19v-2.39h3.6v3.58h-2.4v2.39h1.2v3.59h-1.2Zm1.2-4.78h-1.2v1.2h1.2Z" transform="translate(-7059.34 -7136)" style="fill:red"/><path d="M7136.1,7165.48h-8.38v-1.2h8.38Z" transform="translate(-7059.34 -7136)" style="fill:red"/><path d="M7110.55,7235.21h-8.38v-8.37h8.38Zm-1.2-7.17h-6v6h6Z" transform="translate(-7059.34 -7136)" style="fill:red"/><path d="M7122.57,7232.82h-1.2V7228h-6v3.58h-1.2v-4.78h8.38Zm-3.59,3.57h-2.4v-1.18h2.4Zm0-2.38h1.19v1.2H7119Zm1.19-1.19h1.2V7234h-1.2Z" transform="translate(-7059.34 -7136)" style="fill:red"/><path d="M7134.59,7231.62h-8.38v-1.2h8.38Z" transform="translate(-7059.34 -7136)" style="fill:red"/><path d="M7217.57,7183.09h-2.34v7.16h-3.5v-1.18h2.33v-4.79h-1.16v-1.19h-4.67v-1.19h5.83v-2.39h1.17v2.39h2.34Zm-7,4.78h-2.33v-1.19h2.33Zm0-2.39h1.17v1.2h-1.17Zm1.17-1.2h1.17v1.2h-1.17Z" transform="translate(-7059.34 -7136)" style="fill:red"/><path d="M7228.12,7185.48H7220v-1.2h8.17Z" transform="translate(-7059.34 -7136)" style="fill:red"/><path d="M7232.83,7183.09h-1.16v-1.19h1.16v1.19H7234v2.39h-1.17Zm2.34-1.19H7234v-1.2h1.17v1.2h1.17v2.38h-1.17Zm-1.17,7.17h2.34v1.18H7234Zm2.34-1.2h1.16v1.2h-1.16Zm1.16-1.19h1.17v1.19h-1.17Zm1.17-2.4h1.17v2.4h-1.17Zm1.17-3.58H7241v3.58h-1.17Z" transform="translate(-7059.34 -7136)" style="fill:red"/><path d="M7251.56,7185.48h-8.17v-1.2h8.17Z" transform="translate(-7059.34 -7136)" style="fill:red"/><path d="M7342,7233.28h-1.19v-6h-3.6v3.59H7336v-3.59h-2.4v-1.19h2.4v-2.39h1.19v2.39H7342Zm-8.38,0h1.2v1.18h-1.2Zm1.2-2.39h1.2v2.39h-1.2Zm6,3.57h-3.6v-1.18h3.6Z" transform="translate(-7059.34 -7136)" style="fill:red"/><path d="M7348.05,7234.46h-2.4v-1.18h2.4Zm4.78-2.37h-1.19v-1.2h-1.2v-1.19h-1.2v-1.21h-1.19v-1.19h1.19v1.19h1.2v1.21h1.2v1.19h1.19v1.2h1.2v1.19h-1.2Zm-4.78,0h1.19v1.19h-1.19Zm1.19-1.2h1.2v1.2h-1.2Zm2.4-3.59h1.19v2.4h-1.19Zm1.19-3.58h1.2v3.58h-1.2Z" transform="translate(-7059.34 -7136)" style="fill:red"/><path d="M7366.05,7230.89h-1.2v-2.4h-7.18v-1.19h8.38Zm-7.18-7.17h6v1.19h-6Zm1.2,9.56h2.39v1.18h-2.39Zm2.39-1.19h1.2v1.19h-1.2Zm1.2-1.2h1.19v1.2h-1.19Z" transform="translate(-7059.34 -7136)" style="fill:red"/><path d="M7333.66,7247.7h1.19v1.19h-1.19Zm1.19-2.39h1.2v2.39h-1.2Zm7.19,4.78h-1.2v-1.2h-1.2v-1.19h-1.19v-1.21h-1.2v-1.18h-1.2v-1.2h1.2v1.2h1.2v1.18h1.19v1.21h1.2v1.19h1.2v1.2h1.2v1.19H7342Zm-2.4-7.17h1.2v2.39h-1.2Zm2.4,0h1.2v2.39H7342Z" transform="translate(-7059.34 -7136)" style="fill:red"/><path d="M7348.07,7244.11h-2.39v-1.19h2.39v1.19h1.2v1.2h-1.2Zm-1.2,7.17h2.4v1.19h-2.4Zm4.79,0h-2.39v-1.19h2.39Zm0-2.39h1.2v1.2h-1.2Zm1.2-2.4h1.2v2.4h-1.2Zm1.2-2.38h1.19v2.38h-1.19Z" transform="translate(-7059.34 -7136)" style="fill:red"/><path d="M7366.08,7247.7h-2.4v-1.21h-2.39v6h-1.2v-10.75h1.2v3.59h2.39v1.18h2.4Z" transform="translate(-7059.34 -7136)" style="fill:red"/></g></g></g></svg>