<svg xmlns="http://www.w3.org/2000/svg" viewBox="0 0 1920 1080"><g id="background"><rect width="1920" height="1080" style="fill:none"/></g><g id="niavi_rooms_roads_border" data-name="niavi/rooms/roads_border"><path d="M1745.33,393.22l-85.31.6v60.61h-21.7V385.18H1447.8V356.75h60.64V218.22l-44.47-43,1.27.25,1.22-5.87c-3.41-.71-6.9-1.39-10.4-2l-43-41.56-109,.6V213h-75.22V153.62L1101,27.17H837.33l-88,87.53V213H738.89V144.89H424.09V213H402.4V156.86H248l-54.44,48.52V387.07h79.74v62.12H225.34v36.69h-4.85v-64h-64V352.24H104.66L98,356.36c0-.22-.09-.44-.13-.65L92,356.78c.18,1,.38,2,.57,3L27.33,400.28V652.9l77.4,45.21h24.18c0,1.95-.09,3.89-.11,5.8l6,.08c0-1.93.06-3.9.12-5.88h21.56V629.36h64V570.09h4.85v36.69h47.92v70H193.52V862.89l7,5.39c-1.16-.72-2.3-1.46-3.42-2.21l-3.36,5c3.44,2.32,7.06,4.51,10.76,6.5l2.36-4.4,9.91,7.58-.94,2.23c2.51,1.06,5.1,2,7.73,3l24.55,18.8H402.4V832.1h74.1V951.87H795.39v10.68l91.55,90.39h175.72V855.31H1192.9V880H1071.62v127.9l47.63,45h125.93l49.91-45.75V880h-30.32V855.31h39.29v91H1413l50.6-49.79,2.59-.76-.42-1.37,42.71-42V713.81H1447.8V649.45h190.52V538.65H1660v61.77h38.81l3.2.2a1.34,1.34,0,0,1,0-.2H1747l72.53-58.49V456.86Zm-113-2v63.25h-59.79V446.6h-5.71v7.83h-20.21V398.29l-98.81-.56v-6.55ZM1378.18,526.3v99.76l-.69-.59c-2.54,2.95-5.28,5.88-8.16,8.73l4.23,4.26q2.37-2.36,4.62-4.77v9.76h-13.85V482.51H1477V526.3Zm0-128h-13.85v-7.11h13.85ZM430.09,150.89h302.8V213H705.75v-6.52h-5.7V195.07h-5.71v11.42h-5.71V213H430.09Zm0,150.83h168.8v11.6H430.09Zm302.8,0v11.6H668.51v-11.6ZM231.34,455.19h41.92V477.1h-4.59v8.78H231.34Zm151.2,30.69H342.87V455.19h39.67Zm0,84.21v30.69H342.87V570.09Zm-151.2,30.69V570.09h41.92v30.69ZM649.42,866.54V840.72h58.84l44.48-43V711.43l53.9-49.53V598.16H614.91l-.68-3.86-5.91,1.06.5,2.8h-29V840.72h4.5v25.82H543.87v-119H402.4V676.76H342.87v-70h45.67V570.09h13.84v57.28H524.79V578.18l6.39-4.25-3.33-5-3.06,2V426.61l-33-32.82H445.56l-43.18,39.45v52.64H388.54V449.19H342.87V387.07H402.4V301.72h21.69v17.6h174.8v1.48h-55V518.67l38.3,46.94H806.64V501.92l-73-69.87V320.8H668.51v-1.48h70.38v-17.6h10.46v98.42l107.43,108.2,93.58.2v4.09H895.14v145h-31L795.39,723.5v143Zm429.88-308.8H1055v-5.4h-5.7V540.92h-5.71v11.42h-5.71v5.4H1021.1V518.63h58.2Zm-58.2,99.93V640.83h58.2v27.32h-16.64V657.67Zm-70.74,0H901.14v-139h49.22Zm427.82,56.14h-27.12l-47,49v8.3h-241.4V674.15h22.64V640.83h6.53v112.3h179.23l42-40.19V680c3.58-1.76,7.13-3.59,10.54-5.44l-2.86-5.27c-2.5,1.35-5.08,2.68-7.68,4V552.12H1091.83v5.62h-6.53V512.63h-64.2v-3.94l97.85.22,109.89-108.74V344.45l5.59,2.07,2.11-5.61c-2.49-.94-5-1.88-7.7-2.86V301.72h75.22v10.59l48.41,44.44h25.71v28.43h-19.85v13.11h-12.71V378.07h-30l-1.28-.79-.47.79H1246v18.38L1179.4,464.4l.62,70.33h165.6V482.51h12.71V644.17c-2.3,1.92-4.69,3.83-7.15,5.68l3.62,4.79c2.25-1.7,4.44-3.44,6.57-5.19h16.81Zm254.14-70.36H1447.8V611.14h98.81V538.65h85.71Z" style="fill:#fff;stroke:#fff;stroke-miterlimit:10;stroke-width:34px"/><polygon points="1562.03 936.35 1556.87 936.35 1556.87 926.09 1551.72 926.09 1551.72 915.79 1546.57 915.79 1546.57 926.09 1541.42 926.09 1541.42 936.35 1536.27 936.35 1536.27 946.7 1531.11 946.7 1531.11 957 1567.18 957 1567.18 946.7 1562.03 946.7 1562.03 936.35" style="fill:#fff;stroke:#fff;stroke-miterlimit:10;stroke-width:34px"/><path d="M120.21,217.34l-4.66-3.77a109.58,109.58,0,0,0-7.34,10.21l5.06,3.22A106,106,0,0,1,120.21,217.34Z" style="fill:#fff;stroke:#fff;stroke-miterlimit:10;stroke-width:34px"/><path d="M227.25,171.64l-.35-6c-4.19.25-8.34.59-12.34,1l.63,6C219.1,172.21,223.16,171.88,227.25,171.64Z" style="fill:#fff;stroke:#fff;stroke-miterlimit:10;stroke-width:34px"/><path d="M107.43,237.4l-5.38-2.66c-1.82,3.68-3.49,7.56-5,11.52l5.62,2.1A118.63,118.63,0,0,1,107.43,237.4Z" style="fill:#fff;stroke:#fff;stroke-miterlimit:10;stroke-width:34px"/><path d="M137.17,200.72,133.48,196a110.14,110.14,0,0,0-9.47,8.27l4.2,4.29A104.83,104.83,0,0,1,137.17,200.72Z" style="fill:#fff;stroke:#fff;stroke-miterlimit:10;stroke-width:34px"/><path d="M90,344.57l5.94-.85c-.58-4-1.08-8.09-1.47-12l-6,.6C88.92,336.31,89.43,340.45,90,344.57Z" style="fill:#fff;stroke:#fff;stroke-miterlimit:10;stroke-width:34px"/><path d="M99,259.76l-5.78-1.59c-1.08,3.93-2,8-2.82,12.18l5.9,1.12C97.06,267.47,98,263.53,99,259.76Z" style="fill:#fff;stroke:#fff;stroke-miterlimit:10;stroke-width:34px"/><path d="M93.54,319.59c-.22-4.08-.34-8.15-.36-12.1l-6,0c0,4.05.14,8.23.37,12.41Z" style="fill:#fff;stroke:#fff;stroke-miterlimit:10;stroke-width:34px"/><path d="M94.48,283.37l-6-.7c-.47,4-.82,8.21-1,12.41l6,.32C93.69,291.32,94,287.27,94.48,283.37Z" style="fill:#fff;stroke:#fff;stroke-miterlimit:10;stroke-width:34px"/><path d="M203.21,174.21l-1-5.92c-4.15.67-8.26,1.45-12.2,2.33l1.31,5.86C195.19,175.62,199.18,174.86,203.21,174.21Z" style="fill:#fff;stroke:#fff;stroke-miterlimit:10;stroke-width:34px"/><path d="M157.39,188.14l-2.64-5.38c-3.8,1.86-7.48,3.9-11,6.06l3.16,5.1C150.26,191.86,153.77,189.92,157.39,188.14Z" style="fill:#fff;stroke:#fff;stroke-miterlimit:10;stroke-width:34px"/><path d="M179.73,179.5,178,173.75c-4.05,1.2-8,2.55-11.81,4l2.15,5.6C172,182,175.83,180.66,179.73,179.5Z" style="fill:#fff;stroke:#fff;stroke-miterlimit:10;stroke-width:34px"/><path d="M136,740.49l-6,.51c.36,4.17.8,8.32,1.3,12.32l6-.75C136.83,748.64,136.4,744.58,136,740.49Z" style="fill:#fff;stroke:#fff;stroke-miterlimit:10;stroke-width:34px"/><path d="M134.82,716.18l-6,.1c.07,4.17.21,8.33.41,12.37l6-.3C135,724.38,134.89,720.29,134.82,716.18Z" style="fill:#fff;stroke:#fff;stroke-miterlimit:10;stroke-width:34px"/><path d="M178.83,850.74l-4.3,4.18a122.12,122.12,0,0,0,9.21,8.56l3.85-4.6A118.19,118.19,0,0,1,178.83,850.74Z" style="fill:#fff;stroke:#fff;stroke-miterlimit:10;stroke-width:34px"/><path d="M147.08,813.29c1.69,3.87,3.53,7.65,5.45,11.25l5.29-2.83c-1.85-3.46-3.61-7.1-5.24-10.83Z" style="fill:#fff;stroke:#fff;stroke-miterlimit:10;stroke-width:34px"/><path d="M158.9,835.31c2.3,3.53,4.77,7,7.34,10.18l4.69-3.74c-2.45-3.07-4.8-6.34-7-9.71Z" style="fill:#fff;stroke:#fff;stroke-miterlimit:10;stroke-width:34px"/><path d="M139.12,764.57l-5.91,1c.71,4.14,1.53,8.24,2.42,12.18l5.85-1.32C140.61,772.61,139.82,768.61,139.12,764.57Z" style="fill:#fff;stroke:#fff;stroke-miterlimit:10;stroke-width:34px"/><path d="M144.47,788.18l-5.77,1.65c1.16,4,2.43,8,3.79,11.86l5.66-2C146.83,796,145.59,792.11,144.47,788.18Z" style="fill:#fff;stroke:#fff;stroke-miterlimit:10;stroke-width:34px"/><rect x="556.18" y="546.97" width="11.05" height="6" transform="translate(-210.72 403.93) rotate(-33.69)" style="fill:#fff;stroke:#fff;stroke-miterlimit:10;stroke-width:34px"/><rect x="537.78" y="559.23" width="11.05" height="6" transform="translate(-220.62 395.78) rotate(-33.69)" style="fill:#fff;stroke:#fff;stroke-miterlimit:10;stroke-width:34px"/><rect x="604.88" y="569.23" width="6" height="12.95" transform="translate(-91.37 115.27) rotate(-10.08)" style="fill:#fff;stroke:#fff;stroke-miterlimit:10;stroke-width:34px"/><rect x="570.64" y="611.77" width="6" height="10.9" transform="translate(-147.77 1052.63) rotate(-78.21)" style="fill:#fff;stroke:#fff;stroke-miterlimit:10;stroke-width:34px"/><rect x="527.95" y="602.86" width="6" height="10.9" transform="translate(-173.01 1003.76) rotate(-78.21)" style="fill:#fff;stroke:#fff;stroke-miterlimit:10;stroke-width:34px"/><rect x="549.29" y="607.31" width="6" height="10.9" transform="translate(-160.39 1028.19) rotate(-78.21)" style="fill:#fff;stroke:#fff;stroke-miterlimit:10;stroke-width:34px"/><path d="M1101.32,520.88l6,.31c.2-3.88.45-7.8.75-11.63l-6-.46C1101.78,513,1101.52,517,1101.32,520.88Z" style="fill:#fff;stroke:#fff;stroke-miterlimit:10;stroke-width:34px"/><path d="M1100.66,544.46l6,0c0-3.92.09-7.84.19-11.65l-6-.17C1100.75,536.53,1100.68,540.49,1100.66,544.46Z" style="fill:#fff;stroke:#fff;stroke-miterlimit:10;stroke-width:34px"/><path d="M1406.9,488.82l-5.76,1.65c1.08,3.79,2,7.69,2.88,11.61l5.87-1.24C1409,496.78,1408,492.74,1406.9,488.82Z" style="fill:#fff;stroke:#fff;stroke-miterlimit:10;stroke-width:34px"/><path d="M1303.67,371.11c-3.51-1.94-7.16-3.89-10.86-5.78l-2.73,5.34c3.64,1.86,7.23,3.78,10.68,5.69Z" style="fill:#fff;stroke:#fff;stroke-miterlimit:10;stroke-width:34px"/><path d="M1406.09,513.87c.55,3.89,1,7.9,1.29,11.91l6-.46c-.32-4.13-.77-8.27-1.33-12.29Z" style="fill:#fff;stroke:#fff;stroke-miterlimit:10;stroke-width:34px"/><path d="M1281.79,359.89c-3.62-1.72-7.38-3.44-11.17-5.12l-2.43,5.48c3.74,1.66,7.45,3.36,11,5.06Z" style="fill:#fff;stroke:#fff;stroke-miterlimit:10;stroke-width:34px"/><path d="M1259.35,349.92c-3.66-1.53-7.48-3.08-11.37-4.61l-2.2,5.58c3.85,1.52,7.64,3.06,11.26,4.57Z" style="fill:#fff;stroke:#fff;stroke-miterlimit:10;stroke-width:34px"/><path d="M1331.22,663.3l3.09,5.14c3.57-2.15,7.08-4.38,10.43-6.63l-3.35-5C1338.13,659,1334.71,661.2,1331.22,663.3Z" style="fill:#fff;stroke:#fff;stroke-miterlimit:10;stroke-width:34px"/><path d="M1657.77,738.55l5.29,2.81c1.9-3.57,3.77-7.25,5.55-10.93l-5.41-2.61C1661.46,731.43,1659.63,735,1657.77,738.55Z" style="fill:#fff;stroke:#fff;stroke-miterlimit:10;stroke-width:34px"/><path d="M1631.9,779l4.78,3.64c2.45-3.23,4.88-6.56,7.22-9.91l-4.92-3.44C1636.69,772.57,1634.31,775.84,1631.9,779Z" style="fill:#fff;stroke:#fff;stroke-miterlimit:10;stroke-width:34px"/><path d="M1668.22,716.89l5.5,2.4c1.62-3.72,3.2-7.53,4.69-11.33l-5.58-2.19C1671.36,709.5,1669.81,713.24,1668.22,716.89Z" style="fill:#fff;stroke:#fff;stroke-miterlimit:10;stroke-width:34px"/><path d="M1645.65,759.3l5.06,3.24c2.18-3.42,4.33-6.94,6.39-10.47l-5.18-3C1649.9,752.51,1647.79,756,1645.65,759.3Z" style="fill:#fff;stroke:#fff;stroke-miterlimit:10;stroke-width:34px"/><path d="M1684.18,671.49l5.79,1.59c1.07-3.92,2.09-7.91,3-11.88l-5.83-1.38C1686.23,663.72,1685.23,667.65,1684.18,671.49Z" style="fill:#fff;stroke:#fff;stroke-miterlimit:10;stroke-width:34px"/><path d="M1693.69,624.25l6,.79c.54-4,1-8.15,1.4-12.19l-6-.58C1694.68,616.24,1694.22,620.27,1693.69,624.25Z" style="fill:#fff;stroke:#fff;stroke-miterlimit:10;stroke-width:34px"/><path d="M1689.73,648l5.89,1.18c.8-4,1.54-8,2.21-12.05l-5.92-1C1691.26,640.13,1690.52,644.12,1689.73,648Z" style="fill:#fff;stroke:#fff;stroke-miterlimit:10;stroke-width:34px"/><path d="M1677,694.49l5.66,2c1.34-3.82,2.64-7.73,3.85-11.63l-5.73-1.78C1679.61,686.89,1678.34,690.73,1677,694.49Z" style="fill:#fff;stroke:#fff;stroke-miterlimit:10;stroke-width:34px"/><path d="M1552.15,851.08c-3.37,2.09-6.85,4.16-10.33,6.14l3,5.21c3.54-2,7.08-4.12,10.51-6.25Z" style="fill:#fff;stroke:#fff;stroke-miterlimit:10;stroke-width:34px"/><path d="M1498.51,878.07l2.23,5.57c3.79-1.53,7.59-3.12,11.27-4.74l-2.41-5.49C1506,875,1502.24,876.57,1498.51,878.07Z" style="fill:#fff;stroke:#fff;stroke-miterlimit:10;stroke-width:34px"/><path d="M1475.9,886.34l1.89,5.7c3.86-1.28,7.74-2.64,11.54-4l-2.06-5.63C1483.53,883.75,1479.7,885.08,1475.9,886.34Z" style="fill:#fff;stroke:#fff;stroke-miterlimit:10;stroke-width:34px"/><path d="M1531.28,863c-3.51,1.84-7.12,3.65-10.75,5.39l2.6,5.41c3.69-1.77,7.36-3.62,10.93-5.49Z" style="fill:#fff;stroke:#fff;stroke-miterlimit:10;stroke-width:34px"/><path d="M1616.58,797.49l4.45,4c2.74-3,5.43-6.15,8-9.27l-4.62-3.83C1621.9,791.47,1619.25,794.52,1616.58,797.49Z" style="fill:#fff;stroke:#fff;stroke-miterlimit:10;stroke-width:34px"/><path d="M1572.06,837.64c-3.19,2.34-6.5,4.67-9.82,6.91l3.35,5c3.39-2.28,6.76-4.65,10-7Z" style="fill:#fff;stroke:#fff;stroke-miterlimit:10;stroke-width:34px"/><path d="M1590.85,822.68c-3,2.59-6.11,5.17-9.24,7.67l3.73,4.69c3.2-2.55,6.37-5.18,9.43-7.82Z" style="fill:#fff;stroke:#fff;stroke-miterlimit:10;stroke-width:34px"/><path d="M1608.35,806.24c-2.78,2.84-5.67,5.66-8.58,8.4l4.11,4.37c3-2.79,5.91-5.67,8.76-8.57Z" style="fill:#fff;stroke:#fff;stroke-miterlimit:10;stroke-width:34px"/><path d="M1675.54,314c-1.8-3.57-3.71-7.13-5.67-10.58l-5.22,3c1.91,3.36,3.77,6.83,5.53,10.31Z" style="fill:#fff;stroke:#fff;stroke-miterlimit:10;stroke-width:34px"/><path d="M1663.69,293.15c-2.13-3.36-4.38-6.71-6.69-10l-4.89,3.47c2.24,3.17,4.43,6.44,6.51,9.71Z" style="fill:#fff;stroke:#fff;stroke-miterlimit:10;stroke-width:34px"/><path d="M1616.74,238.94c-3-2.58-6.11-5.15-9.25-7.61l-3.7,4.72c3.06,2.41,6.11,4.91,9,7.44Z" style="fill:#fff;stroke:#fff;stroke-miterlimit:10;stroke-width:34px"/><path d="M1629.79,259.59l4.34-4.15c-2.75-2.87-5.61-5.71-8.5-8.46l-4.13,4.36C1624.32,254,1627.11,256.79,1629.79,259.59Z" style="fill:#fff;stroke:#fff;stroke-miterlimit:10;stroke-width:34px"/><path d="M1692.56,383.15l5.9-1.1c-.73-3.9-1.56-7.85-2.48-11.75l-5.84,1.37C1691,375.48,1691.85,379.34,1692.56,383.15Z" style="fill:#fff;stroke:#fff;stroke-miterlimit:10;stroke-width:34px"/><path d="M1679.72,338.1l5.59-2.17c-1.45-3.73-3-7.45-4.62-11.08l-5.48,2.44C1676.79,330.83,1678.31,334.47,1679.72,338.1Z" style="fill:#fff;stroke:#fff;stroke-miterlimit:10;stroke-width:34px"/><path d="M1597.91,224.15c-3.22-2.3-6.54-4.57-9.89-6.75l-3.28,5c3.28,2.13,6.54,4.36,9.68,6.6Z" style="fill:#fff;stroke:#fff;stroke-miterlimit:10;stroke-width:34px"/><path d="M1687.19,360.32l5.77-1.64c-1.09-3.83-2.28-7.69-3.55-11.47l-5.69,1.91C1685,352.81,1686.13,356.58,1687.19,360.32Z" style="fill:#fff;stroke:#fff;stroke-miterlimit:10;stroke-width:34px"/><path d="M1649.84,273.56c-2.46-3.14-5-6.25-7.64-9.25l-4.53,3.93c2.54,2.93,5,6,7.45,9Z" style="fill:#fff;stroke:#fff;stroke-miterlimit:10;stroke-width:34px"/><path d="M1489.67,175c-3.78-1-7.67-2-11.57-2.89l-1.37,5.84c3.84.9,7.68,1.86,11.41,2.85Z" style="fill:#fff;stroke:#fff;stroke-miterlimit:10;stroke-width:34px"/><path d="M1512.55,181.81c-3.73-1.23-7.57-2.43-11.39-3.56l-1.7,5.76c3.76,1.11,7.54,2.29,11.22,3.5Z" style="fill:#fff;stroke:#fff;stroke-miterlimit:10;stroke-width:34px"/><path d="M1577.85,211.09c-3.39-2-6.9-4-10.41-5.89l-2.85,5.28c3.44,1.86,6.88,3.8,10.2,5.77Z" style="fill:#fff;stroke:#fff;stroke-miterlimit:10;stroke-width:34px"/><path d="M1535,190c-3.65-1.47-7.4-2.91-11.15-4.28l-2,5.64c3.68,1.34,7.37,2.76,11,4.21Z" style="fill:#fff;stroke:#fff;stroke-miterlimit:10;stroke-width:34px"/><path d="M1556.81,199.73c-3.53-1.73-7.17-3.43-10.83-5.06l-2.44,5.48c3.59,1.6,7.16,3.27,10.62,5Z" style="fill:#fff;stroke:#fff;stroke-miterlimit:10;stroke-width:34px"/><polygon points="1566.97 1029.62 1522.06 1029.62 1522.06 1056.57 1566.97 1056.57 1566.97 1046.48 1574.93 1046.48 1574.93 1040.48 1566.97 1040.48 1566.97 1029.62" style="fill:#fff;stroke:#fff;stroke-miterlimit:10;stroke-width:34px"/><path d="M1519.24,1005.93h100.27V905.67H1519.24Zm6-94.26h88.27v88.26h-88.27Z" style="fill:#fff;stroke:#fff;stroke-miterlimit:10;stroke-width:34px"/><rect x="1611.52" y="1040.48" width="6" height="6" style="fill:#fff;stroke:#fff;stroke-miterlimit:10;stroke-width:34px"/><rect x="1587.13" y="1040.48" width="12.2" height="6" style="fill:#fff;stroke:#fff;stroke-miterlimit:10;stroke-width:34px"/></g><g id="roads"><polygon points="273.25 382.57 273.25 485.88 215.99 485.88 215.99 570.09 273.25 570.09 273.25 681.26 342.87 681.26 342.87 570.09 406.88 570.09 406.88 485.88 342.87 485.88 342.87 382.57 273.25 382.57" style="fill:#333"/><polyline points="397.9 213.01 753.85 213.01 753.85 301.72 668.51 301.72 668.51 325.3 598.89 325.3 598.89 301.72 397.9 301.72 397.9 213.01" style="fill:#333"/><polyline points="1224.34 213.01 1308.56 213.01 1308.56 301.72 1224.34 301.72 1224.34 213.01" style="fill:#333"/><polyline points="1378.18 352.25 1378.18 398.29 1341.12 398.29 1341.12 482.51 1476.99 482.51 1476.99 526.3 1378.18 526.3 1378.18 718.31 1447.8 718.31 1447.8 611.14 1546.61 611.14 1546.61 538.65 1664.52 538.65 1664.52 454.44 1546.61 454.44 1546.61 398.29 1447.8 397.73 1447.8 352.25 1378.18 352.25" style="fill:#333"/><polyline points="1308.56 771.09 1058.15 771.09 1058.15 855.31 1192.9 855.31 1192.9 884.5 1264.77 884.5 1264.77 855.31 1308.56 855.31 1308.56 771.09" style="fill:#333"/><polyline points="950.36 504.04 950.36 662.17 1021.1 662.17 1021.1 640.83 1096.33 640.83 1096.33 557.74 1021.1 557.74 1021.1 504.04 950.36 504.04" style="fill:#333"/><polyline points="799.89 866.53 649.42 866.53 649.42 836.22 584.3 836.22 584.3 866.53 543.87 866.53 543.87 747.51 397.9 747.51 397.9 832.1 476.5 832.1 476.5 951.88 799.89 951.88 799.89 866.53" style="fill:#333"/></g><g id="rooms"><polygon points="249.68 161.36 397.9 161.36 397.9 382.57 198.02 382.57 198.02 207.4 249.68 161.36" style="fill:blue;stroke:#000;stroke-miterlimit:10;stroke-width:9px"/><polygon points="105.94 356.74 31.83 402.78 31.83 650.32 105.94 693.61 151.98 693.61 151.98 624.86 215.99 624.86 215.99 426.36 151.98 426.36 151.98 356.74 105.94 356.74" style="fill:blue;stroke:#000;stroke-miterlimit:10;stroke-width:9px"/><polygon points="198.02 681.26 198.02 860.67 249.68 900.22 397.9 900.22 397.9 681.26 198.02 681.26" style="fill:blue;stroke:#000;stroke-miterlimit:10;stroke-width:9px"/><polygon points="447.3 398.29 489.97 398.29 520.29 428.48 520.29 622.87 406.88 622.87 406.88 435.22 447.3 398.29" style="fill:blue;stroke:#000;stroke-miterlimit:10;stroke-width:9px"/><polygon points="584.3 602.66 584.3 836.22 706.44 836.22 748.24 795.79 748.24 709.46 802.14 659.92 802.14 602.66 584.3 602.66" style="fill:blue;stroke:#000;stroke-miterlimit:10;stroke-width:9px"/><polygon points="548.36 325.3 548.36 517.07 584.3 561.11 802.14 561.11 802.14 503.84 729.15 433.97 729.15 325.3 548.36 325.3" style="fill:blue;stroke:#000;stroke-miterlimit:10;stroke-width:9px"/><polygon points="753.85 398.29 858.65 503.84 1117.11 504.4 1224.34 398.29 1224.34 155.5 1099.14 31.67 839.19 31.67 753.85 116.57 753.85 398.29" style="fill:blue;stroke:#000;stroke-miterlimit:10;stroke-width:9px"/><polygon points="865.95 662.17 799.89 725.42 799.89 960.67 888.79 1048.44 1058.15 1048.44 1058.15 662.17 865.95 662.17" style="fill:blue;stroke:#000;stroke-miterlimit:10;stroke-width:9px"/><polygon points="1096.33 556.62 1096.33 748.63 1269.26 748.63 1308.56 711.01 1308.56 556.62 1096.33 556.62" style="fill:blue;stroke:#000;stroke-miterlimit:10;stroke-width:9px"/><polygon points="1076.12 884.5 1290.59 884.5 1290.59 1005.21 1243.43 1048.44 1121.04 1048.44 1076.12 1005.96 1076.12 884.5" style="fill:blue;stroke:#000;stroke-miterlimit:10;stroke-width:9px"/><polygon points="1352.98 718.31 1503.94 718.31 1503.94 850.44 1411.12 941.77 1308.56 941.77 1308.56 764.6 1352.98 718.31" style="fill:blue;stroke:#000;stroke-miterlimit:10;stroke-width:9px"/><polygon points="1308.56 131.04 1411.3 130.48 1503.94 220.13 1503.94 352.25 1354.22 352.25 1308.56 310.33 1308.56 131.04" style="fill:blue;stroke:#000;stroke-miterlimit:10;stroke-width:9px"/><polygon points="1250.54 382.57 1250.54 398.29 1183.92 466.23 1184.48 530.23 1341.12 530.23 1341.12 382.57 1250.54 382.57" style="fill:blue;stroke:#000;stroke-miterlimit:10;stroke-width:9px"/><polygon points="1664.52 398.29 1664.52 595.92 1745.36 595.92 1814.98 539.77 1814.98 458.93 1743.68 397.73 1664.52 398.29" style="fill:blue;stroke:#000;stroke-miterlimit:10;stroke-width:9px"/></g><g id="niavi"><rect x="427.09" y="147.89" width="308.79" height="168.43" style="fill:none;stroke:lime;stroke-miterlimit:10;stroke-width:6px"/><text transform="translate(671.51 244.31)" style="font-size:57.29975128173828px;fill:lime;font-family:AFSDot10GSQR, AFS Dot10 GSQR">▲</text><text transform="translate(1525.96 960.24)" style="font-size:51.72114944458008px;fill:lime;font-family:AFSDot10GSQR, AFS Dot10 GSQR">▲</text><text transform="translate(251.55 514.93)" style="font-size:57.29975128173828px;fill:lime;font-family:AFSDot10GSQR, AFS Dot10 GSQR">▲</text><text transform="translate(1020.73 590.16)" style="font-size:57.29975128173828px;fill:lime;font-family:AFSDot10GSQR, AFS Dot10 GSQR">▲</text><text transform="translate(1543.99 495.84)" style="font-size:57.29975128173828px;fill:lime;font-family:AFSDot10GSQR, AFS Dot10 GSQR">▲</text><rect x="228.34" y="452.19" width="157.2" height="151.59" style="fill:none;stroke:lime;stroke-miterlimit:10;stroke-width:6px"/><rect x="898.14" y="515.63" width="184.15" height="155.52" style="fill:none;stroke:lime;stroke-miterlimit:10;stroke-width:6px"/><rect x="1361.34" y="388.18" width="273.99" height="258.26" style="fill:none;stroke:lime;stroke-miterlimit:10;stroke-width:6px"/><path d="M366.46,184.94l-5.84-1.39" style="fill:none;stroke:red;stroke-miterlimit:10;stroke-width:6px"/><path d="M348.66,180.85C31.64,112,87.89,343.11,105.37,398.06" style="fill:none;stroke:red;stroke-miterlimit:10;stroke-width:6px;stroke-dasharray:12.257148742675781,12.257148742675781"/><path d="M107.29,403.88c1.24,3.64,2,5.64,2,5.64" style="fill:none;stroke:red;stroke-miterlimit:10;stroke-width:6px"/><path d="M143,600.41q-.56,3-1.07,5.9" style="fill:none;stroke:red;stroke-miterlimit:10;stroke-width:6px"/><path d="M139.86,618.43C87.65,939.93,303,896.68,356,881.44" style="fill:none;stroke:red;stroke-miterlimit:10;stroke-width:6px;stroke-dasharray:12.283480644226074,12.283480644226074"/><path d="M361.89,879.67c3.67-1.16,5.69-1.91,5.69-1.91" style="fill:none;stroke:red;stroke-miterlimit:10;stroke-width:6px"/><polyline points="493.6 600.51 487.73 599.29 492.72 595.96" style="fill:none;stroke:red;stroke-miterlimit:10;stroke-width:6px"/><line x1="501.92" y1="589.83" x2="589.3" y2="531.57" style="fill:none;stroke:red;stroke-miterlimit:10;stroke-width:6px;stroke-dasharray:11.054998397827148,11.054998397827148"/><polyline points="593.9 528.5 598.89 525.18 599.94 531.08" style="fill:none;stroke:red;stroke-miterlimit:10;stroke-width:6px"/><line x1="602.21" y1="543.83" x2="614.68" y2="613.95" style="fill:none;stroke:red;stroke-miterlimit:10;stroke-width:6px;stroke-dasharray:12.949234008789062,12.949234008789062"/><polyline points="615.81 620.33 616.86 626.24 610.99 625.01" style="fill:none;stroke:red;stroke-miterlimit:10;stroke-width:6px"/><line x1="600.31" y1="622.78" x2="498.94" y2="601.63" style="fill:none;stroke:red;stroke-miterlimit:10;stroke-width:6px;stroke-dasharray:10.901311874389648,10.901311874389648"/><path d="M1189.57,327.32c-1.92-.68-3.81-1.35-5.65-2q-2.25,2-4.41,4.07" style="fill:none;stroke:red;stroke-miterlimit:10;stroke-width:6px"/><path d="M1171.25,337.69c-106,113.2-59,323.68-45.54,374.82" style="fill:none;stroke:red;stroke-miterlimit:10;stroke-width:6px;stroke-dasharray:11.720272064208984,11.720272064208984"/><path d="M1127.24,718.17c1,3.75,1.66,5.76,1.66,5.76s2.11-.14,6-.5" style="fill:none;stroke:red;stroke-miterlimit:10;stroke-width:6px"/><path d="M1147,722.16c61.37-7.2,258.06-40.43,263.74-171.16,6.43-147.82-133.67-192.94-215.42-221.65" style="fill:none;stroke:red;stroke-miterlimit:10;stroke-width:6px;stroke-dasharray:12.195892333984375,12.195892333984375"/><path d="M1388.28,909.2q3-.39,6-.83" style="fill:none;stroke:red;stroke-miterlimit:10;stroke-width:6px"/><path d="M1406.22,906.49c275.8-46.32,293.31-269.75,293.42-324.35" style="fill:none;stroke:red;stroke-miterlimit:10;stroke-width:6px;stroke-dasharray:12.140555381774902,12.140555381774902"/><path d="M1699.58,576.08c-.09-3.88-.26-6-.26-6" style="fill:none;stroke:red;stroke-miterlimit:10;stroke-width:6px"/><path d="M1365.83,161.36l6,.2" style="fill:none;stroke:red;stroke-miterlimit:10;stroke-width:6px"/><path d="M1383.67,162.11c283.86,15.71,312.79,200.94,315.46,250.09" style="fill:none;stroke:red;stroke-miterlimit:10;stroke-width:6px;stroke-dasharray:11.853504180908203,11.853504180908203"/><path d="M1699.35,418.12c.08,3.87,0,6,0,6" style="fill:none;stroke:red;stroke-miterlimit:10;stroke-width:6px"/><rect x="86.86" y="396.04" width="44.92" height="26.95" style="fill:red"/><rect x="576.44" y="511.7" width="44.92" height="26.95" style="fill:red"/><rect x="1161.46" y="311.83" width="44.92" height="26.95" style="fill:red"/><rect x="1388.28" y="540.9" width="44.92" height="26.95" style="fill:red"/><rect x="1343.37" y="147.89" width="44.92" height="26.95" style="fill:red"/><rect x="1522.06" y="1029.62" width="44.92" height="26.95" style="fill:red"/><rect x="1676.87" y="410.64" width="44.92" height="26.95" style="fill:red"/><rect x="1676.87" y="556.62" width="44.92" height="26.95" style="fill:red"/><rect x="1365.83" y="895.73" width="44.92" height="26.95" style="fill:red"/><rect x="1106.44" y="710.45" width="44.92" height="26.95" style="fill:red"/><rect x="465.27" y="585.81" width="44.92" height="26.95" style="fill:red"/><rect x="594.4" y="612.76" width="44.92" height="26.95" style="fill:red"/><rect x="344" y="171.47" width="44.92" height="26.95" style="fill:red"/><rect x="120.54" y="586.94" width="44.92" height="26.95" style="fill:red"/><rect x="345.12" y="864.29" width="44.92" height="26.95" style="fill:red"/><rect x="1522.24" y="908.67" width="94.26" height="94.26" style="fill:none;stroke:lime;stroke-miterlimit:10;stroke-width:6px"/><line x1="1617.52" y1="1043.48" x2="1611.52" y2="1043.48" style="fill:none;stroke:red;stroke-miterlimit:10;stroke-width:6px"/><line x1="1599.32" y1="1043.48" x2="1556.64" y2="1043.48" style="fill:none;stroke:red;stroke-miterlimit:10;stroke-width:6px;stroke-dasharray:12.195363998413086,12.195363998413086"/><line x1="1550.54" y1="1043.48" x2="1544.54" y2="1043.48" style="fill:none;stroke:red;stroke-miterlimit:10;stroke-width:6px"/></g><g id="names-outline"><g id="text"><text transform="translate(862.17 269.84)" style="font-size:40px;fill:blue;stroke:#fff;stroke-miterlimit:10;stroke-width:12px;font-family:AFSDot10GSQR, AFS Dot10 GSQR">カフェテリア<tspan x="27.89" y="46.8">Cafeteria</tspan></text><text transform="translate(1306.63 250.75)" style="font-size:40px;fill:blue;stroke:#fff;stroke-miterlimit:10;stroke-width:12px;font-family:AFSDot10GSQR, AFS Dot10 GSQR">ウェポンズ<tspan x="28.36" y="46.8">Weapons</tspan></text><text transform="translate(1605.74 487.68)" style="font-size:40px;fill:blue;stroke:#fff;stroke-miterlimit:10;stroke-width:12px;font-family:AFSDot10GSQR, AFS Dot10 GSQR">ナビゲーション<tspan x="37.66" y="46.8">Navigation</tspan></text><text transform="translate(1118.89 639.27)" style="font-size:40px;fill:blue;stroke:#fff;stroke-miterlimit:10;stroke-width:12px;font-family:AFSDot10GSQR, AFS Dot10 GSQR">アドミン<tspan x="28.83" y="46.79">Admin</tspan></text><text transform="translate(1326.63 813.32)" style="font-size:40px;fill:blue;stroke:#fff;stroke-miterlimit:10;stroke-width:12px;font-family:AFSDot10GSQR, AFS Dot10 GSQR">シールド<tspan x="8.36" y="46.79">Shields</tspan></text><text transform="translate(1003.17 950.31)" style="font-size:40px;fill:blue;stroke:#fff;stroke-miterlimit:10;stroke-width:12px;font-family:AFSDot10GSQR, AFS Dot10 GSQR">コミュニケーション<tspan x="36.72" y="46.79">Communications</tspan></text><text transform="translate(829.4 834.65)" style="font-size:40px;fill:blue;stroke:#fff;stroke-miterlimit:10;stroke-width:12px;font-family:AFSDot10GSQR, AFS Dot10 GSQR">ストレージ<tspan x="28.36" y="46.79">Storage</tspan></text><text transform="translate(535.62 701.03)" style="font-size:40px;fill:blue;stroke:#fff;stroke-miterlimit:10;stroke-width:12px;font-family:AFSDot10GSQR, AFS Dot10 GSQR">エレクトリカル<tspan x="37.66" y="46.79">Electrical</tspan></text><text transform="translate(567.55 447.26)" style="font-size:40px;fill:blue;stroke:#fff;stroke-miterlimit:10;stroke-width:12px;font-family:AFSDot10GSQR, AFS Dot10 GSQR">メドベイ<tspan x="18.59" y="46.8">MedBay</tspan></text><text transform="translate(343.4 513.51)" style="font-size:40px;fill:blue;stroke:#fff;stroke-miterlimit:10;stroke-width:12px;font-family:AFSDot10GSQR, AFS Dot10 GSQR">セキュリティ<tspan x="38.13" y="46.8">Security</tspan></text><text transform="translate(24.29 513.51)" style="font-size:40px;fill:blue;stroke:#fff;stroke-miterlimit:10;stroke-width:12px;font-family:AFSDot10GSQR, AFS Dot10 GSQR">リアクター<tspan x="28.36" y="46.8">Reactor</tspan></text><text transform="translate(218.33 256.36)" style="font-size:40px;fill:blue;stroke:#fff;stroke-miterlimit:10;stroke-width:12px;font-family:AFSDot10GSQR, AFS Dot10 GSQR">アッパー<tspan x="28.83" y="46.8">Upper</tspan><tspan x="18.59" y="78.24">Engine</tspan></text><text transform="translate(238.33 776.26)" style="font-size:40px;fill:blue;stroke:#fff;stroke-miterlimit:10;stroke-width:12px;font-family:AFSDot10GSQR, AFS Dot10 GSQR">ロワー<tspan x="8.83" y="46.79">Lower</tspan><tspan x="-1.41" y="78.24">Engine</tspan></text><text transform="translate(1193 449.5)" style="font-size:40px;fill:blue;stroke:#fff;stroke-miterlimit:10;stroke-width:12px;font-family:AFSDot10GSQR, AFS Dot10 GSQR">オーツー<tspan x="59.53" y="46.8">O2</tspan></text><text transform="translate(1634.86 968.81)" style="font-size:40px;stroke:#fff;stroke-miterlimit:10;stroke-width:12px;font-family:AFSDot10GSQR, AFS Dot10 GSQR">カメラと範囲</text><text transform="translate(1637.79 1053.61)" style="font-size:40px;stroke:#fff;stroke-miterlimit:10;stroke-width:12px;font-family:AFSDot10GSQR, AFS Dot10 GSQR">ベント</text></g><g id="outline"><path d="M894.05,267.34h-4V247.42H878.11v12h-4v-12h-8v-4h8v-8h4v8h15.94Zm-27.89,0h4v4h-4Zm4-8h4v8h-4Zm19.92,11.92H878.11v-4h11.95Z" style="fill:blue;stroke:#fff;stroke-miterlimit:10;stroke-width:12px"/><path d="M934.05,251.36h-4v-7.93h-23.9v-4h27.89Zm-15.94,19.93h-8v-4h8Zm0-7.93h4v4h-4Zm4-4h4v4h-4Zm4-8h4v8h-4Z" style="fill:blue;stroke:#fff;stroke-miterlimit:10;stroke-width:12px"/><path d="M970.06,251.36h-8v12h11.95v4H946.16v-4h12v-12h-8v-3.94h19.92Z" style="fill:blue;stroke:#fff;stroke-miterlimit:10;stroke-width:12px"/><path d="M1018,251.36h-11.95v12h-4v-12H986.16v-3.94H1018Zm-4-7.93H990.14v-4h23.91Zm-19.92,23.91h4v4h-4Zm4-4h4v4h-4Z" style="fill:blue;stroke:#fff;stroke-miterlimit:10;stroke-width:12px"/><path d="M1030.14,239.45h4v19.92h-4Zm8,27.89h8v4h-8Zm8-4h4v4h-4Zm4-27.9h4v27.9h-4Z" style="fill:blue;stroke:#fff;stroke-miterlimit:10;stroke-width:12px"/><path d="M1094.05,247.42h-4v-4h-23.9v-4h27.89Zm-23.91,19.92h4v4h-4Zm4-4h4v4h-4Zm4-15.94h4v3.94h4v4h-4v8h-4Zm8,0h4v3.94h-4Z" style="fill:blue;stroke:#fff;stroke-miterlimit:10;stroke-width:12px"/><path d="M894.05,310.27h-4V290.35h4v19.92h8v4h-8Zm8-19.92h-8v-4h8v4h4v4h-4Zm0,15.93h4v4h-4Z" style="fill:blue;stroke:#fff;stroke-miterlimit:10;stroke-width:12px"/><path d="M914.52,310.27h-4v-4h4v4h8v-4h-8v-4h-4v-4h4v-3.95h8v3.95h4v16h-12Zm8-12h-8v4h8Z" style="fill:blue;stroke:#fff;stroke-miterlimit:10;stroke-width:12px"/><path d="M939,298.28h-4v-3.95h4v-4h4v4h4v3.95h-4v16h-4Zm4-11.92h4v4h-4Z" style="fill:blue;stroke:#fff;stroke-miterlimit:10;stroke-width:12px"/><path d="M955.46,310.27h-4v-12h4v-3.95h8v3.95h4v8H955.46v4h11.95v4H955.46Zm8-12h-8v4h8Z" style="fill:blue;stroke:#fff;stroke-miterlimit:10;stroke-width:12px"/><path d="M987.88,314.25h-8v-4h-4v-12h-4v-3.95h4v-8h4v8h8v3.95h-8v12h8Z" style="fill:blue;stroke:#fff;stroke-miterlimit:10;stroke-width:12px"/><path d="M996.39,310.27h-4v-12h4v-3.95h8v3.95h4v8h-12v4h12v4h-12Zm8-12h-8v4h8Z" style="fill:blue;stroke:#fff;stroke-miterlimit:10;stroke-width:12px"/><path d="M1016.86,294.33h4v3.95h4v4h-4v11.95h-4Zm8,0h4v3.95h-4Z" style="fill:blue;stroke:#fff;stroke-miterlimit:10;stroke-width:12px"/><path d="M1041.31,286.36h4v4h-4Zm0,8h4v19.92h-4Z" style="fill:blue;stroke:#fff;stroke-miterlimit:10;stroke-width:12px"/><path d="M1057.8,310.27h-4v-4h4v4h8v-4h-8v-4h-4v-4h4v-3.95h8v3.95h4v16h-12Zm8-12h-8v4h8Z" style="fill:blue;stroke:#fff;stroke-miterlimit:10;stroke-width:12px"/><path d="M1338.5,240.28h-4V224.34h-19.93v12h-4V220.36h12v-4h4v4h12Zm-12,11.92h-8v-3.95h8Zm0-7.93h4v4h-4Zm4-4h4v4h-4Z" style="fill:blue;stroke:#fff;stroke-miterlimit:10;stroke-width:12px"/><path d="M1374.52,232.27h-8v12h12v4h-27.89v-4h12v-12h-8v-3.94h19.93Z" style="fill:blue;stroke:#fff;stroke-miterlimit:10;stroke-width:12px"/><path d="M1410.53,216.38h12v12h-19.93V252.2h-4V228.33h-11.95v-4h11.95v-8h4v8h8Zm-23.9,23.9h4v8h-4Zm4-8h4v8h-4Zm19.92,8h-4v-8h4v8h4v8h-4Zm8-19.92h-4v4h4Z" style="fill:blue;stroke:#fff;stroke-miterlimit:10;stroke-width:12px"/><path d="M1438.58,224.34h-8v-4h8v4h4v4h-4Zm-4,23.91h8v3.95h-8Zm15.94,0h-8v-4h8Zm0-8h4v4h-4Zm4-8h4v8h-4Zm4-7.93h4v7.93h-4Z" style="fill:blue;stroke:#fff;stroke-miterlimit:10;stroke-width:12px"/><path d="M1466.63,248.25h8v3.95h-8Zm23.9-11.95h-4v-8h-15.94v-4h19.92Zm-15.94,8h4v4h-4Zm4-4h4v4h-4Zm15.94,8h-4v-4h-4v-4h-4v-4h4v4h4v4h4v4h4v3.95h-4Zm-4-31.87h4v8h-4Zm8,0h4v8h-4Z" style="fill:blue;stroke:#fff;stroke-miterlimit:10;stroke-width:12px"/><path d="M1343,267.27h4v15.94h4v12h-4v-8h-4v8h-4v-8h-4V267.27h4v15.94h4Zm8,0h4v15.94h-4Z" style="fill:blue;stroke:#fff;stroke-miterlimit:10;stroke-width:12px"/><path d="M1359.44,291.18h-4v-12h4v-3.95h8v3.95h4v8h-12v4h12v4h-12Zm8-12h-8v4h8Z" style="fill:blue;stroke:#fff;stroke-miterlimit:10;stroke-width:12px"/><path d="M1379.91,291.18h-4v-4h4v4h8v-4h-8v-4h-4v-4h4v-3.95h8v3.95h4v16h-11.95Zm8-12h-8v4h8Z" style="fill:blue;stroke:#fff;stroke-miterlimit:10;stroke-width:12px"/><path d="M1408.34,279.19h-8v12h8v4h-8v3.95h-4V275.24h11.95v3.95h4v12h-4Z" style="fill:blue;stroke:#fff;stroke-miterlimit:10;stroke-width:12px"/><path d="M1420.84,291.18h-4v-12h4v12h8v4h-8Zm8-12h-8v-3.95h8v3.95h4v12h-4Z" style="fill:blue;stroke:#fff;stroke-miterlimit:10;stroke-width:12px"/><path d="M1449.28,279.19h4v16h-4v-16h-8v16h-4V275.24h12Z" style="fill:blue;stroke:#fff;stroke-miterlimit:10;stroke-width:12px"/><path d="M1469.75,287.19h4v4h-4v-4h-8v-4h-4v-4h4v4h8Zm0,8h-12v-4h12Zm-8-19.92h12v3.95h-12Z" style="fill:blue;stroke:#fff;stroke-miterlimit:10;stroke-width:12px"/><path d="M1641.6,465.26h-12V481.2h-4V465.26h-15.94v-4h15.94v-8h4v8h12Zm-23.91,19.92h4v3.95h-4Zm4-4h4v4h-4Z" style="fill:blue;stroke:#fff;stroke-miterlimit:10;stroke-width:12px"/><path d="M1665.66,469.2h-12v16h19.92v3.95h-19.92v-3.95h-4V453.31h4v11.95h12Zm0-7.93h4v-8h4v11.95h-8Zm11.95-8h4v8h-4Z" style="fill:blue;stroke:#fff;stroke-miterlimit:10;stroke-width:12px"/><path d="M1685.74,469.2h4v4h-4Zm4-3.94h4v3.94h-4Zm19.92-11.95h4v8h4v4h-8v11.95h-4V465.26h-12V453.31h4v8h12Zm-15.93,31.87h4v3.95h-4Zm4-4h4v4h-4Zm4-4h4v4h-4Zm15.93-23.9h4v8h-4Z" style="fill:blue;stroke:#fff;stroke-miterlimit:10;stroke-width:12px"/><path d="M1757.61,473.23h-27.89v-4h27.89Z" style="fill:blue;stroke:#fff;stroke-miterlimit:10;stroke-width:12px"/><path d="M1773.71,469.2h-4v-3.94h4v3.94h4v4h-4Zm4-7.93h-4v-4h4v4h4v4h-4Zm-4,23.91h8v3.95h-8Zm8-4h8v4h-8Zm8-4h4v4h-4Zm4-4h4v4h-4Zm4-8h4v8h-4Z" style="fill:blue;stroke:#fff;stroke-miterlimit:10;stroke-width:12px"/><path d="M1833.63,489.13h-19.92v-3.95h15.93v-8h-15.93v-4h15.93v-4h-15.93v-3.94h19.92Z" style="fill:blue;stroke:#fff;stroke-miterlimit:10;stroke-width:12px"/><path d="M1857.69,461.27h-8v-4h8v4h4v4h-4Zm-4,23.91h8v3.95h-8Zm15.93,0h-8v-4h8Zm0-8h4v4h-4Zm4-8h4v8h-4Zm4-7.93h4v7.93h-4Z" style="fill:blue;stroke:#fff;stroke-miterlimit:10;stroke-width:12px"/><path d="M1655.35,504.2h4v27.89h-4v-4h-4v-8h-4v12h-4V504.2h4v8h4v8h4Z" style="fill:blue;stroke:#fff;stroke-miterlimit:10;stroke-width:12px"/><path d="M1667.85,528.11h-4v-4h4v4h8v-4h-8v-4h-4v-4h4v-4h8v4h4v16h-12Zm8-12h-8v4h8Z" style="fill:blue;stroke:#fff;stroke-miterlimit:10;stroke-width:12px"/><path d="M1688.32,524.12h-4v-12h4v12h8v8h-8Zm8-12h4v12h-4Z" style="fill:blue;stroke:#fff;stroke-miterlimit:10;stroke-width:12px"/><path d="M1712.77,504.2h4v4h-4Zm0,8h4v19.92h-4Z" style="fill:blue;stroke:#fff;stroke-miterlimit:10;stroke-width:12px"/><path d="M1737.22,528.11h-8v4h8V536h-8v-3.95h-4v-8h4v-4h-4v-4h4v4h4v4h4v4h4v4h-4Zm-4-12h-4v-4h12v4h-4v4h-4Z" style="fill:blue;stroke:#fff;stroke-miterlimit:10;stroke-width:12px"/><path d="M1749.72,528.11h-4v-4h4v4h8v-4h-8v-4h-4v-4h4v-4h8v4h4v16h-12Zm8-12h-8v4h8Z" style="fill:blue;stroke:#fff;stroke-miterlimit:10;stroke-width:12px"/><path d="M1782.14,532.09h-8v-4h-4v-12h-4v-4h4v-8h4v8h8v4h-8v12h8Z" style="fill:blue;stroke:#fff;stroke-miterlimit:10;stroke-width:12px"/><path d="M1794.64,504.2h4v4h-4Zm0,8h4v19.92h-4Z" style="fill:blue;stroke:#fff;stroke-miterlimit:10;stroke-width:12px"/><path d="M1811.13,528.11h-4v-12h4v12h8v4h-8Zm8-12h-8v-4h8v4h4v12h-4Z" style="fill:blue;stroke:#fff;stroke-miterlimit:10;stroke-width:12px"/><path d="M1839.57,516.12h4v16h-4v-16h-8v16h-4V512.17h12Z" style="fill:blue;stroke:#fff;stroke-miterlimit:10;stroke-width:12px"/><path d="M1150.77,616.85h-4v-4h-23.9v-4h27.89Zm-23.91,19.92h4v3.94h-4Zm4-4h4v4h-4Zm4-15.94h4v3.94h4v4h-4v8h-4Zm8,0h4v3.94h-4Z" style="fill:blue;stroke:#fff;stroke-miterlimit:10;stroke-width:12px"/><path d="M1186.78,624.82h-8v-4h-8v19.92h-4V604.89h4v12h8v3.94h8Zm-8-19.93h4v8h-4Zm8,0h4v8h-4Z" style="fill:blue;stroke:#fff;stroke-miterlimit:10;stroke-width:12px"/><path d="M1218.81,608.88h8v4h-8v-4h-12v-4h12Zm0,11.91h8v4h-8v-4h-12v-3.94h12Zm4,16h8v3.94h-8v-3.94h-15.94v-4h15.94Z" style="fill:blue;stroke:#fff;stroke-miterlimit:10;stroke-width:12px"/><path d="M1250.84,612.86h-8v-4h8v4h4v4h-4Zm-4,23.91h8v3.94h-8Zm15.94,0h-8v-4h8Zm0-8h4v4h-4Zm4-8h4v8h-4Zm4-7.93h4v7.93h-4Z" style="fill:blue;stroke:#fff;stroke-miterlimit:10;stroke-width:12px"/><path d="M1159.67,675.71h-8v8h-4V663.76h4v8h8v-8h-8v-8h8v8h4v19.92h-4Z" style="fill:blue;stroke:#fff;stroke-miterlimit:10;stroke-width:12px"/><path d="M1172.17,679.7h-4v-12h4v12h8v-12h-8v-4h8v-8h4v27.89h-12Z" style="fill:blue;stroke:#fff;stroke-miterlimit:10;stroke-width:12px"/><path d="M1204.59,667.71h4v16h-4v-16h-4v16h-4v-16h-4v16h-4V663.76h15.93Z" style="fill:blue;stroke:#fff;stroke-miterlimit:10;stroke-width:12px"/><path d="M1217.09,655.79h4v4h-4Zm0,8h4v19.92h-4Z" style="fill:blue;stroke:#fff;stroke-miterlimit:10;stroke-width:12px"/><path d="M1241.55,667.71h4v16h-4v-16h-8v16h-4V663.76h12Z" style="fill:blue;stroke:#fff;stroke-miterlimit:10;stroke-width:12px"/><path d="M1334.59,794.84h-4V790.9h4v3.94h4v4h-4Zm4-7.93h-4v-4h4v4h4v4h-4Zm-4,23.91h8v3.94h-8Zm8-4h8v4h-8Zm8-4h4v4h-4Zm4-4h4v4h-4Zm4-8h4v8h-4Z" style="fill:blue;stroke:#fff;stroke-miterlimit:10;stroke-width:12px"/><path d="M1398.5,798.87h-27.89v-4h27.89Z" style="fill:blue;stroke:#fff;stroke-miterlimit:10;stroke-width:12px"/><path d="M1410.61,810.82h4v3.94h-4Zm4-27.89h4v27.89h-4Zm12-4h4v27.89h4v4h-4v3.94h-4Zm8,23.91h4v4h-4Zm4-8h4v8h-4Z" style="fill:blue;stroke:#fff;stroke-miterlimit:10;stroke-width:12px"/><path d="M1474.52,798.87h-8v-4h-8v19.92h-4V778.94h4v12h8v3.94h8Zm-8-19.93h4v8h-4Zm8,0h4v8h-4Z" style="fill:blue;stroke:#fff;stroke-miterlimit:10;stroke-width:12px"/><path d="M1346.94,845.78h4v8h-4v-8h-8v-4h-4v-7.93h4v7.93h8Zm-8,8h-4v-4h4v4h8v4h-8Zm8-19.93h-8v-4h8v4h4v4h-4Z" style="fill:blue;stroke:#fff;stroke-miterlimit:10;stroke-width:12px"/><path d="M1367.41,841.75h4v16h-4v-16h-8v16h-4V829.84h4v8h8Z" style="fill:blue;stroke:#fff;stroke-miterlimit:10;stroke-width:12px"/><path d="M1383.89,829.84h4v4h-4Zm0,8h4v19.92h-4Z" style="fill:blue;stroke:#fff;stroke-miterlimit:10;stroke-width:12px"/><path d="M1400.38,853.75h-4v-12h4v-3.94h8v3.94h4v8h-11.95v4h11.95v4h-11.95Zm8-12h-8v4h8Z" style="fill:blue;stroke:#fff;stroke-miterlimit:10;stroke-width:12px"/><path d="M1424.83,829.84h4v27.89h-4Z" style="fill:blue;stroke:#fff;stroke-miterlimit:10;stroke-width:12px"/><path d="M1441.31,853.75h-4v-12h4v12h8v-12h-8v-3.94h8v-8h4v27.89h-12Z" style="fill:blue;stroke:#fff;stroke-miterlimit:10;stroke-width:12px"/><path d="M1469.75,849.76h4v4h-4v-4h-8v-4h-4v-4h4v4h8Zm0,8h-12v-4h12Zm-8-19.92h12v3.94h-12Z" style="fill:blue;stroke:#fff;stroke-miterlimit:10;stroke-width:12px"/><path d="M1035.05,947.81h-27.89v-4h23.9V927.89h-23.9v-4h27.89Z" style="fill:blue;stroke:#fff;stroke-miterlimit:10;stroke-width:12px"/><path d="M1063.09,919.92h8v4h-8v-4h-11.95v-4h11.95Zm0,11.91h8v4h-8v-4h-11.95v-3.94h11.95Zm4,16h8v3.94h-8v-3.94h-15.94v-4h15.94Z" style="fill:blue;stroke:#fff;stroke-miterlimit:10;stroke-width:12px"/><path d="M1107.08,943.83h8v4h-27.89v-4h15.93v-12h-11.95v-3.94h15.94Z" style="fill:blue;stroke:#fff;stroke-miterlimit:10;stroke-width:12px"/><path d="M1159,947.81h-31.87v-4H1159Zm-4-23.91h-23.91v-4h23.91Z" style="fill:blue;stroke:#fff;stroke-miterlimit:10;stroke-width:12px"/><path d="M1167.16,931.83h4v4h-4Zm4-3.94h4v3.94h-4Zm27.89,0h-8v12h-4v-12h-12v-12h4v8H1199Zm-23.91,19.92h4v3.94h-4Zm4-4h4v4h-4Zm4-4h4v4h-4Z" style="fill:blue;stroke:#fff;stroke-miterlimit:10;stroke-width:12px"/><path d="M1235.05,935.86h-27.89v-4h27.89Z" style="fill:blue;stroke:#fff;stroke-miterlimit:10;stroke-width:12px"/><path d="M1251.14,931.83h-4v-3.94h4v3.94h4v4h-4Zm4-7.93h-4v-4h4v4h4v4h-4Zm-4,23.91h8v3.94h-8Zm8-4h8v4h-8Zm8-4h4v4h-4Zm4-4h4v4h-4Zm4-8h4v8h-4Z" style="fill:blue;stroke:#fff;stroke-miterlimit:10;stroke-width:12px"/><path d="M1311.06,951.75h-19.92v-3.94h15.94v-8h-15.94v-4h15.94v-4h-15.94v-3.94h19.92Z" style="fill:blue;stroke:#fff;stroke-miterlimit:10;stroke-width:12px"/><path d="M1335.12,923.9h-8v-4h8v4h4v4h-4Zm-4,23.91h8v3.94h-8Zm15.94,0h-8v-4h8Zm0-8h4v4h-4Zm4-8h4v8h-4Zm4-7.93h4v7.93h-4Z" style="fill:blue;stroke:#fff;stroke-miterlimit:10;stroke-width:12px"/><path d="M1043.87,990.74h-4V970.82h4v19.92h8v4h-8Zm8-19.92h-8v-4h8v4h4v4h-4Zm0,15.93h4v4h-4Z" style="fill:blue;stroke:#fff;stroke-miterlimit:10;stroke-width:12px"/><path d="M1064.34,990.74h-4v-12h4v12h8v4h-8Zm8-12h-8v-4h8v4h4v12h-4Z" style="fill:blue;stroke:#fff;stroke-miterlimit:10;stroke-width:12px"/><path d="M1096.76,978.75h4v16h-4v-16h-4v16h-4v-16h-4v16h-4V974.8h15.93Z" style="fill:blue;stroke:#fff;stroke-miterlimit:10;stroke-width:12px"/><path d="M1117.23,978.75h4v16h-4v-16h-4v16h-4v-16h-4v16h-4V974.8h15.93Z" style="fill:blue;stroke:#fff;stroke-miterlimit:10;stroke-width:12px"/><path d="M1133.72,974.8h4v19.92h-12v-4h-4V974.8h4v15.94h8Z" style="fill:blue;stroke:#fff;stroke-miterlimit:10;stroke-width:12px"/><path d="M1154.19,978.75h4v16h-4v-16h-8v16h-4V974.8h12Z" style="fill:blue;stroke:#fff;stroke-miterlimit:10;stroke-width:12px"/><path d="M1170.67,966.83h4v4h-4Zm0,8h4v19.92h-4Z" style="fill:blue;stroke:#fff;stroke-miterlimit:10;stroke-width:12px"/><path d="M1187.16,990.74h-4v-12h4v12h8v4h-8Zm8-12h-8v-4h8v4h4v4h-4Zm0,8h4v4h-4Z" style="fill:blue;stroke:#fff;stroke-miterlimit:10;stroke-width:12px"/><path d="M1207.62,990.74h-4v-4h4v4h8v-4h-8v-4h-4v-4h4v-4h8v4h4v16h-12Zm8-12h-8v4h8Z" style="fill:blue;stroke:#fff;stroke-miterlimit:10;stroke-width:12px"/><path d="M1240.05,994.72h-8v-4h-4v-12h-4v-4h4v-8h4v8h8v4h-8v12h8Z" style="fill:blue;stroke:#fff;stroke-miterlimit:10;stroke-width:12px"/><path d="M1252.55,966.83h4v4h-4Zm0,8h4v19.92h-4Z" style="fill:blue;stroke:#fff;stroke-miterlimit:10;stroke-width:12px"/><path d="M1269,990.74h-4v-12h4v12h8v4h-8Zm8-12h-8v-4h8v4h4v12h-4Z" style="fill:blue;stroke:#fff;stroke-miterlimit:10;stroke-width:12px"/><path d="M1297.47,978.75h4v16h-4v-16h-8v16h-4V974.8h12Z" style="fill:blue;stroke:#fff;stroke-miterlimit:10;stroke-width:12px"/><path d="M1317.94,986.75h4v4h-4v-4h-8v-4h-4v-4h4v4h8Zm0,8h-12v-4h12Zm-8-19.92h12v4h-12Z" style="fill:blue;stroke:#fff;stroke-miterlimit:10;stroke-width:12px"/><path d="M841.35,836.1h-8v-4h8Zm15.94-27.85H837.37v-4h23.9v8h-4Zm-15.94,19.92h4v4h-4Zm4-4h4v4h-4Zm15.93,8h-4v-4h-4v-4h-4v-4h4v4h4v4h4v4h4v4h-4Zm-8-19.92h4v8h-4Z" style="fill:blue;stroke:#fff;stroke-miterlimit:10;stroke-width:12px"/><path d="M901.27,820.2h-8v-4h-8V836.1h-4V800.28h4v12h8v3.95h8Z" style="fill:blue;stroke:#fff;stroke-miterlimit:10;stroke-width:12px"/><path d="M921.35,800.28h4v31.87h4v4h-8Zm8,27.89h8v4h-8Zm8-4h4v4h-4Zm4-4h4v4h-4Z" style="fill:blue;stroke:#fff;stroke-miterlimit:10;stroke-width:12px"/><path d="M981.27,820.2H953.38v-4h27.89Z" style="fill:blue;stroke:#fff;stroke-miterlimit:10;stroke-width:12px"/><path d="M997.37,816.18h-4v-3.95h4v3.95h4v4h-4Zm4-7.93h-4v-4h4v4h4v4h-4Zm4,27.85h-8v-4h8Zm0-7.93h8v4h-8Zm8-27.89h4v8h-4Zm0,23.9h4v4h-4Zm4-4h4v4h-4Zm4-19.92h4v8h-4Zm0,15.9h4v4h-4Z" style="fill:blue;stroke:#fff;stroke-miterlimit:10;stroke-width:12px"/><path d="M869.71,867.11h4v8h-4v-8h-8v-4h-4v-7.93h4v7.93h8Zm-8,8h-4v-4h4v4h8v4h-8Zm8-19.92h-8v-4h8v4h4v4h-4Z" style="fill:blue;stroke:#fff;stroke-miterlimit:10;stroke-width:12px"/><path d="M894.16,879.06h-8v-4h-4v-12h-4v-4h4v-8h4v8h8v4h-8v12h8Z" style="fill:blue;stroke:#fff;stroke-miterlimit:10;stroke-width:12px"/><path d="M902.68,875.08h-4v-12h4v12h8v4h-8Zm8-12h-8v-4h8v4h4v12h-4Z" style="fill:blue;stroke:#fff;stroke-miterlimit:10;stroke-width:12px"/><path d="M923.15,859.14h4v4h4v4h-4v11.95h-4Zm8,0h4v4h-4Z" style="fill:blue;stroke:#fff;stroke-miterlimit:10;stroke-width:12px"/><path d="M943.62,875.08h-4v-4h4v4h8v-4h-8v-4h-4v-4h4v-4h8v4h4v16h-12Zm8-12h-8v4h8Z" style="fill:blue;stroke:#fff;stroke-miterlimit:10;stroke-width:12px"/><path d="M972.05,875.08h-8v4h8v4h-8v-4h-4v-8h4v-4h-4v-4h4v4h4v4h4v4h4v4h-4Zm-4-12h-4v-4H976v4h-4v4h-4Z" style="fill:blue;stroke:#fff;stroke-miterlimit:10;stroke-width:12px"/><path d="M984.55,875.08h-4v-12h4v-4h8v4h4v8h-12v4h12v4h-12Zm8-12h-8v4h8Z" style="fill:blue;stroke:#fff;stroke-miterlimit:10;stroke-width:12px"/><path d="M567.5,674.62h-12v19.92h15.93v4H539.61v-4h11.95V674.62h-8v-4H567.5Z" style="fill:blue;stroke:#fff;stroke-miterlimit:10;stroke-width:12px"/><path d="M587.58,666.65h4v31.88h4v3.94h-8Zm8,27.89h8v4h-8Zm8-4h4v4h-4Zm4-4h4v4h-4Z" style="fill:blue;stroke:#fff;stroke-miterlimit:10;stroke-width:12px"/><path d="M619.61,682.55h4v4h-4Zm4-3.94h4v3.94h-4Zm0,19.92h8v3.94h-8Zm23.91-16h-4v-7.93h-12v4h-4v-12h4v4H647.5Zm-15.94,12h4v4h-4Zm4-4h4v4h-4Zm4-8h4v8h-4Z" style="fill:blue;stroke:#fff;stroke-miterlimit:10;stroke-width:12px"/><path d="M687.5,686.58h-8v-4h-8v19.92h-4V666.65h4v12h8v3.94h8Z" style="fill:blue;stroke:#fff;stroke-miterlimit:10;stroke-width:12px"/><path d="M703.59,670.64h4v19.92h-4Zm8,27.89h8v3.94h-8Zm8-4h4v4h-4Zm4-27.89h4v27.89h-4Z" style="fill:blue;stroke:#fff;stroke-miterlimit:10;stroke-width:12px"/><path d="M767.5,698.53h-4V678.61h-12v11.95h-4V678.61h-8v-4h8v-8h4v8H767.5Zm-27.89,0h4v3.94h-4Zm4-8h4v8h-4Zm19.93,11.91h-12v-3.94h12Z" style="fill:blue;stroke:#fff;stroke-miterlimit:10;stroke-width:12px"/><path d="M779.61,698.53h4v3.94h-4Zm4-27.89h4v27.89h-4Zm12-4h4v27.89h4v4h-4v3.94h-4Zm8,23.91h4v4h-4Zm4-8h4v8h-4Z" style="fill:blue;stroke:#fff;stroke-miterlimit:10;stroke-width:12px"/><path d="M585.23,733.49h-8v8h12v4H573.28V717.55h15.94v4h-12v7.92h8Z" style="fill:blue;stroke:#fff;stroke-miterlimit:10;stroke-width:12px"/><path d="M601.72,717.55h4v27.89h-4Z" style="fill:blue;stroke:#fff;stroke-miterlimit:10;stroke-width:12px"/><path d="M618.2,741.46h-4v-12h4v-3.94h8v3.94h4v8h-12v4h12v4h-12Zm8-12h-8v4h8Z" style="fill:blue;stroke:#fff;stroke-miterlimit:10;stroke-width:12px"/><path d="M638.67,741.46h-4v-12h4v12h8v4h-8Zm8-12h-8v-3.94h8v3.94h4v4h-4Zm0,8h4v4h-4Z" style="fill:blue;stroke:#fff;stroke-miterlimit:10;stroke-width:12px"/><path d="M671.09,745.44h-8v-4h-4v-12h-4v-3.94h4v-8h4v8h8v3.94h-8v12h8Z" style="fill:blue;stroke:#fff;stroke-miterlimit:10;stroke-width:12px"/><path d="M679.61,725.52h4v3.94h4v4h-4v12h-4Zm8,0h4v3.94h-4Z" style="fill:blue;stroke:#fff;stroke-miterlimit:10;stroke-width:12px"/><path d="M704.06,717.55h4v4h-4Zm0,8h4v19.92h-4Z" style="fill:blue;stroke:#fff;stroke-miterlimit:10;stroke-width:12px"/><path d="M720.55,741.46h-4v-12h4v12h8v4h-8Zm8-12h-8v-3.94h8v3.94h4v4h-4Zm0,8h4v4h-4Z" style="fill:blue;stroke:#fff;stroke-miterlimit:10;stroke-width:12px"/><path d="M741,741.46h-4v-4h4v4h8v-4h-8v-4h-4v-4h4v-3.94h8v3.94h4v16H741Zm8-12h-8v4h8Z" style="fill:blue;stroke:#fff;stroke-miterlimit:10;stroke-width:12px"/><path d="M765.47,717.55h4v27.89h-4Z" style="fill:blue;stroke:#fff;stroke-miterlimit:10;stroke-width:12px"/><path d="M579.51,448.7h-8v-3.94h8Zm15.93-7.93h-4v-4h-4v-4h-4v-4h-4v-3.95h4v3.95h4v4h4v4h4v4h4v4h-4Zm-15.93,0h4v4h-4Zm4-4h4v4h-4Zm8-12h4v8h-4Zm4-11.95h4v11.95h-4Z" style="fill:blue;stroke:#fff;stroke-miterlimit:10;stroke-width:12px"/><path d="M635.44,432.8h-8v-4h-8V448.7h-4V412.88h4v11.95h8v3.95h8Zm-8-19.92h4v8h-4Zm8,0h4v8h-4Z" style="fill:blue;stroke:#fff;stroke-miterlimit:10;stroke-width:12px"/><path d="M651.54,432.8h4v4h-4Zm4-8h4v8h-4Zm23.91,15.94h-4v-4h-4v-4h-4v-4h-4v-3.95h-4v-4h4v4h4v3.95h4v4h4v4h4v4h4v4h-4Zm-8-23.9h4v8h-4Zm8,0h4v8h-4Z" style="fill:blue;stroke:#fff;stroke-miterlimit:10;stroke-width:12px"/><path d="M691.54,432.8h8v4h-8Zm8-4h4v4h-4Zm8,0h-4v-3.95h4v-4h4V448.7h-4Zm4-11.91h4v4h-4Zm4-4h4v4h-4Z" style="fill:blue;stroke:#fff;stroke-miterlimit:10;stroke-width:12px"/><path d="M594.11,479.72h-4v11.95h-4V463.78h4v4h4v12h4v11.95h-4Zm8,0h-4v-12h4v-4h4v27.89h-4Z" style="fill:blue;stroke:#fff;stroke-miterlimit:10;stroke-width:12px"/><path d="M610.6,487.68h-4v-12h4v-3.94h8v3.94h4v8H610.6v4h11.95v4H610.6Zm8-12h-8v4h8Z" style="fill:blue;stroke:#fff;stroke-miterlimit:10;stroke-width:12px"/><path d="M631.07,487.68h-4v-12h4v12h8v-12h-8v-3.94h8v-8h4v27.89H631.07Z" style="fill:blue;stroke:#fff;stroke-miterlimit:10;stroke-width:12px"/><path d="M659.51,467.76h4v7.93h-4v-7.93h-8v7.93h8v4h4v8h-4v-8h-8v8h8v4h-12V463.78h12Z" style="fill:blue;stroke:#fff;stroke-miterlimit:10;stroke-width:12px"/><path d="M672,487.68h-4v-4h4v4h8v-4h-8v-4h-4v-4h4v-3.94h8v3.94h4v16H672Zm8-12h-8v4h8Z" style="fill:blue;stroke:#fff;stroke-miterlimit:10;stroke-width:12px"/><path d="M696.46,483.7h-4v-4h-4v-8h4v8h4v4h4v8h-4Zm0,11.91h-8v-3.94h8Zm4-23.86h4V483.7h-4Z" style="fill:blue;stroke:#fff;stroke-miterlimit:10;stroke-width:12px"/><path d="M359.34,511h-4V495h-8v-3.95h8V479.13h4v11.95h4V495h-4v16h19.92V515H359.34Zm19.92-16h-4v-3.95H363.32v-4h15.94Zm-11.95,4h4v4h-4Zm4-4h4v4h-4Z" style="fill:blue;stroke:#fff;stroke-miterlimit:10;stroke-width:12px"/><path d="M415.27,491.08H403.32v8h11.95v4h-8V515h-4V503H387.38v-4h12v-8h-12v-4h12v-8h4v8h11.95Z" style="fill:blue;stroke:#fff;stroke-miterlimit:10;stroke-width:12px"/><path d="M447.31,507h8v4H427.38v-4h15.94V495H431.37v-3.95h15.94Z" style="fill:blue;stroke:#fff;stroke-miterlimit:10;stroke-width:12px"/><path d="M471.37,483.12h4V503h-4Zm8,27.89h8V515h-8Zm8-4h4v4h-4Zm4-27.89h4V507h-4Z" style="fill:blue;stroke:#fff;stroke-miterlimit:10;stroke-width:12px"/><path d="M539.26,495h-12v12h-4V495H507.38v-3.95h31.88Zm-4-7.93h-23.9v-4h23.9ZM515.35,511h4V515h-4Zm4-4h4v4h-4Z" style="fill:blue;stroke:#fff;stroke-miterlimit:10;stroke-width:12px"/><path d="M559.34,503h-8v-4h8Zm8,11.91h-4v-15.9h-4v-4h8Zm0-23.87h4V495h-4Zm4-4h4v4h-4Z" style="fill:blue;stroke:#fff;stroke-miterlimit:10;stroke-width:12px"/><path d="M393.48,546h4v8h-4v-8h-8v-4h-4V534h4v7.93h8Zm-8,8h-4v-4h4v4h8v4h-8Zm8-19.92h-8v-4h8v4h4v4h-4Z" style="fill:blue;stroke:#fff;stroke-miterlimit:10;stroke-width:12px"/><path d="M406,553.93h-4v-12h4V538h8v3.94h4v8H406v4h11.95v4H406Zm8-12h-8v4h8Z" style="fill:blue;stroke:#fff;stroke-miterlimit:10;stroke-width:12px"/><path d="M426.45,553.93h-4v-12h4v12h8v4h-8Zm8-12h-8V538h8v3.94h4v4h-4Zm0,8h4v4h-4Z" style="fill:blue;stroke:#fff;stroke-miterlimit:10;stroke-width:12px"/><path d="M454.88,538h4v19.92h-12v-4h-4V538h4v15.93h8Z" style="fill:blue;stroke:#fff;stroke-miterlimit:10;stroke-width:12px"/><path d="M467.38,538h4v3.94h4v4h-4v11.95h-4Zm8,0h4v3.94h-4Z" style="fill:blue;stroke:#fff;stroke-miterlimit:10;stroke-width:12px"/><path d="M491.84,530h4v4h-4Zm0,8h4v19.92h-4Z" style="fill:blue;stroke:#fff;stroke-miterlimit:10;stroke-width:12px"/><path d="M520.27,557.92h-8v-4h-4v-12h-4V538h4v-8h4v8h8v3.94h-8v12h8Z" style="fill:blue;stroke:#fff;stroke-miterlimit:10;stroke-width:12px"/><path d="M532.77,550h-4v-4h-4v-8h4v8h4v4h4v8h-4Zm0,11.91h-8v-3.94h8Zm4-23.86h4v12h-4Z" style="fill:blue;stroke:#fff;stroke-miterlimit:10;stroke-width:12px"/><path d="M32.25,483.12h4V503h-4Zm8,27.89h8V515h-8Zm8-4h4v4h-4Zm4-27.89h4V507h-4Z" style="fill:blue;stroke:#fff;stroke-miterlimit:10;stroke-width:12px"/><path d="M96.16,491.08h-4v-4H68.27v-4H96.16ZM72.25,511h4V515h-4Zm4-4h4v4h-4Zm4-15.94h4V495h4v4h-4v8h-4Zm8,0h4V495h-4Z" style="fill:blue;stroke:#fff;stroke-miterlimit:10;stroke-width:12px"/><path d="M108.27,495h4v4h-4Zm4-3.95h4V495h-4Zm0,19.93h8V515h-8Zm23.91-16h-4V487.1h-12v4h-4V479.13h4v4h15.94Zm-15.94,12h4v4h-4Zm4-4h4v4h-4Zm4-8h4v8h-4Z" style="fill:blue;stroke:#fff;stroke-miterlimit:10;stroke-width:12px"/><path d="M148.27,495h4v4h-4Zm15.94,4h4v-4h4v8h-4v4h-4v-8h-8v-4h-4v-3.95h4V495h8Zm-12,12h8V515h-8Zm23.91-16h-4V487.1h-12v4h-4V479.13h4v4h15.94Zm-15.94,12h4v4h-4Z" style="fill:blue;stroke:#fff;stroke-miterlimit:10;stroke-width:12px"/><path d="M216.16,499.05H188.27v-4h27.89Z" style="fill:blue;stroke:#fff;stroke-miterlimit:10;stroke-width:12px"/><path d="M64.6,534h4v7.93h-4V534h-8v7.93h8v8h4v8h-4v-8h-4v-4h-4v11.95h-4V530H64.6Z" style="fill:blue;stroke:#fff;stroke-miterlimit:10;stroke-width:12px"/><path d="M77.1,553.93h-4v-12h4V538h8v3.94h4v8h-12v4h12v4h-12Zm8-12h-8v4h8Z" style="fill:blue;stroke:#fff;stroke-miterlimit:10;stroke-width:12px"/><path d="M97.57,553.93h-4v-4h4v4h8v-4h-8v-4h-4v-4h4V538h8v3.94h4v16h-12Zm8-12h-8v4h8Z" style="fill:blue;stroke:#fff;stroke-miterlimit:10;stroke-width:12px"/><path d="M118,553.93h-4v-12h4v12h8v4h-8Zm8-12h-8V538h8v3.94h4v4h-4Zm0,8h4v4h-4Z" style="fill:blue;stroke:#fff;stroke-miterlimit:10;stroke-width:12px"/><path d="M150.46,557.92h-8v-4h-4v-12h-4V538h4v-8h4v8h8v3.94h-8v12h8Z" style="fill:blue;stroke:#fff;stroke-miterlimit:10;stroke-width:12px"/><path d="M159,553.93h-4v-12h4v12h8v4h-8Zm8-12h-8V538h8v3.94h4v12h-4Z" style="fill:blue;stroke:#fff;stroke-miterlimit:10;stroke-width:12px"/><path d="M179.44,538h4v3.94h4v4h-4v11.95h-4Zm8,0h4v3.94h-4Z" style="fill:blue;stroke:#fff;stroke-miterlimit:10;stroke-width:12px"/><path d="M250.21,233.94h-4v-4h-23.9v-4h27.89ZM226.3,253.86h4v3.95h-4Zm4-4h4v4h-4Zm4-15.94h4v3.95h4v4h-4v8h-4Zm8,0h4v3.95h-4Z" style="fill:blue;stroke:#fff;stroke-miterlimit:10;stroke-width:12px"/><path d="M266.3,233.94h4v8h-4Zm12,23.87h-8v-3.95h8Zm-4-23.87h4v8h-4Zm4,15.94h4v4h-4Zm4-4h4v4h-4Zm4-12h4v12h-4Z" style="fill:blue;stroke:#fff;stroke-miterlimit:10;stroke-width:12px"/><path d="M298.33,249.88h4v4h-4Zm4-8h4v8h-4Zm4-11.95h4v11.95h-4Zm19.92,11.95h-4v-8h-4v-4h4v-8h11.95v11.95h-8v8h4v12h-4Zm4-15.94h-4v4h4Z" style="fill:blue;stroke:#fff;stroke-miterlimit:10;stroke-width:12px"/><path d="M370.21,241.91H342.32v-4h27.89Z" style="fill:blue;stroke:#fff;stroke-miterlimit:10;stroke-width:12px"/><path d="M251.15,296.79h-4v-23.9h4v23.9h8v4h-8Zm8-23.9h4v23.9h-4Z" style="fill:blue;stroke:#fff;stroke-miterlimit:10;stroke-width:12px"/><path d="M279.58,284.8h-8v12h8v4h-8v3.94h-4V280.86h11.95v3.94h4v12h-4Z" style="fill:blue;stroke:#fff;stroke-miterlimit:10;stroke-width:12px"/><path d="M300.05,284.8h-8v12h8v4h-8v3.94h-4V280.86h11.95v3.94h4v12h-4Z" style="fill:blue;stroke:#fff;stroke-miterlimit:10;stroke-width:12px"/><path d="M312.55,296.79h-4v-12h4v-3.94h8v3.94h4v8h-12v4h12v4h-12Zm8-12h-8v4h8Z" style="fill:blue;stroke:#fff;stroke-miterlimit:10;stroke-width:12px"/><path d="M333,280.86h4v3.94h4v4h-4v12h-4Zm8,0h4v3.94h-4Z" style="fill:blue;stroke:#fff;stroke-miterlimit:10;stroke-width:12px"/><path d="M248.88,320.27h-8v8h12v4H236.93V304.33h15.94v4h-12v7.93h8Z" style="fill:blue;stroke:#fff;stroke-miterlimit:10;stroke-width:12px"/><path d="M269.35,316.24h4v16h-4v-16h-8v16h-4V312.3h12Z" style="fill:blue;stroke:#fff;stroke-miterlimit:10;stroke-width:12px"/><path d="M289.82,328.23h-8v4h8v3.94h-8v-3.94h-4v-8h4v-4h-4v-4h4v4h4v4h4v4h4v4h-4Zm-4-12h-4V312.3H293.8v3.94h-4v4h-4Z" style="fill:blue;stroke:#fff;stroke-miterlimit:10;stroke-width:12px"/><path d="M306.3,304.33h4v4h-4Zm0,8h4v19.92h-4Z" style="fill:blue;stroke:#fff;stroke-miterlimit:10;stroke-width:12px"/><path d="M330.76,316.24h4v16h-4v-16h-8v16h-4V312.3h12Z" style="fill:blue;stroke:#fff;stroke-miterlimit:10;stroke-width:12px"/><path d="M343.26,328.23h-4v-12h4V312.3h8v3.94h4v8H343.26v4h11.95v4H343.26Zm8-12h-8v4h8Z" style="fill:blue;stroke:#fff;stroke-miterlimit:10;stroke-width:12px"/><path d="M270.21,773.76H242.32V745.87h27.89Zm-4-23.9H246.3v19.92h19.92Z" style="fill:blue;stroke:#fff;stroke-miterlimit:10;stroke-width:12px"/><path d="M310.21,765.79h-4V749.86H286.3v11.95h-4V745.87h27.89Zm-11.95,11.92h-8v-4h8Zm0-7.93h4v4h-4Zm4-4h4v4h-4Z" style="fill:blue;stroke:#fff;stroke-miterlimit:10;stroke-width:12px"/><path d="M350.21,761.81H322.32v-4h27.89Z" style="fill:blue;stroke:#fff;stroke-miterlimit:10;stroke-width:12px"/><path d="M247.16,792.78h4v23.91h12v4H247.16Z" style="fill:blue;stroke:#fff;stroke-miterlimit:10;stroke-width:12px"/><path d="M271.62,816.69h-4v-12h4v12h8v4h-8Zm8-12h-8v-4h8v4h4v12h-4Z" style="fill:blue;stroke:#fff;stroke-miterlimit:10;stroke-width:12px"/><path d="M292.08,812.71h-4v-12h4v12h4v8h-4Zm8,0h-4v-12h4v12h4v8h-4Zm4-12h4v12h-4Z" style="fill:blue;stroke:#fff;stroke-miterlimit:10;stroke-width:12px"/><path d="M312.55,816.69h-4v-12h4v-4h8v4h4v8h-12v4h12v4h-12Zm8-12h-8v4h8Z" style="fill:blue;stroke:#fff;stroke-miterlimit:10;stroke-width:12px"/><path d="M333,800.75h4v4h4v4h-4v11.95h-4Zm8,0h4v4h-4Z" style="fill:blue;stroke:#fff;stroke-miterlimit:10;stroke-width:12px"/><path d="M248.88,840.16h-8v8h12v4H236.93V824.23h15.94v4h-12v7.93h8Z" style="fill:blue;stroke:#fff;stroke-miterlimit:10;stroke-width:12px"/><path d="M269.35,836.14h4v16h-4v-16h-8v16h-4V832.19h12Z" style="fill:blue;stroke:#fff;stroke-miterlimit:10;stroke-width:12px"/><path d="M289.82,848.13h-8v4h8v3.94h-8v-3.94h-4v-8h4v-4h-4v-4h4v4h4v4h4v4h4v4h-4Zm-4-12h-4v-3.95H293.8v3.95h-4v4h-4Z" style="fill:blue;stroke:#fff;stroke-miterlimit:10;stroke-width:12px"/><path d="M306.3,824.23h4v4h-4Zm0,8h4v19.93h-4Z" style="fill:blue;stroke:#fff;stroke-miterlimit:10;stroke-width:12px"/><path d="M330.76,836.14h4v16h-4v-16h-8v16h-4V832.19h12Z" style="fill:blue;stroke:#fff;stroke-miterlimit:10;stroke-width:12px"/><path d="M343.26,848.13h-4v-12h4v-3.95h8v3.95h4v8H343.26v4h11.95v4H343.26Zm8-12h-8v4h8Z" style="fill:blue;stroke:#fff;stroke-miterlimit:10;stroke-width:12px"/><path d="M1228.86,427.08h-8V451h-12V447h8V431h-4v-3.94H1197v-4h19.92v-8h4v8h8ZM1205,443h-8v-4h8Zm0-8h4v4h-4Zm4-4h4v4h-4Z" style="fill:blue;stroke:#fff;stroke-miterlimit:10;stroke-width:12px"/><path d="M1264.88,435.05H1237v-4h27.89Z" style="fill:blue;stroke:#fff;stroke-miterlimit:10;stroke-width:12px"/><path d="M1281,427.08h-4v-4h4v4h4v8h-4Zm8-4h-4v-4h4v4h4V431h-4Zm-4,23.9h8V451h-8Zm8-4h4v4h-4Zm4-4h4v4h-4Zm4-8h4v8h-4Zm4-11.91h4V431h-4Z" style="fill:blue;stroke:#fff;stroke-miterlimit:10;stroke-width:12px"/><path d="M1344.88,435.05H1317v-4h27.89Z" style="fill:blue;stroke:#fff;stroke-miterlimit:10;stroke-width:12px"/><path d="M1256.52,489.93h-4V470h4v19.92h8v4h-8Zm8-19.92h-8v-4h8v4h4v19.92h-4Z" style="fill:blue;stroke:#fff;stroke-miterlimit:10;stroke-width:12px"/><path d="M1273,470h4v4h-4Zm0,15.94h4v4h12v4H1273ZM1285,470h-8v-4h8v4h4v7.93h-4ZM1277,482h4v4h-4Zm4-4h4v4h-4Z" style="fill:blue;stroke:#fff;stroke-miterlimit:10;stroke-width:12px"/><path d="M1666.73,966.31h-4V946.39h-12v12h-4v-12h-8v-4h8v-8h4v8h15.93Zm-27.89,0h4v4h-4Zm4-8h4v8h-4Zm19.92,11.92h-12v-4h12Z" style="stroke:#fff;stroke-miterlimit:10;stroke-width:12px"/><path d="M1686.81,970.26h-8v-4h8Zm15.94-7.93h-4v-4h-4v-4h-4v-4h-4v-3.94h4v3.94h4v4h4v4h4v4h4v4h-4Zm-15.94,0h4v4h-4Zm4-4h4v4h-4Zm8-12h4v8h-4Zm4-11.95h4v11.95h-4Z" style="stroke:#fff;stroke-miterlimit:10;stroke-width:12px"/><path d="M1746.73,958.34h-4v-8h-23.91v-3.94h27.89Zm-23.9-23.9h19.92v4h-19.92Zm4,31.87h8v4h-8Zm8-4h4v4h-4Zm4-4h4v4h-4Z" style="stroke:#fff;stroke-miterlimit:10;stroke-width:12px"/><path d="M1786.73,970.26h-19.92v-4h-4v-8h4v8h19.92Zm-8-15.9h-8v-4h-4V934.44h4v15.89h8Zm-12,0h4v4h-4Zm12-8h8v3.94h-8Z" style="stroke:#fff;stroke-miterlimit:10;stroke-width:12px"/><path d="M1810.8,942.4h4v4h4v-4h-4v-8h4v4h12v4h-8v4h4v12h-4v-8h-4v16h8v-4h4v7.93h-15.94v-4h-8v4h-4v-4h-8v-4h4v-8h4v-4h-8V942.4h4v4h4v-4h-4v-8h4v4h8Zm-4,15.94h-4v4h4Zm4-15.94h-4v4h4Zm4,7.93h-8v4h4v8h4Z" style="stroke:#fff;stroke-miterlimit:10;stroke-width:12px"/><path d="M1870.72,970.26h-35.86V934.44h35.86Zm-4-31.84h-8v4h4v4h-4v3.94h4v4h-4v8h-4v-8h-4v4h-4v-4h-4v-4h4v-3.94h-4v-4h4v-4h-8v27.89h27.89Zm-23.9,19.92h4v4h-4Zm12-19.92h-4v4h4Zm0,8h-4v3.94h4Z" style="stroke:#fff;stroke-miterlimit:10;stroke-width:12px"/><path d="M1641.78,1039.16h4v4h-4Zm4-8h4v8h-4Zm23.91,15.94h-4v-4h-4v-4h-4v-4h-4v-4h-4v-4h4v4h4v4h4v4h4v4h4v4h4v4h-4Zm-8-23.91h4v8h-4Zm8,0h4v8h-4Z" style="stroke:#fff;stroke-miterlimit:10;stroke-width:12px"/><path d="M1689.74,1027.21h-8v-4h8v4h4v4h-4Zm-4,23.9h8v4h-8Zm15.94,0h-8v-4h8Zm0-8h4v4h-4Zm4-8h4v8h-4Zm4-7.93h4v7.93h-4Z" style="stroke:#fff;stroke-miterlimit:10;stroke-width:12px"/><path d="M1749.67,1039.16h-8v-4h-8v19.92h-4v-35.82h4v12h8v4h8Z" style="stroke:#fff;stroke-miterlimit:10;stroke-width:12px"/></g></g><g id="names"><g id="text-2" data-name="text"><text transform="translate(862.17 269.84)" style="font-size:40px;fill:blue;font-family:AFSDot10GSQR, AFS Dot10 GSQR">カフェテリア<tspan x="27.89" y="46.8">Cafeteria</tspan></text><text transform="translate(1306.63 250.75)" style="font-size:40px;fill:blue;font-family:AFSDot10GSQR, AFS Dot10 GSQR">ウェポンズ<tspan x="28.36" y="46.8">Weapons</tspan></text><text transform="translate(1605.74 487.68)" style="font-size:40px;fill:blue;font-family:AFSDot10GSQR, AFS Dot10 GSQR">ナビゲーション<tspan x="37.66" y="46.8">Navigation</tspan></text><text transform="translate(1118.89 639.27)" style="font-size:40px;fill:blue;font-family:AFSDot10GSQR, AFS Dot10 GSQR">アドミン<tspan x="28.83" y="46.79">Admin</tspan></text><text transform="translate(1326.63 813.32)" style="font-size:40px;fill:blue;font-family:AFSDot10GSQR, AFS Dot10 GSQR">シールド<tspan x="8.36" y="46.79">Shields</tspan></text><text transform="translate(1003.17 950.31)" style="font-size:40px;fill:blue;font-family:AFSDot10GSQR, AFS Dot10 GSQR">コミュニケーション<tspan x="36.72" y="46.79">Communications</tspan></text><text transform="translate(829.4 834.65)" style="font-size:40px;fill:blue;font-family:AFSDot10GSQR, AFS Dot10 GSQR">ストレージ<tspan x="28.36" y="46.79">Storage</tspan></text><text transform="translate(535.62 701.03)" style="font-size:40px;fill:blue;font-family:AFSDot10GSQR, AFS Dot10 GSQR">エレクトリカル<tspan x="37.66" y="46.79">Electrical</tspan></text><text transform="translate(567.55 447.26)" style="font-size:40px;fill:blue;font-family:AFSDot10GSQR, AFS Dot10 GSQR">メドベイ<tspan x="18.59" y="46.8">MedBay</tspan></text><text transform="translate(343.4 513.51)" style="font-size:40px;fill:blue;font-family:AFSDot10GSQR, AFS Dot10 GSQR">セキュリティ<tspan x="38.13" y="46.8">Security</tspan></text><text transform="translate(24.29 513.51)" style="font-size:40px;fill:blue;font-family:AFSDot10GSQR, AFS Dot10 GSQR">リアクター<tspan x="28.36" y="46.8">Reactor</tspan></text><text transform="translate(218.33 256.36)" style="font-size:40px;fill:blue;font-family:AFSDot10GSQR, AFS Dot10 GSQR">アッパー<tspan x="28.83" y="46.8">Upper</tspan><tspan x="18.59" y="78.24">Engine</tspan></text><text transform="translate(238.33 776.26)" style="font-size:40px;fill:blue;font-family:AFSDot10GSQR, AFS Dot10 GSQR">ロワー<tspan x="8.83" y="46.79">Lower</tspan><tspan x="-1.41" y="78.24">Engine</tspan></text><text transform="translate(1193 449.5)" style="font-size:40px;fill:blue;font-family:AFSDot10GSQR, AFS Dot10 GSQR">オーツー<tspan x="59.53" y="46.8">O2</tspan></text><text transform="translate(1634.86 968.81)" style="font-size:40px;font-family:AFSDot10GSQR, AFS Dot10 GSQR">カメラと範囲</text><text transform="translate(1637.79 1053.61)" style="font-size:40px;font-family:AFSDot10GSQR, AFS Dot10 GSQR">ベント</text></g><g id="outline-2" data-name="outline"><path d="M894.05,267.34h-4V247.42H878.11v12h-4v-12h-8v-4h8v-8h4v8h15.94Zm-27.89,0h4v4h-4Zm4-8h4v8h-4Zm19.92,11.92H878.11v-4h11.95Z" style="fill:blue"/><path d="M934.05,251.36h-4v-7.93h-23.9v-4h27.89Zm-15.94,19.93h-8v-4h8Zm0-7.93h4v4h-4Zm4-4h4v4h-4Zm4-8h4v8h-4Z" style="fill:blue"/><path d="M970.06,251.36h-8v12h11.95v4H946.16v-4h12v-12h-8v-3.94h19.92Z" style="fill:blue"/><path d="M1018,251.36h-11.95v12h-4v-12H986.16v-3.94H1018Zm-4-7.93H990.14v-4h23.91Zm-19.92,23.91h4v4h-4Zm4-4h4v4h-4Z" style="fill:blue"/><path d="M1030.14,239.45h4v19.92h-4Zm8,27.89h8v4h-8Zm8-4h4v4h-4Zm4-27.9h4v27.9h-4Z" style="fill:blue"/><path d="M1094.05,247.42h-4v-4h-23.9v-4h27.89Zm-23.91,19.92h4v4h-4Zm4-4h4v4h-4Zm4-15.94h4v3.94h4v4h-4v8h-4Zm8,0h4v3.94h-4Z" style="fill:blue"/><path d="M894.05,310.27h-4V290.35h4v19.92h8v4h-8Zm8-19.92h-8v-4h8v4h4v4h-4Zm0,15.93h4v4h-4Z" style="fill:blue"/><path d="M914.52,310.27h-4v-4h4v4h8v-4h-8v-4h-4v-4h4v-3.95h8v3.95h4v16h-12Zm8-12h-8v4h8Z" style="fill:blue"/><path d="M939,298.28h-4v-3.95h4v-4h4v4h4v3.95h-4v16h-4Zm4-11.92h4v4h-4Z" style="fill:blue"/><path d="M955.46,310.27h-4v-12h4v-3.95h8v3.95h4v8H955.46v4h11.95v4H955.46Zm8-12h-8v4h8Z" style="fill:blue"/><path d="M987.88,314.25h-8v-4h-4v-12h-4v-3.95h4v-8h4v8h8v3.95h-8v12h8Z" style="fill:blue"/><path d="M996.39,310.27h-4v-12h4v-3.95h8v3.95h4v8h-12v4h12v4h-12Zm8-12h-8v4h8Z" style="fill:blue"/><path d="M1016.86,294.33h4v3.95h4v4h-4v11.95h-4Zm8,0h4v3.95h-4Z" style="fill:blue"/><path d="M1041.31,286.36h4v4h-4Zm0,8h4v19.92h-4Z" style="fill:blue"/><path d="M1057.8,310.27h-4v-4h4v4h8v-4h-8v-4h-4v-4h4v-3.95h8v3.95h4v16h-12Zm8-12h-8v4h8Z" style="fill:blue"/><path d="M1338.5,240.28h-4V224.34h-19.93v12h-4V220.36h12v-4h4v4h12Zm-12,11.92h-8v-3.95h8Zm0-7.93h4v4h-4Zm4-4h4v4h-4Z" style="fill:blue"/><path d="M1374.52,232.27h-8v12h12v4h-27.89v-4h12v-12h-8v-3.94h19.93Z" style="fill:blue"/><path d="M1410.53,216.38h12v12h-19.93V252.2h-4V228.33h-11.95v-4h11.95v-8h4v8h8Zm-23.9,23.9h4v8h-4Zm4-8h4v8h-4Zm19.92,8h-4v-8h4v8h4v8h-4Zm8-19.92h-4v4h4Z" style="fill:blue"/><path d="M1438.58,224.34h-8v-4h8v4h4v4h-4Zm-4,23.91h8v3.95h-8Zm15.94,0h-8v-4h8Zm0-8h4v4h-4Zm4-8h4v8h-4Zm4-7.93h4v7.93h-4Z" style="fill:blue"/><path d="M1466.63,248.25h8v3.95h-8Zm23.9-11.95h-4v-8h-15.94v-4h19.92Zm-15.94,8h4v4h-4Zm4-4h4v4h-4Zm15.94,8h-4v-4h-4v-4h-4v-4h4v4h4v4h4v4h4v3.95h-4Zm-4-31.87h4v8h-4Zm8,0h4v8h-4Z" style="fill:blue"/><path d="M1343,267.27h4v15.94h4v12h-4v-8h-4v8h-4v-8h-4V267.27h4v15.94h4Zm8,0h4v15.94h-4Z" style="fill:blue"/><path d="M1359.44,291.18h-4v-12h4v-3.95h8v3.95h4v8h-12v4h12v4h-12Zm8-12h-8v4h8Z" style="fill:blue"/><path d="M1379.91,291.18h-4v-4h4v4h8v-4h-8v-4h-4v-4h4v-3.95h8v3.95h4v16h-11.95Zm8-12h-8v4h8Z" style="fill:blue"/><path d="M1408.34,279.19h-8v12h8v4h-8v3.95h-4V275.24h11.95v3.95h4v12h-4Z" style="fill:blue"/><path d="M1420.84,291.18h-4v-12h4v12h8v4h-8Zm8-12h-8v-3.95h8v3.95h4v12h-4Z" style="fill:blue"/><path d="M1449.28,279.19h4v16h-4v-16h-8v16h-4V275.24h12Z" style="fill:blue"/><path d="M1469.75,287.19h4v4h-4v-4h-8v-4h-4v-4h4v4h8Zm0,8h-12v-4h12Zm-8-19.92h12v3.95h-12Z" style="fill:blue"/><path d="M1641.6,465.26h-12V481.2h-4V465.26h-15.94v-4h15.94v-8h4v8h12Zm-23.91,19.92h4v3.95h-4Zm4-4h4v4h-4Z" style="fill:blue"/><path d="M1665.66,469.2h-12v16h19.92v3.95h-19.92v-3.95h-4V453.31h4v11.95h12Zm0-7.93h4v-8h4v11.95h-8Zm11.95-8h4v8h-4Z" style="fill:blue"/><path d="M1685.74,469.2h4v4h-4Zm4-3.94h4v3.94h-4Zm19.92-11.95h4v8h4v4h-8v11.95h-4V465.26h-12V453.31h4v8h12Zm-15.93,31.87h4v3.95h-4Zm4-4h4v4h-4Zm4-4h4v4h-4Zm15.93-23.9h4v8h-4Z" style="fill:blue"/><path d="M1757.61,473.23h-27.89v-4h27.89Z" style="fill:blue"/><path d="M1773.71,469.2h-4v-3.94h4v3.94h4v4h-4Zm4-7.93h-4v-4h4v4h4v4h-4Zm-4,23.91h8v3.95h-8Zm8-4h8v4h-8Zm8-4h4v4h-4Zm4-4h4v4h-4Zm4-8h4v8h-4Z" style="fill:blue"/><path d="M1833.63,489.13h-19.92v-3.95h15.93v-8h-15.93v-4h15.93v-4h-15.93v-3.94h19.92Z" style="fill:blue"/><path d="M1857.69,461.27h-8v-4h8v4h4v4h-4Zm-4,23.91h8v3.95h-8Zm15.93,0h-8v-4h8Zm0-8h4v4h-4Zm4-8h4v8h-4Zm4-7.93h4v7.93h-4Z" style="fill:blue"/><path d="M1655.35,504.2h4v27.89h-4v-4h-4v-8h-4v12h-4V504.2h4v8h4v8h4Z" style="fill:blue"/><path d="M1667.85,528.11h-4v-4h4v4h8v-4h-8v-4h-4v-4h4v-4h8v4h4v16h-12Zm8-12h-8v4h8Z" style="fill:blue"/><path d="M1688.32,524.12h-4v-12h4v12h8v8h-8Zm8-12h4v12h-4Z" style="fill:blue"/><path d="M1712.77,504.2h4v4h-4Zm0,8h4v19.92h-4Z" style="fill:blue"/><path d="M1737.22,528.11h-8v4h8V536h-8v-3.95h-4v-8h4v-4h-4v-4h4v4h4v4h4v4h4v4h-4Zm-4-12h-4v-4h12v4h-4v4h-4Z" style="fill:blue"/><path d="M1749.72,528.11h-4v-4h4v4h8v-4h-8v-4h-4v-4h4v-4h8v4h4v16h-12Zm8-12h-8v4h8Z" style="fill:blue"/><path d="M1782.14,532.09h-8v-4h-4v-12h-4v-4h4v-8h4v8h8v4h-8v12h8Z" style="fill:blue"/><path d="M1794.64,504.2h4v4h-4Zm0,8h4v19.92h-4Z" style="fill:blue"/><path d="M1811.13,528.11h-4v-12h4v12h8v4h-8Zm8-12h-8v-4h8v4h4v12h-4Z" style="fill:blue"/><path d="M1839.57,516.12h4v16h-4v-16h-8v16h-4V512.17h12Z" style="fill:blue"/><path d="M1150.77,616.85h-4v-4h-23.9v-4h27.89Zm-23.91,19.92h4v3.94h-4Zm4-4h4v4h-4Zm4-15.94h4v3.94h4v4h-4v8h-4Zm8,0h4v3.94h-4Z" style="fill:blue"/><path d="M1186.78,624.82h-8v-4h-8v19.92h-4V604.89h4v12h8v3.94h8Zm-8-19.93h4v8h-4Zm8,0h4v8h-4Z" style="fill:blue"/><path d="M1218.81,608.88h8v4h-8v-4h-12v-4h12Zm0,11.91h8v4h-8v-4h-12v-3.94h12Zm4,16h8v3.94h-8v-3.94h-15.94v-4h15.94Z" style="fill:blue"/><path d="M1250.84,612.86h-8v-4h8v4h4v4h-4Zm-4,23.91h8v3.94h-8Zm15.94,0h-8v-4h8Zm0-8h4v4h-4Zm4-8h4v8h-4Zm4-7.93h4v7.93h-4Z" style="fill:blue"/><path d="M1159.67,675.71h-8v8h-4V663.76h4v8h8v-8h-8v-8h8v8h4v19.92h-4Z" style="fill:blue"/><path d="M1172.17,679.7h-4v-12h4v12h8v-12h-8v-4h8v-8h4v27.89h-12Z" style="fill:blue"/><path d="M1204.59,667.71h4v16h-4v-16h-4v16h-4v-16h-4v16h-4V663.76h15.93Z" style="fill:blue"/><path d="M1217.09,655.79h4v4h-4Zm0,8h4v19.92h-4Z" style="fill:blue"/><path d="M1241.55,667.71h4v16h-4v-16h-8v16h-4V663.76h12Z" style="fill:blue"/><path d="M1334.59,794.84h-4V790.9h4v3.94h4v4h-4Zm4-7.93h-4v-4h4v4h4v4h-4Zm-4,23.91h8v3.94h-8Zm8-4h8v4h-8Zm8-4h4v4h-4Zm4-4h4v4h-4Zm4-8h4v8h-4Z" style="fill:blue"/><path d="M1398.5,798.87h-27.89v-4h27.89Z" style="fill:blue"/><path d="M1410.61,810.82h4v3.94h-4Zm4-27.89h4v27.89h-4Zm12-4h4v27.89h4v4h-4v3.94h-4Zm8,23.91h4v4h-4Zm4-8h4v8h-4Z" style="fill:blue"/><path d="M1474.52,798.87h-8v-4h-8v19.92h-4V778.94h4v12h8v3.94h8Zm-8-19.93h4v8h-4Zm8,0h4v8h-4Z" style="fill:blue"/><path d="M1346.94,845.78h4v8h-4v-8h-8v-4h-4v-7.93h4v7.93h8Zm-8,8h-4v-4h4v4h8v4h-8Zm8-19.93h-8v-4h8v4h4v4h-4Z" style="fill:blue"/><path d="M1367.41,841.75h4v16h-4v-16h-8v16h-4V829.84h4v8h8Z" style="fill:blue"/><path d="M1383.89,829.84h4v4h-4Zm0,8h4v19.92h-4Z" style="fill:blue"/><path d="M1400.38,853.75h-4v-12h4v-3.94h8v3.94h4v8h-11.95v4h11.95v4h-11.95Zm8-12h-8v4h8Z" style="fill:blue"/><path d="M1424.83,829.84h4v27.89h-4Z" style="fill:blue"/><path d="M1441.31,853.75h-4v-12h4v12h8v-12h-8v-3.94h8v-8h4v27.89h-12Z" style="fill:blue"/><path d="M1469.75,849.76h4v4h-4v-4h-8v-4h-4v-4h4v4h8Zm0,8h-12v-4h12Zm-8-19.92h12v3.94h-12Z" style="fill:blue"/><path d="M1035.05,947.81h-27.89v-4h23.9V927.89h-23.9v-4h27.89Z" style="fill:blue"/><path d="M1063.09,919.92h8v4h-8v-4h-11.95v-4h11.95Zm0,11.91h8v4h-8v-4h-11.95v-3.94h11.95Zm4,16h8v3.94h-8v-3.94h-15.94v-4h15.94Z" style="fill:blue"/><path d="M1107.08,943.83h8v4h-27.89v-4h15.93v-12h-11.95v-3.94h15.94Z" style="fill:blue"/><path d="M1159,947.81h-31.87v-4H1159Zm-4-23.91h-23.91v-4h23.91Z" style="fill:blue"/><path d="M1167.16,931.83h4v4h-4Zm4-3.94h4v3.94h-4Zm27.89,0h-8v12h-4v-12h-12v-12h4v8H1199Zm-23.91,19.92h4v3.94h-4Zm4-4h4v4h-4Zm4-4h4v4h-4Z" style="fill:blue"/><path d="M1235.05,935.86h-27.89v-4h27.89Z" style="fill:blue"/><path d="M1251.14,931.83h-4v-3.94h4v3.94h4v4h-4Zm4-7.93h-4v-4h4v4h4v4h-4Zm-4,23.91h8v3.94h-8Zm8-4h8v4h-8Zm8-4h4v4h-4Zm4-4h4v4h-4Zm4-8h4v8h-4Z" style="fill:blue"/><path d="M1311.06,951.75h-19.92v-3.94h15.94v-8h-15.94v-4h15.94v-4h-15.94v-3.94h19.92Z" style="fill:blue"/><path d="M1335.12,923.9h-8v-4h8v4h4v4h-4Zm-4,23.91h8v3.94h-8Zm15.94,0h-8v-4h8Zm0-8h4v4h-4Zm4-8h4v8h-4Zm4-7.93h4v7.93h-4Z" style="fill:blue"/><path d="M1043.87,990.74h-4V970.82h4v19.92h8v4h-8Zm8-19.92h-8v-4h8v4h4v4h-4Zm0,15.93h4v4h-4Z" style="fill:blue"/><path d="M1064.34,990.74h-4v-12h4v12h8v4h-8Zm8-12h-8v-4h8v4h4v12h-4Z" style="fill:blue"/><path d="M1096.76,978.75h4v16h-4v-16h-4v16h-4v-16h-4v16h-4V974.8h15.93Z" style="fill:blue"/><path d="M1117.23,978.75h4v16h-4v-16h-4v16h-4v-16h-4v16h-4V974.8h15.93Z" style="fill:blue"/><path d="M1133.72,974.8h4v19.92h-12v-4h-4V974.8h4v15.94h8Z" style="fill:blue"/><path d="M1154.19,978.75h4v16h-4v-16h-8v16h-4V974.8h12Z" style="fill:blue"/><path d="M1170.67,966.83h4v4h-4Zm0,8h4v19.92h-4Z" style="fill:blue"/><path d="M1187.16,990.74h-4v-12h4v12h8v4h-8Zm8-12h-8v-4h8v4h4v4h-4Zm0,8h4v4h-4Z" style="fill:blue"/><path d="M1207.62,990.74h-4v-4h4v4h8v-4h-8v-4h-4v-4h4v-4h8v4h4v16h-12Zm8-12h-8v4h8Z" style="fill:blue"/><path d="M1240.05,994.72h-8v-4h-4v-12h-4v-4h4v-8h4v8h8v4h-8v12h8Z" style="fill:blue"/><path d="M1252.55,966.83h4v4h-4Zm0,8h4v19.92h-4Z" style="fill:blue"/><path d="M1269,990.74h-4v-12h4v12h8v4h-8Zm8-12h-8v-4h8v4h4v12h-4Z" style="fill:blue"/><path d="M1297.47,978.75h4v16h-4v-16h-8v16h-4V974.8h12Z" style="fill:blue"/><path d="M1317.94,986.75h4v4h-4v-4h-8v-4h-4v-4h4v4h8Zm0,8h-12v-4h12Zm-8-19.92h12v4h-12Z" style="fill:blue"/><path d="M841.35,836.1h-8v-4h8Zm15.94-27.85H837.37v-4h23.9v8h-4Zm-15.94,19.92h4v4h-4Zm4-4h4v4h-4Zm15.93,8h-4v-4h-4v-4h-4v-4h4v4h4v4h4v4h4v4h-4Zm-8-19.92h4v8h-4Z" style="fill:blue"/><path d="M901.27,820.2h-8v-4h-8V836.1h-4V800.28h4v12h8v3.95h8Z" style="fill:blue"/><path d="M921.35,800.28h4v31.87h4v4h-8Zm8,27.89h8v4h-8Zm8-4h4v4h-4Zm4-4h4v4h-4Z" style="fill:blue"/><path d="M981.27,820.2H953.38v-4h27.89Z" style="fill:blue"/><path d="M997.37,816.18h-4v-3.95h4v3.95h4v4h-4Zm4-7.93h-4v-4h4v4h4v4h-4Zm4,27.85h-8v-4h8Zm0-7.93h8v4h-8Zm8-27.89h4v8h-4Zm0,23.9h4v4h-4Zm4-4h4v4h-4Zm4-19.92h4v8h-4Zm0,15.9h4v4h-4Z" style="fill:blue"/><path d="M869.71,867.11h4v8h-4v-8h-8v-4h-4v-7.93h4v7.93h8Zm-8,8h-4v-4h4v4h8v4h-8Zm8-19.92h-8v-4h8v4h4v4h-4Z" style="fill:blue"/><path d="M894.16,879.06h-8v-4h-4v-12h-4v-4h4v-8h4v8h8v4h-8v12h8Z" style="fill:blue"/><path d="M902.68,875.08h-4v-12h4v12h8v4h-8Zm8-12h-8v-4h8v4h4v12h-4Z" style="fill:blue"/><path d="M923.15,859.14h4v4h4v4h-4v11.95h-4Zm8,0h4v4h-4Z" style="fill:blue"/><path d="M943.62,875.08h-4v-4h4v4h8v-4h-8v-4h-4v-4h4v-4h8v4h4v16h-12Zm8-12h-8v4h8Z" style="fill:blue"/><path d="M972.05,875.08h-8v4h8v4h-8v-4h-4v-8h4v-4h-4v-4h4v4h4v4h4v4h4v4h-4Zm-4-12h-4v-4H976v4h-4v4h-4Z" style="fill:blue"/><path d="M984.55,875.08h-4v-12h4v-4h8v4h4v8h-12v4h12v4h-12Zm8-12h-8v4h8Z" style="fill:blue"/><path d="M567.5,674.62h-12v19.92h15.93v4H539.61v-4h11.95V674.62h-8v-4H567.5Z" style="fill:blue"/><path d="M587.58,666.65h4v31.88h4v3.94h-8Zm8,27.89h8v4h-8Zm8-4h4v4h-4Zm4-4h4v4h-4Z" style="fill:blue"/><path d="M619.61,682.55h4v4h-4Zm4-3.94h4v3.94h-4Zm0,19.92h8v3.94h-8Zm23.91-16h-4v-7.93h-12v4h-4v-12h4v4H647.5Zm-15.94,12h4v4h-4Zm4-4h4v4h-4Zm4-8h4v8h-4Z" style="fill:blue"/><path d="M687.5,686.58h-8v-4h-8v19.92h-4V666.65h4v12h8v3.94h8Z" style="fill:blue"/><path d="M703.59,670.64h4v19.92h-4Zm8,27.89h8v3.94h-8Zm8-4h4v4h-4Zm4-27.89h4v27.89h-4Z" style="fill:blue"/><path d="M767.5,698.53h-4V678.61h-12v11.95h-4V678.61h-8v-4h8v-8h4v8H767.5Zm-27.89,0h4v3.94h-4Zm4-8h4v8h-4Zm19.93,11.91h-12v-3.94h12Z" style="fill:blue"/><path d="M779.61,698.53h4v3.94h-4Zm4-27.89h4v27.89h-4Zm12-4h4v27.89h4v4h-4v3.94h-4Zm8,23.91h4v4h-4Zm4-8h4v8h-4Z" style="fill:blue"/><path d="M585.23,733.49h-8v8h12v4H573.28V717.55h15.94v4h-12v7.92h8Z" style="fill:blue"/><path d="M601.72,717.55h4v27.89h-4Z" style="fill:blue"/><path d="M618.2,741.46h-4v-12h4v-3.94h8v3.94h4v8h-12v4h12v4h-12Zm8-12h-8v4h8Z" style="fill:blue"/><path d="M638.67,741.46h-4v-12h4v12h8v4h-8Zm8-12h-8v-3.94h8v3.94h4v4h-4Zm0,8h4v4h-4Z" style="fill:blue"/><path d="M671.09,745.44h-8v-4h-4v-12h-4v-3.94h4v-8h4v8h8v3.94h-8v12h8Z" style="fill:blue"/><path d="M679.61,725.52h4v3.94h4v4h-4v12h-4Zm8,0h4v3.94h-4Z" style="fill:blue"/><path d="M704.06,717.55h4v4h-4Zm0,8h4v19.92h-4Z" style="fill:blue"/><path d="M720.55,741.46h-4v-12h4v12h8v4h-8Zm8-12h-8v-3.94h8v3.94h4v4h-4Zm0,8h4v4h-4Z" style="fill:blue"/><path d="M741,741.46h-4v-4h4v4h8v-4h-8v-4h-4v-4h4v-3.94h8v3.94h4v16H741Zm8-12h-8v4h8Z" style="fill:blue"/><path d="M765.47,717.55h4v27.89h-4Z" style="fill:blue"/><path d="M579.51,448.7h-8v-3.94h8Zm15.93-7.93h-4v-4h-4v-4h-4v-4h-4v-3.95h4v3.95h4v4h4v4h4v4h4v4h-4Zm-15.93,0h4v4h-4Zm4-4h4v4h-4Zm8-12h4v8h-4Zm4-11.95h4v11.95h-4Z" style="fill:blue"/><path d="M635.44,432.8h-8v-4h-8V448.7h-4V412.88h4v11.95h8v3.95h8Zm-8-19.92h4v8h-4Zm8,0h4v8h-4Z" style="fill:blue"/><path d="M651.54,432.8h4v4h-4Zm4-8h4v8h-4Zm23.91,15.94h-4v-4h-4v-4h-4v-4h-4v-3.95h-4v-4h4v4h4v3.95h4v4h4v4h4v4h4v4h-4Zm-8-23.9h4v8h-4Zm8,0h4v8h-4Z" style="fill:blue"/><path d="M691.54,432.8h8v4h-8Zm8-4h4v4h-4Zm8,0h-4v-3.95h4v-4h4V448.7h-4Zm4-11.91h4v4h-4Zm4-4h4v4h-4Z" style="fill:blue"/><path d="M594.11,479.72h-4v11.95h-4V463.78h4v4h4v12h4v11.95h-4Zm8,0h-4v-12h4v-4h4v27.89h-4Z" style="fill:blue"/><path d="M610.6,487.68h-4v-12h4v-3.94h8v3.94h4v8H610.6v4h11.95v4H610.6Zm8-12h-8v4h8Z" style="fill:blue"/><path d="M631.07,487.68h-4v-12h4v12h8v-12h-8v-3.94h8v-8h4v27.89H631.07Z" style="fill:blue"/><path d="M659.51,467.76h4v7.93h-4v-7.93h-8v7.93h8v4h4v8h-4v-8h-8v8h8v4h-12V463.78h12Z" style="fill:blue"/><path d="M672,487.68h-4v-4h4v4h8v-4h-8v-4h-4v-4h4v-3.94h8v3.94h4v16H672Zm8-12h-8v4h8Z" style="fill:blue"/><path d="M696.46,483.7h-4v-4h-4v-8h4v8h4v4h4v8h-4Zm0,11.91h-8v-3.94h8Zm4-23.86h4V483.7h-4Z" style="fill:blue"/><path d="M359.34,511h-4V495h-8v-3.95h8V479.13h4v11.95h4V495h-4v16h19.92V515H359.34Zm19.92-16h-4v-3.95H363.32v-4h15.94Zm-11.95,4h4v4h-4Zm4-4h4v4h-4Z" style="fill:blue"/><path d="M415.27,491.08H403.32v8h11.95v4h-8V515h-4V503H387.38v-4h12v-8h-12v-4h12v-8h4v8h11.95Z" style="fill:blue"/><path d="M447.31,507h8v4H427.38v-4h15.94V495H431.37v-3.95h15.94Z" style="fill:blue"/><path d="M471.37,483.12h4V503h-4Zm8,27.89h8V515h-8Zm8-4h4v4h-4Zm4-27.89h4V507h-4Z" style="fill:blue"/><path d="M539.26,495h-12v12h-4V495H507.38v-3.95h31.88Zm-4-7.93h-23.9v-4h23.9ZM515.35,511h4V515h-4Zm4-4h4v4h-4Z" style="fill:blue"/><path d="M559.34,503h-8v-4h8Zm8,11.91h-4v-15.9h-4v-4h8Zm0-23.87h4V495h-4Zm4-4h4v4h-4Z" style="fill:blue"/><path d="M393.48,546h4v8h-4v-8h-8v-4h-4V534h4v7.93h8Zm-8,8h-4v-4h4v4h8v4h-8Zm8-19.92h-8v-4h8v4h4v4h-4Z" style="fill:blue"/><path d="M406,553.93h-4v-12h4V538h8v3.94h4v8H406v4h11.95v4H406Zm8-12h-8v4h8Z" style="fill:blue"/><path d="M426.45,553.93h-4v-12h4v12h8v4h-8Zm8-12h-8V538h8v3.94h4v4h-4Zm0,8h4v4h-4Z" style="fill:blue"/><path d="M454.88,538h4v19.92h-12v-4h-4V538h4v15.93h8Z" style="fill:blue"/><path d="M467.38,538h4v3.94h4v4h-4v11.95h-4Zm8,0h4v3.94h-4Z" style="fill:blue"/><path d="M491.84,530h4v4h-4Zm0,8h4v19.92h-4Z" style="fill:blue"/><path d="M520.27,557.92h-8v-4h-4v-12h-4V538h4v-8h4v8h8v3.94h-8v12h8Z" style="fill:blue"/><path d="M532.77,550h-4v-4h-4v-8h4v8h4v4h4v8h-4Zm0,11.91h-8v-3.94h8Zm4-23.86h4v12h-4Z" style="fill:blue"/><path d="M32.25,483.12h4V503h-4Zm8,27.89h8V515h-8Zm8-4h4v4h-4Zm4-27.89h4V507h-4Z" style="fill:blue"/><path d="M96.16,491.08h-4v-4H68.27v-4H96.16ZM72.25,511h4V515h-4Zm4-4h4v4h-4Zm4-15.94h4V495h4v4h-4v8h-4Zm8,0h4V495h-4Z" style="fill:blue"/><path d="M108.27,495h4v4h-4Zm4-3.95h4V495h-4Zm0,19.93h8V515h-8Zm23.91-16h-4V487.1h-12v4h-4V479.13h4v4h15.94Zm-15.94,12h4v4h-4Zm4-4h4v4h-4Zm4-8h4v8h-4Z" style="fill:blue"/><path d="M148.27,495h4v4h-4Zm15.94,4h4v-4h4v8h-4v4h-4v-8h-8v-4h-4v-3.95h4V495h8Zm-12,12h8V515h-8Zm23.91-16h-4V487.1h-12v4h-4V479.13h4v4h15.94Zm-15.94,12h4v4h-4Z" style="fill:blue"/><path d="M216.16,499.05H188.27v-4h27.89Z" style="fill:blue"/><path d="M64.6,534h4v7.93h-4V534h-8v7.93h8v8h4v8h-4v-8h-4v-4h-4v11.95h-4V530H64.6Z" style="fill:blue"/><path d="M77.1,553.93h-4v-12h4V538h8v3.94h4v8h-12v4h12v4h-12Zm8-12h-8v4h8Z" style="fill:blue"/><path d="M97.57,553.93h-4v-4h4v4h8v-4h-8v-4h-4v-4h4V538h8v3.94h4v16h-12Zm8-12h-8v4h8Z" style="fill:blue"/><path d="M118,553.93h-4v-12h4v12h8v4h-8Zm8-12h-8V538h8v3.94h4v4h-4Zm0,8h4v4h-4Z" style="fill:blue"/><path d="M150.46,557.92h-8v-4h-4v-12h-4V538h4v-8h4v8h8v3.94h-8v12h8Z" style="fill:blue"/><path d="M159,553.93h-4v-12h4v12h8v4h-8Zm8-12h-8V538h8v3.94h4v12h-4Z" style="fill:blue"/><path d="M179.44,538h4v3.94h4v4h-4v11.95h-4Zm8,0h4v3.94h-4Z" style="fill:blue"/><path d="M250.21,233.94h-4v-4h-23.9v-4h27.89ZM226.3,253.86h4v3.95h-4Zm4-4h4v4h-4Zm4-15.94h4v3.95h4v4h-4v8h-4Zm8,0h4v3.95h-4Z" style="fill:blue"/><path d="M266.3,233.94h4v8h-4Zm12,23.87h-8v-3.95h8Zm-4-23.87h4v8h-4Zm4,15.94h4v4h-4Zm4-4h4v4h-4Zm4-12h4v12h-4Z" style="fill:blue"/><path d="M298.33,249.88h4v4h-4Zm4-8h4v8h-4Zm4-11.95h4v11.95h-4Zm19.92,11.95h-4v-8h-4v-4h4v-8h11.95v11.95h-8v8h4v12h-4Zm4-15.94h-4v4h4Z" style="fill:blue"/><path d="M370.21,241.91H342.32v-4h27.89Z" style="fill:blue"/><path d="M251.15,296.79h-4v-23.9h4v23.9h8v4h-8Zm8-23.9h4v23.9h-4Z" style="fill:blue"/><path d="M279.58,284.8h-8v12h8v4h-8v3.94h-4V280.86h11.95v3.94h4v12h-4Z" style="fill:blue"/><path d="M300.05,284.8h-8v12h8v4h-8v3.94h-4V280.86h11.95v3.94h4v12h-4Z" style="fill:blue"/><path d="M312.55,296.79h-4v-12h4v-3.94h8v3.94h4v8h-12v4h12v4h-12Zm8-12h-8v4h8Z" style="fill:blue"/><path d="M333,280.86h4v3.94h4v4h-4v12h-4Zm8,0h4v3.94h-4Z" style="fill:blue"/><path d="M248.88,320.27h-8v8h12v4H236.93V304.33h15.94v4h-12v7.93h8Z" style="fill:blue"/><path d="M269.35,316.24h4v16h-4v-16h-8v16h-4V312.3h12Z" style="fill:blue"/><path d="M289.82,328.23h-8v4h8v3.94h-8v-3.94h-4v-8h4v-4h-4v-4h4v4h4v4h4v4h4v4h-4Zm-4-12h-4V312.3H293.8v3.94h-4v4h-4Z" style="fill:blue"/><path d="M306.3,304.33h4v4h-4Zm0,8h4v19.92h-4Z" style="fill:blue"/><path d="M330.76,316.24h4v16h-4v-16h-8v16h-4V312.3h12Z" style="fill:blue"/><path d="M343.26,328.23h-4v-12h4V312.3h8v3.94h4v8H343.26v4h11.95v4H343.26Zm8-12h-8v4h8Z" style="fill:blue"/><path d="M270.21,773.76H242.32V745.87h27.89Zm-4-23.9H246.3v19.92h19.92Z" style="fill:blue"/><path d="M310.21,765.79h-4V749.86H286.3v11.95h-4V745.87h27.89Zm-11.95,11.92h-8v-4h8Zm0-7.93h4v4h-4Zm4-4h4v4h-4Z" style="fill:blue"/><path d="M350.21,761.81H322.32v-4h27.89Z" style="fill:blue"/><path d="M247.16,792.78h4v23.91h12v4H247.16Z" style="fill:blue"/><path d="M271.62,816.69h-4v-12h4v12h8v4h-8Zm8-12h-8v-4h8v4h4v12h-4Z" style="fill:blue"/><path d="M292.08,812.71h-4v-12h4v12h4v8h-4Zm8,0h-4v-12h4v12h4v8h-4Zm4-12h4v12h-4Z" style="fill:blue"/><path d="M312.55,816.69h-4v-12h4v-4h8v4h4v8h-12v4h12v4h-12Zm8-12h-8v4h8Z" style="fill:blue"/><path d="M333,800.75h4v4h4v4h-4v11.95h-4Zm8,0h4v4h-4Z" style="fill:blue"/><path d="M248.88,840.16h-8v8h12v4H236.93V824.23h15.94v4h-12v7.93h8Z" style="fill:blue"/><path d="M269.35,836.14h4v16h-4v-16h-8v16h-4V832.19h12Z" style="fill:blue"/><path d="M289.82,848.13h-8v4h8v3.94h-8v-3.94h-4v-8h4v-4h-4v-4h4v4h4v4h4v4h4v4h-4Zm-4-12h-4v-3.95H293.8v3.95h-4v4h-4Z" style="fill:blue"/><path d="M306.3,824.23h4v4h-4Zm0,8h4v19.93h-4Z" style="fill:blue"/><path d="M330.76,836.14h4v16h-4v-16h-8v16h-4V832.19h12Z" style="fill:blue"/><path d="M343.26,848.13h-4v-12h4v-3.95h8v3.95h4v8H343.26v4h11.95v4H343.26Zm8-12h-8v4h8Z" style="fill:blue"/><path d="M1228.86,427.08h-8V451h-12V447h8V431h-4v-3.94H1197v-4h19.92v-8h4v8h8ZM1205,443h-8v-4h8Zm0-8h4v4h-4Zm4-4h4v4h-4Z" style="fill:blue"/><path d="M1264.88,435.05H1237v-4h27.89Z" style="fill:blue"/><path d="M1281,427.08h-4v-4h4v4h4v8h-4Zm8-4h-4v-4h4v4h4V431h-4Zm-4,23.9h8V451h-8Zm8-4h4v4h-4Zm4-4h4v4h-4Zm4-8h4v8h-4Zm4-11.91h4V431h-4Z" style="fill:blue"/><path d="M1344.88,435.05H1317v-4h27.89Z" style="fill:blue"/><path d="M1256.52,489.93h-4V470h4v19.92h8v4h-8Zm8-19.92h-8v-4h8v4h4v19.92h-4Z" style="fill:blue"/><path d="M1273,470h4v4h-4Zm0,15.94h4v4h12v4H1273ZM1285,470h-8v-4h8v4h4v7.93h-4ZM1277,482h4v4h-4Zm4-4h4v4h-4Z" style="fill:blue"/><path d="M1666.73,966.31h-4V946.39h-12v12h-4v-12h-8v-4h8v-8h4v8h15.93Zm-27.89,0h4v4h-4Zm4-8h4v8h-4Zm19.92,11.92h-12v-4h12Z"/><path d="M1686.81,970.26h-8v-4h8Zm15.94-7.93h-4v-4h-4v-4h-4v-4h-4v-3.94h4v3.94h4v4h4v4h4v4h4v4h-4Zm-15.94,0h4v4h-4Zm4-4h4v4h-4Zm8-12h4v8h-4Zm4-11.95h4v11.95h-4Z"/><path d="M1746.73,958.34h-4v-8h-23.91v-3.94h27.89Zm-23.9-23.9h19.92v4h-19.92Zm4,31.87h8v4h-8Zm8-4h4v4h-4Zm4-4h4v4h-4Z"/><path d="M1786.73,970.26h-19.92v-4h-4v-8h4v8h19.92Zm-8-15.9h-8v-4h-4V934.44h4v15.89h8Zm-12,0h4v4h-4Zm12-8h8v3.94h-8Z"/><path d="M1810.8,942.4h4v4h4v-4h-4v-8h4v4h12v4h-8v4h4v12h-4v-8h-4v16h8v-4h4v7.93h-15.94v-4h-8v4h-4v-4h-8v-4h4v-8h4v-4h-8V942.4h4v4h4v-4h-4v-8h4v4h8Zm-4,15.94h-4v4h4Zm4-15.94h-4v4h4Zm4,7.93h-8v4h4v8h4Z"/><path d="M1870.72,970.26h-35.86V934.44h35.86Zm-4-31.84h-8v4h4v4h-4v3.94h4v4h-4v8h-4v-8h-4v4h-4v-4h-4v-4h4v-3.94h-4v-4h4v-4h-8v27.89h27.89Zm-23.9,19.92h4v4h-4Zm12-19.92h-4v4h4Zm0,8h-4v3.94h4Z"/><path d="M1641.78,1039.16h4v4h-4Zm4-8h4v8h-4Zm23.91,15.94h-4v-4h-4v-4h-4v-4h-4v-4h-4v-4h4v4h4v4h4v4h4v4h4v4h4v4h-4Zm-8-23.91h4v8h-4Zm8,0h4v8h-4Z"/><path d="M1689.74,1027.21h-8v-4h8v4h4v4h-4Zm-4,23.9h8v4h-8Zm15.94,0h-8v-4h8Zm0-8h4v4h-4Zm4-8h4v8h-4Zm4-7.93h4v7.93h-4Z"/><path d="M1749.67,1039.16h-8v-4h-8v19.92h-4v-35.82h4v12h8v4h8Z"/></g></g></svg>